<svg width="142" height="120" viewBox="0 0 142 120" fill="none" xmlns="http://www.w3.org/2000/svg"   class="w-6/12 max-w-[70%] mb-3 self-center">
<path d="M89.1 70.7145C90.5262 75.2242 93.4118 79.2734 97.2545 82.1452C101.326 85.1885 106.186 86.7966 111.308 86.7966C116.43 86.7966 121.289 85.1885 125.36 82.1452C128.804 79.5709 131.481 76.0473 133.027 72.0945C137.55 70.4496 140.891 66.5746 141.751 61.7957C141.891 61.0179 141.961 60.2217 141.961 59.4297C141.961 53.9269 138.577 49.0715 133.594 46.993L133.683 45.623C133.683 45.623 133.683 45.6188 133.683 45.6173C133.686 45.5734 133.689 45.5295 133.69 45.4842L133.868 42.7568L133.88 42.5627C134.075 39.6314 132.128 36.9281 129.256 36.1375L128.099 35.8173C128.083 35.8131 128.066 35.8088 128.05 35.8046L122.011 34.137C121.994 34.1314 121.975 34.1271 121.958 34.1214L116.964 32.7415C116.957 32.7401 116.948 32.7372 116.941 32.7358C116.924 32.7316 116.907 32.7273 116.889 32.7216L114.063 31.941C114.045 31.9353 114.028 31.9311 114.011 31.9268L110.666 31.0031C110.653 30.9988 110.639 30.996 110.626 30.9917L110.047 30.8316C107.176 30.0411 104.088 31.3516 102.705 33.95L99.7083 39.5747C99.6968 39.5959 99.6852 39.6172 99.6752 39.6399L98.3353 42.1547L92.8908 45.7789C92.4993 46.0395 92.1741 46.3697 91.9222 46.7465C88.7359 47.8927 86.0647 50.1794 84.46 53.2383C83.4626 55.1382 82.9359 57.279 82.9359 59.4311C82.9359 64.0343 85.2645 68.2365 89.1029 70.7159L89.1 70.7145Z" fill="white"/>
<path d="M138.435 59.4312C138.435 60.0333 138.381 60.6213 138.279 61.1937C137.432 65.896 133.26 69.4678 128.239 69.4678C126.555 69.4678 124.966 69.0654 123.567 68.3542C120.286 66.6866 118.044 63.316 118.044 59.4312C118.044 53.8887 122.609 49.3946 128.239 49.3946C133.869 49.3946 138.434 53.8887 138.434 59.4312H138.435Z" fill="#F4C188"/>
<path d="M138.279 61.1936C137.432 65.896 133.26 69.4677 128.239 69.4677C126.555 69.4677 124.966 69.0653 123.567 68.3541C123.541 68.0892 123.528 67.8214 123.528 67.5494C123.528 62.7719 127.463 58.8984 132.316 58.8984C134.616 58.8984 136.71 59.7683 138.277 61.1936H138.279Z" fill="#F3B37B"/>
<path d="M138.435 59.4312C138.435 60.0333 138.381 60.6213 138.279 61.1937C137.432 65.896 133.26 69.4678 128.239 69.4678C126.555 69.4678 124.966 69.0654 123.567 68.3542C120.286 66.6866 118.044 63.316 118.044 59.4312C118.044 53.8887 122.609 49.3946 128.239 49.3946C133.869 49.3946 138.434 53.8887 138.434 59.4312H138.435Z" stroke="#382A4D" stroke-width="0.576014" stroke-linecap="round" stroke-linejoin="round"/>
<path d="M96.6557 69.4678C96.044 69.4678 95.4468 69.4139 94.8653 69.3133C90.0872 68.4803 86.4604 64.373 86.4604 59.4312C86.4604 57.7735 86.8692 56.2094 87.5916 54.8322C89.2856 51.6019 92.7094 49.3946 96.6557 49.3946C102.286 49.3946 106.851 53.8887 106.851 59.4312C106.851 64.9737 102.286 69.4678 96.6557 69.4678Z" fill="#F4C188"/>
<path d="M94.8653 69.3133C90.0872 68.4802 86.4604 64.3729 86.4604 59.4311C86.4604 57.7735 86.8692 56.2093 87.5916 54.8322C87.8608 54.8067 88.1327 54.794 88.4091 54.794C93.262 54.794 97.1968 58.6675 97.1968 63.4449C97.1968 65.709 96.3131 67.7704 94.8653 69.3133Z" fill="#F3B37B"/>
<path d="M96.6557 69.4678C96.044 69.4678 95.4468 69.4139 94.8653 69.3133C90.0872 68.4803 86.4604 64.373 86.4604 59.4312C86.4604 57.7735 86.8692 56.2094 87.5916 54.8322C89.2856 51.6019 92.7094 49.3946 96.6557 49.3946C102.286 49.3946 106.851 53.8887 106.851 59.4312C106.851 64.9737 102.286 69.4678 96.6557 69.4678Z" stroke="#382A4D" stroke-width="0.576014" stroke-linecap="round" stroke-linejoin="round"/>
<path d="M131.035 63.9083C131.035 65.8195 130.759 67.6571 130.235 69.4012C127.827 77.4486 120.263 83.3269 111.307 83.3269C102.351 83.3269 94.7818 77.4486 92.3783 69.4012C91.8574 67.6571 91.5739 65.8181 91.5739 63.9083C91.5739 58.4309 93.8766 53.4891 97.5753 49.9585C101.133 46.5695 105.974 44.484 111.307 44.484C116.639 44.484 121.483 46.5695 125.034 49.9585C128.732 53.4891 131.035 58.4309 131.035 63.9083Z" fill="#F4C188"/>
<path d="M130.451 68.6248C130.454 68.5483 130.454 68.4689 130.454 68.391C130.454 62.1061 127.813 56.4347 123.569 52.3812C119.496 48.4921 113.938 46.0977 107.815 46.0977C105.721 46.0977 103.693 46.3797 101.769 46.9039C104.597 45.3596 107.85 44.4826 111.308 44.4826C116.643 44.4826 121.485 46.5681 125.035 49.9571C128.734 53.4877 131.037 58.4295 131.037 63.9069C131.037 65.5362 130.835 67.1117 130.451 68.6234V68.6248Z" fill="#F6D0AA"/>
<path d="M116.708 82.5873C114.991 83.069 113.181 83.3255 111.308 83.3255C102.352 83.3255 94.7833 77.4472 92.3799 69.3998C91.8589 67.6557 91.5753 65.8167 91.5753 63.9069C91.5753 60.0517 92.7166 56.463 94.6826 53.4452C93.714 55.8665 93.183 58.5018 93.183 61.2631C93.183 63.3699 93.4967 65.3945 94.0694 67.3171C96.7161 76.1834 105.056 82.6596 114.925 82.6596C115.526 82.6596 116.121 82.6355 116.708 82.5873Z" fill="#F3B37B"/>
<path d="M131.035 63.9068C131.035 65.8166 130.759 67.6556 130.236 69.3997C127.827 77.4471 120.264 83.3254 111.308 83.3254C102.352 83.3254 94.7833 77.4471 92.3799 69.3997C91.8574 67.6556 91.5753 65.8166 91.5753 63.9068C91.5753 58.4309 93.8766 53.4877 97.5768 49.957C101.133 46.568 105.974 44.4811 111.308 44.4811C116.642 44.4811 121.485 46.568 125.034 49.957C128.734 53.4877 131.035 58.4309 131.035 63.9068Z" stroke="#382A4D" stroke-width="0.576014" stroke-linecap="round" stroke-linejoin="round"/>
<path d="M125.356 73.395C123.638 75.9014 121.1 77.1736 119.693 76.2386C119.185 75.8985 118.891 75.3191 118.808 74.5979C118.655 73.32 119.156 71.6042 120.254 70.0046C121.791 67.7619 123.984 66.508 125.437 66.9401C125.608 66.9897 125.769 67.062 125.917 67.1611C127.326 68.0991 127.074 70.8901 125.356 73.395Z" fill="#F3B37B"/>
<path d="M132.811 59.1322L129.705 52.4534L101.045 44.5406L94.8639 48.6536L132.811 59.1322Z" fill="#ABC1F9"/>
<path d="M129.707 52.4534L122.599 50.4898L117.705 49.141L109.962 47.003L105.36 45.7322L101.047 44.5406L102.833 41.1856L105.223 36.6972L105.828 35.5638C106.448 34.3992 107.811 33.8211 109.097 34.1753L109.715 34.3453L113.061 35.2691L116.014 36.0838L121.008 37.4637L127.149 39.1596L128.306 39.4798C129.593 39.834 130.452 41.027 130.366 42.3389L130.353 42.5245L130.167 45.3808L130.169 45.3836V45.3865L130.065 46.9761L129.708 52.4563L129.707 52.4534Z" fill="white"/>
<path d="M132.811 59.1322L129.705 52.4534L101.045 44.5406L94.8639 48.6535L132.811 59.1322Z" stroke="#382A4D" stroke-width="0.576014" stroke-linecap="round" stroke-linejoin="round"/>
<path d="M129.707 52.4534L130.064 46.9732L130.167 45.3835V45.3807C130.167 45.3807 130.166 45.3807 130.166 45.3779L130.351 42.5216L130.364 42.336C130.451 41.024 129.592 39.8311 128.305 39.4769L127.148 39.1567L121.007 37.4608L116.013 36.0808L113.06 35.2662L109.713 34.3424L109.096 34.1724C107.809 33.8182 106.446 34.3949 105.826 35.5609L105.222 36.6943L102.831 41.1827L101.045 44.5377" stroke="#382A4D" stroke-width="0.576014" stroke-linecap="round" stroke-linejoin="round"/>
<path d="M122.866 45.2816C124.3 45.2816 125.463 44.1373 125.463 42.7257C125.463 41.3141 124.3 40.1698 122.866 40.1698C121.432 40.1698 120.27 41.3141 120.27 42.7257C120.27 44.1373 121.432 45.2816 122.866 45.2816Z" fill="#ABC1F9"/>
<path d="M122.866 45.2816C124.3 45.2816 125.463 44.1373 125.463 42.7257C125.463 41.3141 124.3 40.1698 122.866 40.1698C121.432 40.1698 120.27 41.3141 120.27 42.7257C120.27 44.1373 121.432 45.2816 122.866 45.2816Z" stroke="#382A4D" stroke-width="0.576014" stroke-linecap="round" stroke-linejoin="round"/>
<path d="M122.375 49.8804C122.326 50.0561 122.257 50.2205 122.177 50.3763L117.285 49.0247C117.296 48.8504 117.327 48.6733 117.376 48.5005C117.763 47.1403 119.198 46.3469 120.576 46.728C121.958 47.1092 122.764 48.5217 122.377 49.8818L122.375 49.8804Z" fill="#ABC1F9"/>
<path d="M122.375 49.8804C122.326 50.0561 122.257 50.2205 122.177 50.3763L117.285 49.0247C117.296 48.8504 117.327 48.6733 117.376 48.5005C117.763 47.1403 119.198 46.3469 120.576 46.728C121.958 47.1092 122.764 48.5217 122.377 49.8818L122.375 49.8804Z" stroke="#382A4D" stroke-width="0.576014" stroke-linecap="round" stroke-linejoin="round"/>
<path d="M121.005 37.4636C120.569 38.7501 119.179 39.4854 117.841 39.1142C116.502 38.743 115.703 37.407 116.011 36.0837L121.005 37.4636Z" fill="#ABC1F9"/>
<path d="M121.005 37.4636C120.569 38.7501 119.179 39.4854 117.841 39.1142C116.502 38.743 115.703 37.407 116.011 36.0837L121.005 37.4636Z" stroke="#382A4D" stroke-width="0.576014" stroke-linecap="round" stroke-linejoin="round"/>
<path d="M130.35 42.523C129.882 42.6703 129.368 42.6887 128.863 42.5485C127.485 42.1702 126.677 40.7576 127.064 39.3975C127.087 39.3153 127.113 39.236 127.146 39.1595L128.303 39.4797C129.59 39.8339 130.449 41.0268 130.363 42.3388L130.35 42.5244V42.523Z" fill="#ABC1F9"/>
<path d="M130.35 42.523C129.882 42.6703 129.368 42.6887 128.863 42.5485C127.485 42.1702 126.677 40.7576 127.064 39.3975C127.087 39.3153 127.113 39.236 127.146 39.1595L128.303 39.4797C129.59 39.8339 130.449 41.0268 130.363 42.3388L130.35 42.5244V42.523Z" stroke="#382A4D" stroke-width="0.576014" stroke-linecap="round" stroke-linejoin="round"/>
<path d="M114.907 45.6499C116.341 45.6499 117.504 44.5056 117.504 43.094C117.504 41.6824 116.341 40.5381 114.907 40.5381C113.474 40.5381 112.311 41.6824 112.311 43.094C112.311 44.5056 113.474 45.6499 114.907 45.6499Z" fill="#ABC1F9"/>
<path d="M114.907 45.6499C116.341 45.6499 117.504 44.5056 117.504 43.094C117.504 41.6824 116.341 40.5381 114.907 40.5381C113.474 40.5381 112.311 41.6824 112.311 43.094C112.311 44.5056 113.474 45.6499 114.907 45.6499Z" stroke="#382A4D" stroke-width="0.576014" stroke-linecap="round" stroke-linejoin="round"/>
<path d="M110.437 46.092C110.338 46.4362 110.174 46.7423 109.962 47.0015L105.36 45.7307C105.317 45.4006 105.338 45.0563 105.435 44.7106C105.822 43.3533 107.255 42.5613 108.637 42.941C110.019 43.3221 110.823 44.7347 110.437 46.092Z" fill="#ABC1F9"/>
<path d="M110.437 46.092C110.338 46.4362 110.174 46.7423 109.962 47.0015L105.36 45.7307C105.317 45.4006 105.338 45.0563 105.435 44.7106C105.822 43.3533 107.255 42.5613 108.637 42.941C110.019 43.3221 110.823 44.7347 110.437 46.092Z" stroke="#382A4D" stroke-width="0.576014" stroke-linecap="round" stroke-linejoin="round"/>
<path d="M106.837 39.7887C106.449 41.1488 105.016 41.9422 103.636 41.5611C103.338 41.4789 103.069 41.35 102.831 41.1828L105.223 36.6944C106.49 37.1449 107.206 38.4909 106.837 39.7887Z" fill="#ABC1F9"/>
<path d="M106.837 39.7887C106.449 41.1488 105.016 41.9422 103.636 41.5611C103.338 41.4789 103.069 41.35 102.831 41.1828L105.223 36.6944C106.49 37.1449 107.206 38.4909 106.837 39.7887Z" stroke="#382A4D" stroke-width="0.576014" stroke-linecap="round" stroke-linejoin="round"/>
<path d="M113.366 37.3262C112.979 38.6863 111.546 39.4797 110.164 39.0972C108.782 38.716 107.979 37.3049 108.366 35.9448C108.574 35.218 109.077 34.6541 109.713 34.3438L113.058 35.2675C113.438 35.8584 113.573 36.5993 113.366 37.3262Z" fill="#ABC1F9"/>
<path d="M113.366 37.3262C112.979 38.6863 111.546 39.4797 110.164 39.0972C108.782 38.716 107.979 37.3049 108.366 35.9448C108.574 35.218 109.077 34.6541 109.713 34.3438L113.058 35.2675C113.438 35.8584 113.573 36.5993 113.366 37.3262Z" stroke="#382A4D" stroke-width="0.576014" stroke-linecap="round" stroke-linejoin="round"/>
<path d="M129.884 49.7105C129.311 50.0165 128.624 50.11 127.951 49.9244C126.569 49.5433 125.763 48.1322 126.152 46.772C126.539 45.4119 127.972 44.6185 129.354 45.0011C129.655 45.0846 129.928 45.2164 130.169 45.3836V45.3864L129.885 49.7119L129.884 49.7105Z" fill="#ABC1F9"/>
<path d="M129.884 49.7105C129.311 50.0165 128.624 50.11 127.951 49.9244C126.569 49.5433 125.763 48.1322 126.152 46.772C126.539 45.4119 127.972 44.6185 129.354 45.0011C129.655 45.0846 129.928 45.2164 130.169 45.3836V45.3864L129.885 49.7119L129.884 49.7105Z" stroke="#382A4D" stroke-width="0.576014" stroke-linecap="round" stroke-linejoin="round"/>
<path d="M103.13 59.6251C103.13 61.9544 101.592 63.8444 99.6894 63.8444C97.7868 63.8444 96.2483 61.9544 96.2483 59.6251C96.2483 57.2959 97.7897 55.4059 99.6894 55.4059C100.399 55.4059 101.057 55.668 101.605 56.1186H101.582C101.058 56.1186 100.635 56.5351 100.635 57.0508C100.635 57.5665 101.058 57.9802 101.582 57.9802C102.045 57.9802 102.434 57.6501 102.512 57.2137C102.9 57.8966 103.129 58.7283 103.129 59.6266L103.13 59.6251Z" fill="#382A4D"/>
<path d="M97.6169 53.5089C98.8878 52.7467 100.495 52.7467 101.766 53.5089" stroke="#382A4D" stroke-width="0.576014" stroke-linecap="round" stroke-linejoin="round"/>
<path d="M108.487 59.9993C110.148 59.0018 112.251 59.0018 113.912 59.9993" stroke="#382A4D" stroke-width="0.576014" stroke-linecap="round" stroke-linejoin="round"/>
<path d="M110.096 66.4486C110.096 68.9776 108.014 71.0277 105.445 71.0277C102.876 71.0277 100.793 68.9776 100.793 66.4486H110.098H110.096Z" fill="white"/>
<path d="M110.096 66.4486C110.096 68.9776 108.014 71.0277 105.445 71.0277C102.876 71.0277 100.793 68.9776 100.793 66.4486H110.098H110.096Z" stroke="#382A4D" stroke-width="0.576014" stroke-linecap="round" stroke-linejoin="round"/>
<path d="M6.20239 67.7782C7.62863 72.2878 10.5142 76.337 14.3569 79.2089C18.4283 82.2522 23.2885 83.8602 28.4106 83.8602C33.5327 83.8602 38.3914 82.2522 42.4628 79.2089C45.9068 76.6346 48.5837 73.111 50.1294 69.1581C54.6528 67.5132 57.9932 63.6383 58.8538 58.8594C58.9934 58.0816 59.0639 57.2854 59.0639 56.4934C59.0639 49.0453 52.9085 42.9856 45.3427 42.9856C44.8936 42.9856 44.4475 43.0069 44.0028 43.0494L45.583 37.8412C45.8953 36.9217 45.8047 35.9229 45.3225 35.0643C44.567 33.7198 42.9766 33.0199 41.4482 33.3613L35.1546 34.7838L31.2631 29.4878C30.6025 28.5895 29.5346 28.0526 28.4077 28.0526C27.2808 28.0526 26.2101 28.591 25.5509 29.4892L21.6622 34.7824L15.3772 33.3613C13.8517 33.0128 12.2571 33.7141 11.4972 35.0643C11.0323 35.8917 10.9316 36.8735 11.2165 37.7746L12.8025 43.0154C8.03017 43.3384 3.78167 46.0672 1.56243 50.2991C0.565074 52.1991 0.0383301 54.3398 0.0383301 56.4919C0.0383301 61.0951 2.36694 65.2973 6.20527 67.7767L6.20239 67.7782Z" fill="white"/>
<path d="M42.2355 36.746L42.2326 36.7489L39.714 45.0527C37.7078 43.6671 35.4295 42.6413 32.9728 42.0675C31.5092 41.7261 29.9807 41.5447 28.4091 41.5447C26.8375 41.5447 25.3048 41.7261 23.8397 42.0703C21.3816 42.6442 19.1019 43.6699 17.0956 45.0584L14.5814 36.7489L14.5785 36.746L23.146 38.6828L28.4034 31.5251L31.0342 35.104L33.6636 38.6828L42.234 36.746H42.2355Z" fill="#F9E176"/>
<path d="M23.8401 42.0689L23.1475 38.6856" stroke="#382A4D" stroke-width="0.576014" stroke-linecap="round" stroke-linejoin="round"/>
<path d="M33.6654 38.6856L32.9728 42.0675" stroke="#382A4D" stroke-width="0.576014" stroke-linecap="round" stroke-linejoin="round"/>
<path d="M42.2355 36.746L42.2326 36.7489L39.714 45.0527C37.7078 43.6671 35.4295 42.6413 32.9728 42.0675C31.5092 41.7261 29.9807 41.5447 28.4091 41.5447C26.8375 41.5447 25.3048 41.7261 23.8397 42.0703C21.3816 42.6442 19.1019 43.6699 17.0956 45.0584L14.5814 36.7489L14.5785 36.746L23.146 38.6828L28.4034 31.5251L31.0342 35.104L33.6636 38.6828L42.234 36.746H42.2355Z" stroke="#382A4D" stroke-width="0.576014" stroke-linecap="round" stroke-linejoin="round"/>
<path d="M55.5364 56.4932C55.5364 57.0954 55.4818 57.6833 55.3796 58.2557C54.5333 62.9581 50.3611 66.5298 45.3398 66.5298C43.6559 66.5298 42.067 66.1275 40.6682 65.4162C37.3868 63.7486 35.1445 60.3781 35.1445 56.4932C35.1445 50.9507 39.7097 46.4566 45.3398 46.4566C50.9699 46.4566 55.535 50.9507 55.535 56.4932H55.5364Z" fill="#E6E5FC"/>
<path d="M55.3797 58.2572C54.5334 62.9596 50.3612 66.5313 45.3399 66.5313C43.656 66.5313 42.0672 66.129 40.6683 65.4177C40.6424 65.1528 40.6294 64.885 40.6294 64.613C40.6294 59.8355 44.5641 55.962 49.4171 55.962C51.7169 55.962 53.811 56.8319 55.3782 58.2572H55.3797Z" fill="#D5D5FB"/>
<path d="M55.5364 56.4932C55.5364 57.0954 55.4818 57.6833 55.3796 58.2557C54.5333 62.9581 50.3611 66.5298 45.3398 66.5298C43.6559 66.5298 42.067 66.1275 40.6682 65.4162C37.3868 63.7486 35.1445 60.3781 35.1445 56.4932C35.1445 50.9507 39.7097 46.4566 45.3398 46.4566C50.9699 46.4566 55.535 50.9507 55.535 56.4932H55.5364Z" stroke="#382A4D" stroke-width="0.576014" stroke-linecap="round" stroke-linejoin="round"/>
<path d="M13.7568 66.5313C13.1451 66.5313 12.5478 66.4775 11.9664 66.3769C7.18829 65.5438 3.56152 61.4365 3.56152 56.4947C3.56152 54.837 3.97025 53.2729 4.69273 51.8958C6.38666 48.6655 9.8105 46.4581 13.7568 46.4581C19.3869 46.4581 23.952 50.9522 23.952 56.4947C23.952 62.0372 19.3869 66.5313 13.7568 66.5313Z" fill="#E6E5FC"/>
<path d="M11.9664 66.377C7.18829 65.5439 3.56152 61.4366 3.56152 56.4948C3.56152 54.8371 3.97025 53.273 4.69273 51.8959C4.96186 51.8704 5.23387 51.8576 5.5102 51.8576C10.3632 51.8576 14.2979 55.7311 14.2979 60.5086C14.2979 62.7726 13.4142 64.8341 11.9664 66.377Z" fill="#D5D5FB"/>
<path d="M13.7568 66.5313C13.1451 66.5313 12.5478 66.4775 11.9664 66.3769C7.18829 65.5438 3.56152 61.4365 3.56152 56.4947C3.56152 54.837 3.97025 53.2729 4.69273 51.8958C6.38666 48.6655 9.8105 46.4581 13.7568 46.4581C19.3869 46.4581 23.952 50.9522 23.952 56.4947C23.952 62.0372 19.3869 66.5313 13.7568 66.5313Z" stroke="#382A4D" stroke-width="0.576014" stroke-linecap="round" stroke-linejoin="round"/>
<path d="M48.1361 60.9705C48.1361 62.8817 47.8598 64.7193 47.336 66.4634C44.9282 74.5108 37.3638 80.3891 28.4077 80.3891C19.4516 80.3891 11.8829 74.5108 9.47943 66.4634C8.95844 64.7193 8.67493 62.8803 8.67493 60.9705C8.67493 55.4931 10.9776 50.5513 14.6764 47.0207C18.234 43.6317 23.0755 41.5462 28.4077 41.5462C33.7399 41.5462 38.5842 43.6317 42.1347 47.0207C45.8334 50.5513 48.1361 55.4931 48.1361 60.9705Z" fill="#E6E5FC"/>
<path d="M47.5519 65.6869C47.5548 65.6104 47.5548 65.5311 47.5548 65.4531C47.5548 59.1682 44.9139 53.4968 40.6697 49.4433C36.5968 45.5542 31.0386 43.1598 24.9163 43.1598C22.8223 43.1598 20.7944 43.4418 18.8702 43.966C21.6983 42.4217 24.9508 41.5447 28.4092 41.5447C33.7443 41.5447 38.5857 43.6302 42.1362 47.0192C45.835 50.5498 48.1377 55.4916 48.1377 60.969C48.1377 62.5983 47.9362 64.1738 47.5519 65.6855V65.6869Z" fill="#F2F1FD"/>
<path d="M33.8091 79.6509C32.0922 80.1326 30.2817 80.389 28.4093 80.389C19.4532 80.389 11.8845 74.5107 9.48102 66.4633C8.96003 64.7192 8.67651 62.8802 8.67651 60.9704C8.67651 57.1153 9.81779 53.5265 11.7837 50.5088C10.8151 52.9301 10.2841 55.5653 10.2841 58.3266C10.2841 60.4334 10.5978 62.458 11.1706 64.3806C13.8173 73.2469 22.1574 79.7231 32.026 79.7231C32.6276 79.7231 33.2219 79.699 33.8091 79.6509Z" fill="#D5D5FB"/>
<path d="M48.1363 60.9704C48.1363 62.8802 47.86 64.7192 47.3375 66.4633C44.9283 74.5107 37.3654 80.389 28.4093 80.389C19.4532 80.389 11.8845 74.5107 9.48102 66.4633C8.95859 64.7192 8.67651 62.8802 8.67651 60.9704C8.67651 55.4945 10.9778 50.5513 14.6779 47.0206C18.2342 43.6316 23.0756 41.5447 28.4093 41.5447C33.7429 41.5447 38.5858 43.6316 42.1349 47.0206C45.835 50.5513 48.1363 55.4945 48.1363 60.9704Z" stroke="#382A4D" stroke-width="0.576014" stroke-linecap="round" stroke-linejoin="round"/>
<path d="M42.4571 70.4587C40.7387 72.965 38.2014 74.2373 36.7939 73.3022C36.2858 72.9621 35.9922 72.3827 35.9088 71.6615C35.7562 70.3836 36.257 68.6678 37.3551 67.0683C38.8922 64.8255 41.0855 63.5716 42.5377 64.0037C42.7089 64.0533 42.8701 64.1256 43.0184 64.2247C44.4273 65.1627 44.1755 67.9538 42.4571 70.4587Z" fill="#D5D5FB"/>
<path d="M13.6919 50.9339C14.9728 50.1646 16.5962 50.1646 17.8785 50.9339" stroke="#382A4D" stroke-width="0.576014" stroke-linecap="round" stroke-linejoin="round"/>
<path d="M27.2031 50.9339C28.484 50.1646 30.1074 50.1646 31.3897 50.9339" stroke="#382A4D" stroke-width="0.576014" stroke-linecap="round" stroke-linejoin="round"/>
<path d="M21.3024 58.5547C21.3024 58.6199 21.2995 58.6879 21.2981 58.7531C21.2952 58.8182 21.2938 58.8848 21.2866 58.95C21.2822 59.0138 21.2779 59.0747 21.2693 59.1356C21.2722 59.1399 21.2693 59.1427 21.2693 59.1441C21.265 59.188 21.2607 59.232 21.252 59.2759C21.2276 59.4657 21.1916 59.6513 21.1455 59.8355C21.1369 59.8752 21.1254 59.9149 21.1139 59.9531C21.0189 60.3045 20.8879 60.6417 20.7253 60.959C20.6835 61.0398 20.6404 61.1191 20.5972 61.1956C20.59 61.207 20.5842 61.2169 20.577 61.2282C20.5353 61.3019 20.4907 61.3742 20.4432 61.445C20.4274 61.4691 20.4144 61.4903 20.3986 61.513C20.354 61.5782 20.3079 61.6448 20.259 61.7071C20.2503 61.7227 20.2388 61.7383 20.2273 61.751C20.1741 61.8204 20.1208 61.8885 20.0647 61.9536C19.9366 62.1095 19.7984 62.2568 19.6516 62.3957C19.5782 62.4637 19.5034 62.5317 19.4271 62.5968C19.3494 62.662 19.2717 62.7258 19.1911 62.7867C19.1163 62.8434 19.0385 62.9 18.9608 62.9553C18.8097 63.0601 18.6543 63.1536 18.4931 63.2415C18.4772 63.2528 18.46 63.2613 18.4442 63.2684C18.3664 63.3095 18.2887 63.3492 18.211 63.386C17.5 63.7232 16.7042 63.9088 15.8622 63.9088C15.773 63.9088 15.6852 63.906 15.596 63.9017C15.5744 63.9017 15.5514 63.8989 15.5298 63.8975C15.4319 63.8932 15.3369 63.8847 15.2405 63.8734C15.1383 63.8621 15.039 63.8493 14.9383 63.8323H14.934C14.8361 63.8153 14.7368 63.7955 14.6389 63.7728C14.5411 63.7515 14.4432 63.7275 14.3482 63.6991C14.3266 63.692 14.3036 63.6864 14.282 63.6793C14.282 63.6793 14.281 63.6783 14.2791 63.6764C14.2662 63.6722 14.2503 63.6694 14.2374 63.6651C14.1813 63.6481 14.1266 63.6297 14.0733 63.6127C14.0618 63.6084 14.0517 63.6056 14.0402 63.5999C13.9654 63.5759 13.8891 63.5475 13.8157 63.5149C13.7135 63.4753 13.6142 63.4313 13.5135 63.386C13.3998 63.3308 13.2875 63.2741 13.1781 63.2132C13.0673 63.1494 12.9608 63.0871 12.8558 63.0191C12.7521 62.9496 12.65 62.8788 12.5492 62.8023C11.2554 61.8247 10.4207 60.2846 10.4207 58.5561C10.4207 58.4683 10.4235 58.3819 10.4278 58.2955V58.2671C10.4322 58.1864 10.4394 58.1056 10.448 58.0248C10.448 58.0206 10.448 58.0135 10.4509 58.0078C10.4581 57.9342 10.4667 57.8591 10.4782 57.7868C10.4825 57.7556 10.4869 57.7273 10.4941 57.6976C10.5142 57.5658 10.5401 57.4369 10.5718 57.3108C10.5833 57.2654 10.5934 57.2187 10.6077 57.1733C10.6322 57.0841 10.6581 56.9948 10.6883 56.9042C10.6955 56.8843 10.6999 56.8673 10.7085 56.8489C10.7301 56.7809 10.7545 56.7129 10.7819 56.6463C10.7891 56.6265 10.7948 56.6066 10.8035 56.5896C10.8308 56.5245 10.8596 56.4579 10.8884 56.3927C10.8956 56.3729 10.9042 56.3559 10.9129 56.3374C10.9532 56.2524 10.9949 56.1688 11.0395 56.0867C11.0683 56.0342 11.0956 55.9818 11.1244 55.9294C11.1244 55.9266 11.1273 55.9223 11.1316 55.9209C11.218 55.7651 11.3129 55.6149 11.4209 55.4704C11.4914 55.3726 11.5648 55.2763 11.6425 55.1842C11.6699 55.1487 11.6987 55.1162 11.7274 55.0836C11.7649 55.0354 11.808 54.9901 11.8498 54.9461C11.9001 54.8895 11.9548 54.8342 12.0081 54.7818C12.3837 54.4078 12.814 54.0918 13.2875 53.8425C13.3609 53.8014 13.4358 53.7631 13.512 53.7291C13.5898 53.6894 13.6703 53.6554 13.7524 53.6214C13.8344 53.586 13.9165 53.5534 13.9985 53.5251C14.0647 53.501 14.1338 53.4769 14.2 53.4571C14.236 53.4443 14.2705 53.433 14.3065 53.4245C14.4705 53.3749 14.6389 53.3352 14.8102 53.3027C14.8663 53.2899 14.921 53.2814 14.9771 53.2715C15.0174 53.2644 15.0577 53.2587 15.0966 53.2545C15.1671 53.2432 15.2405 53.2347 15.3125 53.229C15.3902 53.2205 15.465 53.2134 15.5427 53.212C15.583 53.2077 15.6233 53.2049 15.6651 53.2049C15.7313 53.2021 15.8004 53.2006 15.8694 53.2006C15.9543 53.2006 16.0378 53.2035 16.1199 53.2077C16.1616 53.2077 16.2048 53.212 16.2436 53.2148H16.2465C16.2465 53.2148 16.2494 53.2148 16.2508 53.2176C16.3084 53.2205 16.366 53.2247 16.4235 53.2304C16.494 53.2375 16.5674 53.246 16.6394 53.2559C16.7085 53.2644 16.7776 53.2757 16.8452 53.2885C16.8524 53.2885 16.8582 53.2913 16.8654 53.2927C16.9301 53.3041 16.9963 53.3168 17.0611 53.3324C17.0784 53.3352 17.0942 53.3367 17.1115 53.3437C17.1719 53.3565 17.2338 53.3721 17.2928 53.3877C17.3086 53.3919 17.3216 53.3962 17.3374 53.4004C17.4022 53.4174 17.4655 53.4373 17.5288 53.4571C17.7015 53.5095 17.8728 53.5733 18.0369 53.6455C18.0973 53.6696 18.1549 53.6951 18.2124 53.7249C18.2254 53.7291 18.2369 53.7362 18.2484 53.7419C18.3146 53.773 18.3794 53.8056 18.4413 53.8382C18.4571 53.8467 18.4729 53.8538 18.4859 53.8637C18.5463 53.8949 18.6053 53.9275 18.6658 53.9643C18.6787 53.9714 18.6903 53.977 18.7032 53.9855C18.7723 54.0266 18.8414 54.0706 18.909 54.1173C18.9824 54.1655 19.0529 54.2137 19.122 54.2661C19.1825 54.31 19.24 54.3539 19.2976 54.4021C19.4501 54.5225 19.5955 54.6529 19.7351 54.7917C19.7855 54.8413 19.8373 54.8951 19.8862 54.949C19.8934 54.9561 19.8992 54.9617 19.9035 54.9688C19.9539 55.0212 20.0014 55.0765 20.0474 55.1332C20.21 55.323 20.3583 55.527 20.4921 55.7381C20.5195 55.7778 20.5411 55.8175 20.5655 55.8557C20.6216 55.9492 20.6749 56.0442 20.7238 56.1419C20.7512 56.1915 20.7742 56.2425 20.7987 56.2949C20.8303 56.3601 20.8606 56.4281 20.8893 56.4961C20.921 56.5684 20.9498 56.642 20.9757 56.7171C21.0045 56.7936 21.0318 56.873 21.0577 56.9509C21.1067 57.1039 21.1484 57.2584 21.1815 57.4185C21.1901 57.4595 21.1988 57.502 21.206 57.5431C21.2175 57.5842 21.2232 57.6267 21.2304 57.6692C21.2391 57.7174 21.2463 57.767 21.252 57.818C21.2635 57.8902 21.2722 57.9625 21.2794 58.0362C21.2837 58.0801 21.288 58.1212 21.2909 58.1651C21.2952 58.2133 21.2981 58.2614 21.2995 58.3096C21.3038 58.3932 21.3067 58.4754 21.3067 58.559L21.3024 58.5547Z" fill="white"/>
<path d="M34.8509 58.5547C34.8509 58.6199 34.848 58.6879 34.8465 58.7531C34.8437 58.8182 34.8422 58.8848 34.835 58.95C34.8307 59.0138 34.8264 59.0747 34.8177 59.1356C34.8206 59.1399 34.8177 59.1427 34.8177 59.1441C34.8134 59.188 34.8091 59.232 34.8005 59.2759C34.776 59.4657 34.74 59.6513 34.694 59.8355C34.6853 59.8752 34.6738 59.9149 34.6623 59.9531C34.5673 60.3045 34.4364 60.6417 34.2737 60.959C34.232 61.0398 34.1888 61.1191 34.1456 61.1956C34.1385 61.207 34.1327 61.2169 34.1255 61.2282C34.0838 61.3019 34.0391 61.3742 33.9917 61.445C33.9758 61.4691 33.9629 61.4903 33.947 61.513C33.9024 61.5782 33.8564 61.6448 33.8074 61.7071C33.7988 61.7227 33.7873 61.7383 33.7758 61.751C33.7225 61.8204 33.6693 61.8885 33.6131 61.9536C33.4851 62.1095 33.3469 62.2568 33.2001 62.3957C33.1267 62.4637 33.0519 62.5317 32.9756 62.5968C32.8979 62.662 32.8202 62.7258 32.7396 62.7867C32.6647 62.8434 32.587 62.9 32.5093 62.9553C32.3582 63.0601 32.2027 63.1536 32.0416 63.2415C32.0257 63.2528 32.0084 63.2613 31.9926 63.2684C31.9149 63.3095 31.8372 63.3492 31.7595 63.386C31.0485 63.7232 30.2526 63.9088 29.4107 63.9088C29.3215 63.9088 29.2337 63.906 29.1445 63.9017C29.1229 63.9017 29.0998 63.8989 29.0782 63.8975C28.9804 63.8932 28.8854 63.8847 28.789 63.8734C28.6868 63.8621 28.5875 63.8493 28.4867 63.8323H28.4824C28.3846 63.8153 28.2853 63.7955 28.1874 63.7728C28.0895 63.7515 27.9917 63.7275 27.8967 63.6991C27.8751 63.692 27.8521 63.6864 27.8305 63.6793C27.8305 63.6793 27.8295 63.6783 27.8276 63.6764C27.8146 63.6722 27.7988 63.6694 27.7859 63.6651C27.7297 63.6481 27.675 63.6297 27.6218 63.6127C27.6103 63.6084 27.6002 63.6056 27.5887 63.5999C27.5139 63.5759 27.4376 63.5475 27.3642 63.5149C27.262 63.4753 27.1627 63.4313 27.0619 63.386C26.9483 63.3308 26.836 63.2741 26.7266 63.2132C26.6158 63.1494 26.5093 63.0871 26.4042 63.0191C26.3006 62.9496 26.1984 62.8788 26.0977 62.8023C24.8039 61.8247 23.9691 60.2846 23.9691 58.5561C23.9691 58.4683 23.972 58.3819 23.9763 58.2955V58.2671C23.9806 58.1864 23.9878 58.1056 23.9965 58.0248C23.9965 58.0206 23.9965 58.0135 23.9993 58.0078C24.0065 57.9342 24.0152 57.8591 24.0267 57.7868C24.031 57.7556 24.0353 57.7273 24.0425 57.6976C24.0627 57.5658 24.0886 57.4369 24.1202 57.3108C24.1318 57.2654 24.1418 57.2187 24.1562 57.1733C24.1807 57.0841 24.2066 56.9948 24.2368 56.9042C24.244 56.8843 24.2483 56.8673 24.257 56.8489C24.2785 56.7809 24.303 56.7129 24.3304 56.6463C24.3376 56.6265 24.3433 56.6066 24.3519 56.5896C24.3793 56.5245 24.4081 56.4579 24.4369 56.3927C24.444 56.3729 24.4527 56.3559 24.4613 56.3374C24.5016 56.2524 24.5434 56.1688 24.588 56.0867C24.6168 56.0342 24.6441 55.9818 24.6729 55.9294C24.6729 55.9266 24.6758 55.9223 24.6801 55.9209C24.7664 55.7651 24.8614 55.6149 24.9694 55.4704C25.0399 55.3726 25.1133 55.2763 25.191 55.1842C25.2183 55.1487 25.2471 55.1162 25.2759 55.0836C25.3133 55.0354 25.3565 54.9901 25.3982 54.9461C25.4486 54.8895 25.5033 54.8342 25.5565 54.7818C25.9322 54.4078 26.3625 54.0918 26.836 53.8425C26.9094 53.8014 26.9842 53.7631 27.0605 53.7291C27.1382 53.6894 27.2188 53.6554 27.3009 53.6214C27.3829 53.586 27.4649 53.5534 27.547 53.5251C27.6132 53.501 27.6822 53.4769 27.7484 53.4571C27.7844 53.4443 27.819 53.433 27.8549 53.4245C28.019 53.3749 28.1874 53.3352 28.3587 53.3027C28.4148 53.2899 28.4695 53.2814 28.5256 53.2715C28.5659 53.2644 28.6062 53.2587 28.6451 53.2545C28.7156 53.2432 28.789 53.2347 28.8609 53.229C28.9387 53.2205 29.0135 53.2134 29.0912 53.212C29.1315 53.2077 29.1718 53.2049 29.2135 53.2049C29.2797 53.2021 29.3488 53.2006 29.4179 53.2006C29.5028 53.2006 29.5863 53.2035 29.6683 53.2077C29.7101 53.2077 29.7532 53.212 29.7921 53.2148H29.795C29.795 53.2148 29.7978 53.2148 29.7993 53.2176C29.8569 53.2205 29.9144 53.2247 29.972 53.2304C30.0425 53.2375 30.1159 53.246 30.1879 53.2559C30.257 53.2644 30.326 53.2757 30.3937 53.2885C30.4009 53.2885 30.4066 53.2913 30.4138 53.2927C30.4786 53.3041 30.5448 53.3168 30.6096 53.3324C30.6268 53.3352 30.6427 53.3367 30.6599 53.3437C30.7204 53.3565 30.7823 53.3721 30.8413 53.3877C30.8571 53.3919 30.87 53.3962 30.8859 53.4004C30.9506 53.4174 31.014 53.4373 31.0773 53.4571C31.25 53.5095 31.4213 53.5733 31.5853 53.6455C31.6458 53.6696 31.7033 53.6951 31.7609 53.7249C31.7739 53.7291 31.7854 53.7362 31.7969 53.7419C31.8631 53.773 31.9279 53.8056 31.9897 53.8382C32.0056 53.8467 32.0214 53.8538 32.0344 53.8637C32.0948 53.8949 32.1538 53.9275 32.2143 53.9643C32.2272 53.9714 32.2387 53.977 32.2517 53.9855C32.3208 54.0266 32.3898 54.0706 32.4575 54.1173C32.5309 54.1655 32.6014 54.2137 32.6705 54.2661C32.7309 54.31 32.7885 54.3539 32.8461 54.4021C32.9986 54.5225 33.144 54.6529 33.2836 54.7917C33.3339 54.8413 33.3858 54.8951 33.4347 54.949C33.4419 54.9561 33.4476 54.9617 33.452 54.9688C33.5023 55.0212 33.5498 55.0765 33.5959 55.1332C33.7585 55.323 33.9067 55.527 34.0406 55.7381C34.0679 55.7778 34.0895 55.8175 34.114 55.8557C34.1701 55.9492 34.2234 56.0442 34.2723 56.1419C34.2996 56.1915 34.3227 56.2425 34.3471 56.2949C34.3788 56.3601 34.409 56.4281 34.4378 56.4961C34.4695 56.5684 34.4983 56.642 34.5242 56.7171C34.5529 56.7936 34.5803 56.873 34.6062 56.9509C34.6551 57.1039 34.6969 57.2584 34.73 57.4185C34.7386 57.4595 34.7472 57.502 34.7544 57.5431C34.7659 57.5842 34.7717 57.6267 34.7789 57.6692C34.7875 57.7174 34.7947 57.767 34.8005 57.818C34.812 57.8902 34.8206 57.9625 34.8278 58.0362C34.8321 58.0801 34.8365 58.1212 34.8393 58.1651C34.8437 58.2133 34.8465 58.2614 34.848 58.3096C34.8523 58.3932 34.8552 58.4754 34.8552 58.559L34.8509 58.5547Z" fill="white"/>
<path d="M21.3024 58.5547C21.3024 58.6199 21.2995 58.6879 21.2981 58.7531C21.2952 58.8182 21.2938 58.8848 21.2866 58.95C21.2822 59.0138 21.2779 59.0747 21.2693 59.1356C21.2722 59.1399 21.2693 59.1427 21.2693 59.1441C21.265 59.188 21.2607 59.232 21.252 59.2759C21.2276 59.4657 21.1916 59.6513 21.1455 59.8355C21.1369 59.8752 21.1254 59.9149 21.1139 59.9531C21.0189 60.3045 20.8879 60.6417 20.7253 60.959C20.6835 61.0398 20.6404 61.1191 20.5972 61.1956C20.59 61.207 20.5842 61.2169 20.577 61.2282C20.5353 61.3019 20.4907 61.3742 20.4432 61.445C20.4274 61.4691 20.4144 61.4903 20.3986 61.513C20.354 61.5782 20.3079 61.6448 20.259 61.7071C20.2503 61.7227 20.2388 61.7383 20.2273 61.751C20.1741 61.8204 20.1208 61.8885 20.0647 61.9536C19.9366 62.1095 19.7984 62.2568 19.6516 62.3957C19.5782 62.4637 19.5034 62.5317 19.4271 62.5968C19.3494 62.662 19.2717 62.7258 19.1911 62.7867C19.1163 62.8434 19.0385 62.9 18.9608 62.9553C18.8097 63.0601 18.6543 63.1536 18.4931 63.2415C18.4772 63.2528 18.46 63.2613 18.4442 63.2684C18.3664 63.3095 18.2887 63.3492 18.211 63.386C17.5 63.7232 16.7042 63.9088 15.8622 63.9088C15.773 63.9088 15.6852 63.906 15.596 63.9017C15.5744 63.9017 15.5514 63.8989 15.5298 63.8975C15.4319 63.8932 15.3369 63.8847 15.2405 63.8734C15.1383 63.8621 15.039 63.8493 14.9383 63.8323H14.934C14.8361 63.8153 14.7368 63.7955 14.6389 63.7728C14.5411 63.7515 14.4432 63.7275 14.3482 63.6991C14.3266 63.692 14.3036 63.6864 14.282 63.6793C14.282 63.6793 14.281 63.6783 14.2791 63.6764C14.2662 63.6722 14.2503 63.6694 14.2374 63.6651C14.1813 63.6481 14.1266 63.6297 14.0733 63.6127C14.0618 63.6084 14.0517 63.6056 14.0402 63.5999C13.9654 63.5759 13.8891 63.5475 13.8157 63.5149C13.7135 63.4753 13.6142 63.4313 13.5135 63.386C13.3998 63.3308 13.2875 63.2741 13.1781 63.2132C13.0673 63.1494 12.9608 63.0871 12.8558 63.0191C12.7521 62.9496 12.65 62.8788 12.5492 62.8023C11.2554 61.8247 10.4207 60.2846 10.4207 58.5561C10.4207 58.4683 10.4235 58.3819 10.4278 58.2955V58.2671C10.4322 58.1864 10.4394 58.1056 10.448 58.0248C10.448 58.0206 10.448 58.0135 10.4509 58.0078C10.4581 57.9342 10.4667 57.8591 10.4782 57.7868C10.4825 57.7556 10.4869 57.7273 10.4941 57.6976C10.5142 57.5658 10.5401 57.4369 10.5718 57.3108C10.5833 57.2654 10.5934 57.2187 10.6077 57.1733C10.6322 57.0841 10.6581 56.9948 10.6883 56.9042C10.6955 56.8843 10.6999 56.8673 10.7085 56.8489C10.7301 56.7809 10.7545 56.7129 10.7819 56.6463C10.7891 56.6265 10.7948 56.6066 10.8035 56.5896C10.8308 56.5245 10.8596 56.4579 10.8884 56.3927C10.8956 56.3729 10.9042 56.3559 10.9129 56.3374C10.9532 56.2524 10.9949 56.1688 11.0395 56.0867C11.0683 56.0342 11.0956 55.9818 11.1244 55.9294C11.1244 55.9266 11.1273 55.9223 11.1316 55.9209C11.218 55.7651 11.3129 55.6149 11.4209 55.4704C11.4914 55.3726 11.5648 55.2763 11.6425 55.1842C11.6699 55.1487 11.6987 55.1162 11.7274 55.0836C11.7649 55.0354 11.808 54.9901 11.8498 54.9461C11.9001 54.8895 11.9548 54.8342 12.0081 54.7818C12.3837 54.4078 12.814 54.0918 13.2875 53.8425C13.3609 53.8014 13.4358 53.7631 13.512 53.7291C13.5898 53.6894 13.6703 53.6554 13.7524 53.6214C13.8344 53.586 13.9165 53.5534 13.9985 53.5251C14.0647 53.501 14.1338 53.4769 14.2 53.4571C14.236 53.4443 14.2705 53.433 14.3065 53.4245C14.4705 53.3749 14.6389 53.3352 14.8102 53.3027C14.8663 53.2899 14.921 53.2814 14.9771 53.2715C15.0174 53.2644 15.0577 53.2587 15.0966 53.2545C15.1671 53.2432 15.2405 53.2347 15.3125 53.229C15.3902 53.2205 15.465 53.2134 15.5427 53.212C15.583 53.2077 15.6233 53.2049 15.6651 53.2049C15.7313 53.2021 15.8004 53.2006 15.8694 53.2006C15.9543 53.2006 16.0378 53.2035 16.1199 53.2077C16.1616 53.2077 16.2048 53.212 16.2436 53.2148H16.2465C16.2465 53.2148 16.2494 53.2148 16.2508 53.2176C16.3084 53.2205 16.366 53.2247 16.4235 53.2304C16.494 53.2375 16.5674 53.246 16.6394 53.2559C16.7085 53.2644 16.7776 53.2757 16.8452 53.2885C16.8524 53.2885 16.8582 53.2913 16.8654 53.2927C16.9301 53.3041 16.9963 53.3168 17.0611 53.3324C17.0784 53.3352 17.0942 53.3367 17.1115 53.3437C17.1719 53.3565 17.2338 53.3721 17.2928 53.3877C17.3086 53.3919 17.3216 53.3962 17.3374 53.4004C17.4022 53.4174 17.4655 53.4373 17.5288 53.4571C17.7015 53.5095 17.8728 53.5733 18.0369 53.6455C18.0973 53.6696 18.1549 53.6951 18.2124 53.7249C18.2254 53.7291 18.2369 53.7362 18.2484 53.7419C18.3146 53.773 18.3794 53.8056 18.4413 53.8382C18.4571 53.8467 18.4729 53.8538 18.4859 53.8637C18.5463 53.8949 18.6053 53.9275 18.6658 53.9643C18.6787 53.9714 18.6903 53.977 18.7032 53.9855C18.7723 54.0266 18.8414 54.0706 18.909 54.1173C18.9824 54.1655 19.0529 54.2137 19.122 54.2661C19.1825 54.31 19.24 54.3539 19.2976 54.4021C19.4501 54.5225 19.5955 54.6529 19.7351 54.7917C19.7855 54.8413 19.8373 54.8951 19.8862 54.949C19.8934 54.9561 19.8992 54.9617 19.9035 54.9688C19.9539 55.0212 20.0014 55.0765 20.0474 55.1332C20.21 55.323 20.3583 55.527 20.4921 55.7381C20.5195 55.7778 20.5411 55.8175 20.5655 55.8557C20.6216 55.9492 20.6749 56.0442 20.7238 56.1419C20.7512 56.1915 20.7742 56.2425 20.7987 56.2949C20.8303 56.3601 20.8606 56.4281 20.8893 56.4961C20.921 56.5684 20.9498 56.642 20.9757 56.7171C21.0045 56.7936 21.0318 56.873 21.0577 56.9509C21.1067 57.1039 21.1484 57.2584 21.1815 57.4185C21.1901 57.4595 21.1988 57.502 21.206 57.5431C21.2175 57.5842 21.2232 57.6267 21.2304 57.6692C21.2391 57.7174 21.2463 57.767 21.252 57.818C21.2635 57.8902 21.2722 57.9625 21.2794 58.0362C21.2837 58.0801 21.288 58.1212 21.2909 58.1651C21.2952 58.2133 21.2981 58.2614 21.2995 58.3096C21.3038 58.3932 21.3067 58.4754 21.3067 58.559L21.3024 58.5547Z" stroke="#382A4D" stroke-width="0.576014" stroke-linecap="round" stroke-linejoin="round"/>
<path d="M21.2693 59.1356C21.2693 59.1356 21.2693 59.1427 21.2693 59.1441C21.2649 59.188 21.2606 59.232 21.252 59.2759C21.2275 59.4657 21.1915 59.6513 21.1455 59.8355C21.1368 59.8752 21.1253 59.9149 21.1138 59.9531C21.0188 60.3045 20.8879 60.6417 20.7252 60.959C20.6835 61.0398 20.6403 61.1191 20.5971 61.1956C20.5899 61.207 20.5842 61.2169 20.577 61.2282C20.5353 61.3019 20.4906 61.3742 20.4431 61.445C20.4273 61.4691 20.4144 61.4903 20.3985 61.513C20.3539 61.5782 20.3079 61.6448 20.2589 61.7071C20.2503 61.7227 20.2388 61.7383 20.2273 61.751C20.174 61.8204 20.1208 61.8885 20.0646 61.9536C19.9366 62.1095 19.7984 62.2568 19.6516 62.3957C19.5782 62.4637 19.5034 62.5317 19.4271 62.5968C19.3494 62.662 19.2717 62.7258 19.1911 62.7867C19.1162 62.8434 19.0385 62.9 18.9608 62.9553C18.8097 63.0601 18.6542 63.1536 18.493 63.2415C18.4772 63.2528 18.4599 63.2613 18.4441 63.2684C18.3664 63.3095 18.2887 63.3492 18.211 63.386C17.5 63.7232 16.7041 63.9088 15.8622 63.9088C15.773 63.9088 15.6852 63.906 15.5959 63.9017C15.5744 63.9017 15.5513 63.8989 15.5298 63.8975C15.4319 63.8932 15.3369 63.8847 15.2405 63.8734C15.1383 63.8621 15.039 63.8493 14.9382 63.8323H14.9339C14.8361 63.8153 14.7368 63.7955 14.6389 63.7728C14.541 63.7515 14.4432 63.7275 14.3482 63.6991C14.3266 63.692 14.3036 63.6864 14.282 63.6793C14.282 63.6793 14.281 63.6783 14.2791 63.6764C12.4671 61.0299 14.9656 57.1238 10.884 56.3927C10.8912 56.3729 10.8999 56.3559 10.9085 56.3374C10.9488 56.2524 10.9905 56.1688 11.0351 56.0867C11.0639 56.0342 11.0913 55.9818 11.1201 55.9294C11.1201 55.9266 11.1229 55.9223 11.1273 55.9209C11.2136 55.7651 11.3086 55.6149 11.4165 55.4704C11.4871 55.3726 11.5605 55.2763 11.6382 55.1842C11.6655 55.1487 11.6943 55.1162 11.7231 55.0836C11.7605 55.0354 11.8037 54.9901 11.8454 54.9461C11.8958 54.8895 11.9505 54.8342 12.0037 54.7818C12.3794 54.4078 12.8097 54.0918 13.2832 53.8425C13.3566 53.8014 13.4314 53.7631 13.5077 53.7291C13.5854 53.6894 13.666 53.6554 13.748 53.6214C13.8301 53.586 13.9121 53.5534 13.9941 53.5251C14.0603 53.501 14.1294 53.4769 14.1956 53.4571C14.2316 53.4443 14.2661 53.433 14.3021 53.4245C14.4662 53.3749 14.6346 53.3352 14.8058 53.3027C14.862 53.2899 14.9167 53.2814 14.9728 53.2715C15.0131 53.2644 15.0534 53.2587 15.0922 53.2545C15.1628 53.2432 15.2361 53.2347 15.3081 53.229C15.3858 53.2205 15.4607 53.2134 15.5384 53.212C15.5787 53.2077 15.619 53.2049 15.6607 53.2049C15.7269 53.2021 15.796 53.2006 15.8651 53.2006C15.95 53.2006 16.0335 53.2035 16.1155 53.2077C16.1572 53.2077 16.2004 53.212 16.2393 53.2148V53.2176C16.5545 55.707 17.464 57.7613 21.2693 59.1399V59.1356Z" fill="#382A4D"/>
<path d="M14.2618 55.0085C14.7612 55.0085 15.1671 55.408 15.1671 55.8996C15.1671 55.408 15.5729 55.0085 16.0723 55.0085C15.5729 55.0085 15.1671 54.6089 15.1671 54.1173C15.1671 54.6089 14.7612 55.0085 14.2618 55.0085Z" fill="white"/>
<path d="M17.4108 59.9829C18.1304 59.9829 18.7132 60.5567 18.7132 61.2651C18.7132 60.5567 19.2961 59.9829 20.0157 59.9829C19.2961 59.9829 18.7132 59.4091 18.7132 58.7007C18.7132 59.4091 18.1304 59.9829 17.4108 59.9829Z" fill="white"/>
<path d="M21.0203 56.2539C21.9802 55.3089 23.5345 55.3089 24.4945 56.2539" stroke="#382A4D" stroke-width="0.576014" stroke-linecap="round" stroke-linejoin="round"/>
<path d="M50.2316 59.3283C50.2316 58.5689 49.6056 57.9526 48.8342 57.9526H34.8524" stroke="#382A4D" stroke-width="0.576014" stroke-linecap="round" stroke-linejoin="round"/>
<path d="M7.21411 59.3283C7.21411 58.5689 7.84016 57.9526 8.61157 57.9526H10.4451" stroke="#382A4D" stroke-width="0.576014" stroke-linecap="round" stroke-linejoin="round"/>
<path d="M34.8509 58.5547C34.8509 58.6199 34.848 58.6879 34.8465 58.7531C34.8437 58.8182 34.8422 58.8848 34.835 58.95C34.8307 59.0138 34.8264 59.0747 34.8177 59.1356C34.8206 59.1399 34.8177 59.1427 34.8177 59.1441C34.8134 59.188 34.8091 59.232 34.8005 59.2759C34.776 59.4657 34.74 59.6513 34.694 59.8355C34.6853 59.8752 34.6738 59.9149 34.6623 59.9531C34.5673 60.3045 34.4364 60.6417 34.2737 60.959C34.232 61.0398 34.1888 61.1191 34.1456 61.1956C34.1385 61.207 34.1327 61.2169 34.1255 61.2282C34.0838 61.3019 34.0391 61.3742 33.9917 61.445C33.9758 61.4691 33.9629 61.4903 33.947 61.513C33.9024 61.5782 33.8564 61.6448 33.8074 61.7071C33.7988 61.7227 33.7873 61.7383 33.7758 61.751C33.7225 61.8204 33.6693 61.8885 33.6131 61.9536C33.4851 62.1095 33.3469 62.2568 33.2001 62.3957C33.1267 62.4637 33.0519 62.5317 32.9756 62.5968C32.8979 62.662 32.8202 62.7258 32.7396 62.7867C32.6647 62.8434 32.587 62.9 32.5093 62.9553C32.3582 63.0601 32.2027 63.1536 32.0416 63.2415C32.0257 63.2528 32.0084 63.2613 31.9926 63.2684C31.9149 63.3095 31.8372 63.3492 31.7595 63.386C31.0485 63.7232 30.2526 63.9088 29.4107 63.9088C29.3215 63.9088 29.2337 63.906 29.1445 63.9017C29.1229 63.9017 29.0998 63.8989 29.0782 63.8975C28.9804 63.8932 28.8854 63.8847 28.789 63.8734C28.6868 63.8621 28.5875 63.8493 28.4867 63.8323H28.4824C28.3846 63.8153 28.2853 63.7955 28.1874 63.7728C28.0895 63.7515 27.9917 63.7275 27.8967 63.6991C27.8751 63.692 27.8521 63.6864 27.8305 63.6793C27.8305 63.6793 27.8295 63.6783 27.8276 63.6764C27.8146 63.6722 27.7988 63.6694 27.7859 63.6651C27.7297 63.6481 27.675 63.6297 27.6218 63.6127C27.6103 63.6084 27.6002 63.6056 27.5887 63.5999C27.5139 63.5759 27.4376 63.5475 27.3642 63.5149C27.262 63.4753 27.1627 63.4313 27.0619 63.386C26.9483 63.3308 26.836 63.2741 26.7266 63.2132C26.6158 63.1494 26.5093 63.0871 26.4042 63.0191C26.3006 62.9496 26.1984 62.8788 26.0977 62.8023C24.8039 61.8247 23.9691 60.2846 23.9691 58.5561C23.9691 58.4683 23.972 58.3819 23.9763 58.2955V58.2671C23.9806 58.1864 23.9878 58.1056 23.9965 58.0248C23.9965 58.0206 23.9965 58.0135 23.9993 58.0078C24.0065 57.9342 24.0152 57.8591 24.0267 57.7868C24.031 57.7556 24.0353 57.7273 24.0425 57.6976C24.0627 57.5658 24.0886 57.4369 24.1202 57.3108C24.1318 57.2654 24.1418 57.2187 24.1562 57.1733C24.1807 57.0841 24.2066 56.9948 24.2368 56.9042C24.244 56.8843 24.2483 56.8673 24.257 56.8489C24.2785 56.7809 24.303 56.7129 24.3304 56.6463C24.3376 56.6265 24.3433 56.6066 24.3519 56.5896C24.3793 56.5245 24.4081 56.4579 24.4369 56.3927C24.444 56.3729 24.4527 56.3559 24.4613 56.3374C24.5016 56.2524 24.5434 56.1688 24.588 56.0867C24.6168 56.0342 24.6441 55.9818 24.6729 55.9294C24.6729 55.9266 24.6758 55.9223 24.6801 55.9209C24.7664 55.7651 24.8614 55.6149 24.9694 55.4704C25.0399 55.3726 25.1133 55.2763 25.191 55.1842C25.2183 55.1487 25.2471 55.1162 25.2759 55.0836C25.3133 55.0354 25.3565 54.9901 25.3982 54.9461C25.4486 54.8895 25.5033 54.8342 25.5565 54.7818C25.9322 54.4078 26.3625 54.0918 26.836 53.8425C26.9094 53.8014 26.9842 53.7631 27.0605 53.7291C27.1382 53.6894 27.2188 53.6554 27.3009 53.6214C27.3829 53.586 27.4649 53.5534 27.547 53.5251C27.6132 53.501 27.6822 53.4769 27.7484 53.4571C27.7844 53.4443 27.819 53.433 27.8549 53.4245C28.019 53.3749 28.1874 53.3352 28.3587 53.3027C28.4148 53.2899 28.4695 53.2814 28.5256 53.2715C28.5659 53.2644 28.6062 53.2587 28.6451 53.2545C28.7156 53.2432 28.789 53.2347 28.8609 53.229C28.9387 53.2205 29.0135 53.2134 29.0912 53.212C29.1315 53.2077 29.1718 53.2049 29.2135 53.2049C29.2797 53.2021 29.3488 53.2006 29.4179 53.2006C29.5028 53.2006 29.5863 53.2035 29.6683 53.2077C29.7101 53.2077 29.7532 53.212 29.7921 53.2148H29.795C29.795 53.2148 29.7978 53.2148 29.7993 53.2176C29.8569 53.2205 29.9144 53.2247 29.972 53.2304C30.0425 53.2375 30.1159 53.246 30.1879 53.2559C30.257 53.2644 30.326 53.2757 30.3937 53.2885C30.4009 53.2885 30.4066 53.2913 30.4138 53.2927C30.4786 53.3041 30.5448 53.3168 30.6096 53.3324C30.6268 53.3352 30.6427 53.3367 30.6599 53.3437C30.7204 53.3565 30.7823 53.3721 30.8413 53.3877C30.8571 53.3919 30.87 53.3962 30.8859 53.4004C30.9506 53.4174 31.014 53.4373 31.0773 53.4571C31.25 53.5095 31.4213 53.5733 31.5853 53.6455C31.6458 53.6696 31.7033 53.6951 31.7609 53.7249C31.7739 53.7291 31.7854 53.7362 31.7969 53.7419C31.8631 53.773 31.9279 53.8056 31.9897 53.8382C32.0056 53.8467 32.0214 53.8538 32.0344 53.8637C32.0948 53.8949 32.1538 53.9275 32.2143 53.9643C32.2272 53.9714 32.2387 53.977 32.2517 53.9855C32.3208 54.0266 32.3898 54.0706 32.4575 54.1173C32.5309 54.1655 32.6014 54.2137 32.6705 54.2661C32.7309 54.31 32.7885 54.3539 32.8461 54.4021C32.9986 54.5225 33.144 54.6529 33.2836 54.7917C33.3339 54.8413 33.3858 54.8951 33.4347 54.949C33.4419 54.9561 33.4476 54.9617 33.452 54.9688C33.5023 55.0212 33.5498 55.0765 33.5959 55.1332C33.7585 55.323 33.9067 55.527 34.0406 55.7381C34.0679 55.7778 34.0895 55.8175 34.114 55.8557C34.1701 55.9492 34.2234 56.0442 34.2723 56.1419C34.2996 56.1915 34.3227 56.2425 34.3471 56.2949C34.3788 56.3601 34.409 56.4281 34.4378 56.4961C34.4695 56.5684 34.4983 56.642 34.5242 56.7171C34.5529 56.7936 34.5803 56.873 34.6062 56.9509C34.6551 57.1039 34.6969 57.2584 34.73 57.4185C34.7386 57.4595 34.7472 57.502 34.7544 57.5431C34.7659 57.5842 34.7717 57.6267 34.7789 57.6692C34.7875 57.7174 34.7947 57.767 34.8005 57.818C34.812 57.8902 34.8206 57.9625 34.8278 58.0362C34.8321 58.0801 34.8365 58.1212 34.8393 58.1651C34.8437 58.2133 34.8465 58.2614 34.848 58.3096C34.8523 58.3932 34.8552 58.4754 34.8552 58.559L34.8509 58.5547Z" stroke="#382A4D" stroke-width="0.576014" stroke-linecap="round" stroke-linejoin="round"/>
<path d="M34.8177 59.1356C34.8177 59.1356 34.8177 59.1427 34.8177 59.1441C34.8134 59.188 34.8091 59.232 34.8004 59.2759C34.776 59.4657 34.74 59.6513 34.6939 59.8355C34.6853 59.8752 34.6738 59.9149 34.6623 59.9531C34.5673 60.3045 34.4363 60.6417 34.2737 60.959C34.232 61.0398 34.1888 61.1191 34.1456 61.1956C34.1384 61.207 34.1327 61.2169 34.1255 61.2282C34.0837 61.3019 34.0391 61.3742 33.9916 61.445C33.9758 61.4691 33.9628 61.4903 33.947 61.513C33.9024 61.5782 33.8563 61.6448 33.8074 61.7071C33.7988 61.7227 33.7872 61.7383 33.7757 61.751C33.7225 61.8204 33.6692 61.8885 33.6131 61.9536C33.485 62.1095 33.3469 62.2568 33.2001 62.3957C33.1267 62.4637 33.0518 62.5317 32.9755 62.5968C32.8978 62.662 32.8201 62.7258 32.7395 62.7867C32.6647 62.8434 32.587 62.9 32.5092 62.9553C32.3581 63.0601 32.2027 63.1536 32.0415 63.2415C32.0257 63.2528 32.0084 63.2613 31.9926 63.2684C31.9149 63.3095 31.8371 63.3492 31.7594 63.386C31.0485 63.7232 30.2526 63.9088 29.4107 63.9088C29.3214 63.9088 29.2336 63.906 29.1444 63.9017C29.1228 63.9017 29.0998 63.8989 29.0782 63.8975C28.9803 63.8932 28.8854 63.8847 28.7889 63.8734C28.6868 63.8621 28.5874 63.8493 28.4867 63.8323H28.4824C28.3845 63.8153 28.2852 63.7955 28.1873 63.7728C28.0895 63.7515 27.9916 63.7275 27.8966 63.6991C27.875 63.692 27.852 63.6864 27.8304 63.6793C27.8304 63.6793 27.8295 63.6783 27.8275 63.6764C26.0156 61.0299 28.514 57.1238 24.4325 56.3927C24.4397 56.3729 24.4483 56.3559 24.457 56.3374C24.4973 56.2524 24.539 56.1688 24.5836 56.0867C24.6124 56.0342 24.6397 55.9818 24.6685 55.9294C24.6685 55.9266 24.6714 55.9223 24.6757 55.9209C24.7621 55.7651 24.8571 55.6149 24.965 55.4704C25.0355 55.3726 25.1089 55.2763 25.1866 55.1842C25.214 55.1487 25.2428 55.1162 25.2715 55.0836C25.309 55.0354 25.3521 54.9901 25.3939 54.9461C25.4442 54.8895 25.4989 54.8342 25.5522 54.7818C25.9278 54.4078 26.3581 54.0918 26.8316 53.8425C26.905 53.8014 26.9799 53.7631 27.0561 53.7291C27.1339 53.6894 27.2145 53.6554 27.2965 53.6214C27.3785 53.586 27.4606 53.5534 27.5426 53.5251C27.6088 53.501 27.6779 53.4769 27.7441 53.4571C27.7801 53.4443 27.8146 53.433 27.8506 53.4245C28.0146 53.3749 28.183 53.3352 28.3543 53.3027C28.4104 53.2899 28.4651 53.2814 28.5212 53.2715C28.5615 53.2644 28.6018 53.2587 28.6407 53.2545C28.7112 53.2432 28.7846 53.2347 28.8566 53.229C28.9343 53.2205 29.0091 53.2134 29.0868 53.212C29.1271 53.2077 29.1674 53.2049 29.2092 53.2049C29.2754 53.2021 29.3445 53.2006 29.4135 53.2006C29.4985 53.2006 29.5819 53.2035 29.664 53.2077C29.7057 53.2077 29.7489 53.212 29.7877 53.2148V53.2176C30.1029 55.707 31.0125 57.7613 34.8177 59.1399V59.1356Z" fill="#382A4D"/>
<path d="M27.8103 55.0085C28.3097 55.0085 28.7156 55.408 28.7156 55.8996C28.7156 55.408 29.1214 55.0085 29.6208 55.0085C29.1214 55.0085 28.7156 54.6089 28.7156 54.1173C28.7156 54.6089 28.3097 55.0085 27.8103 55.0085Z" fill="white"/>
<path d="M30.9594 59.9829C31.6789 59.9829 32.2618 60.5567 32.2618 61.2651C32.2618 60.5567 32.8447 59.9829 33.5643 59.9829C32.8447 59.9829 32.2618 59.4091 32.2618 58.7007C32.2618 59.4091 31.6789 59.9829 30.9594 59.9829Z" fill="white"/>
<path d="M18.8629 65.1967C20.1798 65.9887 21.6909 66.3429 23.1834 66.2579C24.1275 66.2054 25.0644 65.9773 25.938 65.5735C26.1812 65.4616 26.4187 65.3355 26.6504 65.1967" stroke="#382A4D" stroke-width="0.576014" stroke-linecap="round" stroke-linejoin="round"/>
<path d="M25.4688 68.9243C24.0037 69.4174 23.3647 67.0924 23.1833 66.2579C24.1275 66.2055 25.0644 65.9774 25.938 65.5736C26.2618 66.4223 26.8648 68.4525 25.4688 68.9243Z" fill="#ED8388"/>
<path d="M25.4688 68.9243C24.0037 69.4174 23.3647 67.0924 23.1833 66.2579C24.1275 66.2055 25.0644 65.9774 25.938 65.5736C26.2618 66.4223 26.8648 68.4525 25.4688 68.9243Z" stroke="#382A4D" stroke-width="0.576014" stroke-linecap="round" stroke-linejoin="round"/>
<path d="M47.6527 47.8565C49.0789 52.3661 51.9645 56.4153 55.8071 59.2872C59.8786 62.3305 64.7388 63.9385 69.8609 63.9385C74.9829 63.9385 79.8417 62.3305 83.9131 59.2872C87.3571 56.7128 90.034 53.1893 91.5797 49.2364C96.1031 47.5915 99.4435 43.7166 100.304 38.9363C100.444 38.1571 100.514 37.3622 100.514 36.5702C100.514 29.1221 94.3588 23.0625 86.793 23.0625C86.0187 23.0625 85.2487 23.1263 84.4903 23.2538C81.383 20.7772 77.6699 19.1266 73.7409 18.4707L69.2132 3.49935C68.4922 1.10638 66.1521 -0.33733 63.645 0.0678746C61.1408 0.474495 59.3922 2.58269 59.4901 5.08617L60.1032 20.2558C58.4524 21.0067 56.9009 21.9461 55.4632 23.0653C55.3783 23.0639 55.2919 23.0625 55.2085 23.0625C50.0518 23.0625 45.3773 25.8663 43.0113 30.3774C42.0139 32.2774 41.4872 34.4195 41.4872 36.5702C41.4872 41.1734 43.8158 45.3756 47.6541 47.855L47.6527 47.8565Z" fill="white"/>
<path d="M71.025 21.6585C70.6393 21.6344 70.2521 21.6231 69.8592 21.6231C67.7191 21.6231 65.6568 21.9589 63.7254 22.5808L63.013 4.9502C62.9482 3.28263 65.3502 2.8916 65.8324 4.48974L71.025 21.6585Z" fill="#F9E176"/>
<path d="M71.025 21.6585C70.6393 21.6344 70.2521 21.6231 69.8592 21.6231C67.7191 21.6231 65.6568 21.9589 63.7254 22.5808L63.013 4.9502C62.9482 3.28263 65.3502 2.8916 65.8324 4.48974L71.025 21.6585Z" stroke="#382A4D" stroke-width="0.576014" stroke-linecap="round" stroke-linejoin="round"/>
<path d="M63.7988 19.7642C63.7988 19.7642 64.8091 18.7696 67.0269 18.9623L63.7988 19.7642Z" fill="#F6CC45"/>
<path d="M63.7988 19.7642C63.7988 19.7642 64.8091 18.7696 67.0269 18.9623" stroke="#362B4B" stroke-width="0.576014" stroke-linecap="round" stroke-linejoin="round"/>
<path d="M63.6202 15.6116C63.6202 15.6116 64.9731 14.8465 66.1863 14.8465L63.6202 15.6116Z" fill="#F6CC45"/>
<path d="M63.6202 15.6116C63.6202 15.6116 64.9731 14.8465 66.1863 14.8465" stroke="#362B4B" stroke-width="0.576014" stroke-linecap="round" stroke-linejoin="round"/>
<path d="M63.4434 11.602C63.4434 11.602 64.5573 10.8809 65.5431 10.9404L63.4434 11.602Z" fill="#F6CC45"/>
<path d="M63.4434 11.602C63.4434 11.602 64.5573 10.8809 65.5431 10.9404" stroke="#362B4B" stroke-width="0.576014" stroke-linecap="round" stroke-linejoin="round"/>
<path d="M96.9865 36.5716C96.9865 37.1738 96.9318 37.7618 96.8297 38.3342C95.9834 43.0379 91.8112 46.6082 86.7899 46.6082C85.106 46.6082 83.5171 46.2059 82.1182 45.4946C78.8369 43.8271 76.5946 40.4565 76.5946 36.5716C76.5946 31.0291 81.1597 26.5351 86.7899 26.5351C92.42 26.5351 96.9851 31.0291 96.9851 36.5716H96.9865Z" fill="#ABAEF8"/>
<path d="M96.8311 38.3342C95.9848 43.038 91.8126 46.6083 86.7913 46.6083C85.1074 46.6083 83.5186 46.2059 82.1197 45.4947C82.0938 45.2298 82.0808 44.962 82.0808 44.69C82.0808 39.9125 86.0155 36.039 90.8685 36.039C93.1683 36.039 95.2624 36.9089 96.8297 38.3342H96.8311Z" fill="#9CA3F4"/>
<path d="M96.9865 36.5716C96.9865 37.1738 96.9318 37.7618 96.8297 38.3342C95.9834 43.0379 91.8112 46.6082 86.7899 46.6082C85.106 46.6082 83.5171 46.2059 82.1182 45.4946C78.8369 43.8271 76.5946 40.4565 76.5946 36.5716C76.5946 31.0291 81.1597 26.5351 86.7899 26.5351C92.42 26.5351 96.9851 31.0291 96.9851 36.5716H96.9865Z" stroke="#382A4D" stroke-width="0.576014" stroke-linecap="round" stroke-linejoin="round"/>
<path d="M55.2068 46.6097C54.5952 46.6097 53.9979 46.5558 53.4165 46.4552C48.6383 45.6221 45.0116 41.5149 45.0116 36.5716C45.0116 34.914 45.4203 33.3499 46.1428 31.9727C47.8367 28.7424 51.2606 26.5351 55.2068 26.5351C60.837 26.5351 65.4021 31.0291 65.4021 36.5716C65.4021 42.1142 60.837 46.6082 55.2068 46.6082V46.6097Z" fill="#ABAEF8"/>
<path d="M53.4165 46.4553C48.6383 45.6222 45.0116 41.5149 45.0116 36.5717C45.0116 34.914 45.4203 33.3499 46.1428 31.9728C46.4119 31.9472 46.6839 31.9345 46.9603 31.9345C51.8132 31.9345 55.748 35.808 55.748 40.5855C55.748 42.8495 54.8643 44.9109 53.4165 46.4538V46.4553Z" fill="#9CA3F4"/>
<path d="M55.2068 46.6097C54.5952 46.6097 53.9979 46.5558 53.4165 46.4552C48.6383 45.6221 45.0116 41.5149 45.0116 36.5716C45.0116 34.914 45.4203 33.3499 46.1428 31.9727C47.8367 28.7424 51.2606 26.5351 55.2068 26.5351C60.837 26.5351 65.4021 31.0291 65.4021 36.5716C65.4021 42.1142 60.837 46.6082 55.2068 46.6082V46.6097Z" stroke="#382A4D" stroke-width="0.576014" stroke-linecap="round" stroke-linejoin="round"/>
<path d="M89.5878 41.0488C89.5878 42.96 89.3115 44.7976 88.7876 46.5417C86.3798 54.5891 78.8154 60.4674 69.8593 60.4674C60.9032 60.4674 53.3345 54.5891 50.9311 46.5417C50.4101 44.7976 50.1266 42.9586 50.1266 41.0488C50.1266 35.5714 52.4293 30.6296 56.128 27.099C59.6857 23.71 64.5271 21.623 69.8593 21.623C75.1915 21.623 80.0359 23.7086 83.5864 27.099C87.2851 30.6296 89.5878 35.5714 89.5878 41.0488Z" fill="#ABAEF8"/>
<path d="M89.0019 45.7667C89.0047 45.6902 89.0047 45.6108 89.0047 45.5329C89.0047 39.248 86.3638 33.5766 82.1197 29.5231C78.0468 25.634 72.4886 23.2396 66.3662 23.2396C64.2722 23.2396 62.2444 23.5215 60.3202 24.0458C63.1482 22.5015 66.4008 21.6245 69.8592 21.6245C75.1943 21.6245 80.0357 23.71 83.5862 27.1004C87.2849 30.631 89.5876 35.5728 89.5876 41.0502C89.5876 42.6795 89.3861 44.255 89.0019 45.7667Z" fill="#BABFF9"/>
<path d="M75.2592 59.7292C73.5422 60.2109 71.7317 60.4674 69.8593 60.4674C60.9032 60.4674 53.3345 54.5891 50.9311 46.5417C50.4101 44.7976 50.1266 42.9586 50.1266 41.0487C50.1266 37.1936 51.2678 33.6049 53.2338 30.5871C52.2652 33.0084 51.7342 35.6437 51.7342 38.405C51.7342 40.5118 52.0479 42.5364 52.6207 44.459C55.2674 53.3253 63.6075 59.8029 73.476 59.8029C74.0776 59.8029 74.672 59.7788 75.2592 59.7306V59.7292Z" fill="#9CA3F4"/>
<path d="M89.5864 41.0488C89.5864 42.9586 89.31 44.7976 88.7876 46.5431C86.3784 54.5919 78.8154 60.4688 69.8593 60.4688C60.9032 60.4688 53.3345 54.5905 50.9311 46.5431C50.4086 44.799 50.1266 42.96 50.1266 41.0488C50.1266 35.5728 52.4278 30.6296 56.128 27.099C59.6843 23.71 64.5257 21.623 69.8593 21.623C75.193 21.623 80.0359 23.71 83.5849 27.099C87.2851 30.6296 89.5864 35.5728 89.5864 41.0488Z" stroke="#382A4D" stroke-width="0.576014" stroke-linecap="round" stroke-linejoin="round"/>
<path d="M83.9086 50.537C82.1902 53.0433 79.6529 54.3156 78.2454 53.3805C77.7374 53.0405 77.4438 52.461 77.3603 51.7399C77.2077 50.4619 77.7086 48.7462 78.8067 47.1466C80.3438 44.9038 82.5371 43.6499 83.9892 44.0821C84.1605 44.1317 84.3217 44.2039 84.4699 44.3031C85.8789 45.241 85.627 48.0321 83.9086 50.537Z" fill="#9CA3F4"/>
<path d="M61.3061 37.0988C61.3061 39.428 59.7676 41.318 57.865 41.318C55.9623 41.318 54.4238 39.428 54.4238 37.0988C54.4238 34.7696 55.9652 32.8796 57.865 32.8796C58.5745 32.8796 59.2322 33.1417 59.7805 33.5922H59.7575C59.2336 33.5922 58.8105 34.0088 58.8105 34.5245C58.8105 35.0402 59.2336 35.4539 59.7575 35.4539C60.2209 35.4539 60.6095 35.1238 60.6872 34.6874C61.0758 35.3703 61.3046 36.202 61.3046 37.1002L61.3061 37.0988Z" fill="#382A4D"/>
<path d="M55.7925 30.981C57.0633 30.2188 58.6709 30.2188 59.9417 30.981" stroke="#382A4D" stroke-width="0.576014" stroke-linecap="round" stroke-linejoin="round"/>
<path d="M67.3003 30.981C68.5711 30.2188 70.1787 30.2188 71.4495 30.981" stroke="#382A4D" stroke-width="0.576014" stroke-linecap="round" stroke-linejoin="round"/>
<path d="M66.6628 37.4728C68.3237 36.4754 70.4263 36.4754 72.0872 37.4728" stroke="#382A4D" stroke-width="0.576014" stroke-linecap="round" stroke-linejoin="round"/>
<path d="M68.2718 43.9206C68.2718 46.4496 66.1893 48.4997 63.6204 48.4997C61.0514 48.4997 58.9689 46.4496 58.9689 43.9206H68.2732H68.2718Z" fill="white"/>
<path d="M68.2718 43.9206C68.2718 46.4496 66.1893 48.4997 63.6204 48.4997C61.0514 48.4997 58.9689 46.4496 58.9689 43.9206H68.2732H68.2718Z" stroke="#382A4D" stroke-width="0.576014" stroke-linecap="round" stroke-linejoin="round"/>
<path d="M109.804 80.6976C109.79 80.5033 109.775 80.3282 109.757 80.1569C109.739 79.9992 109.724 79.8472 109.7 79.6741L109.671 79.4605C109.665 79.424 109.663 79.4047 109.657 79.3682L109.652 79.3317C109.642 79.2624 109.632 79.1931 109.618 79.1085C109.614 79.0796 109.61 79.0604 109.605 79.0315L109.597 78.9911C109.585 78.9161 109.571 78.8411 109.554 78.7487L109.536 78.6621C109.515 78.5505 109.493 78.4409 109.472 78.3408C109.435 78.1619 109.394 77.9791 109.351 77.7983C109.323 77.679 109.294 77.5598 109.263 77.4463C109.235 77.3405 109.206 77.2365 109.179 77.1423C109.138 76.9903 109.093 76.8402 109.048 76.6959C108.997 76.5286 108.942 76.3593 108.882 76.1881C108.801 75.9553 108.696 75.6552 108.567 75.3319C108.45 75.0299 108.319 74.7278 108.176 74.4316C107.994 74.0295 107.799 73.6486 107.586 73.2696C107.469 73.0541 107.357 72.8655 107.263 72.7097C106.949 72.1845 106.609 71.6766 106.255 71.2091C106.105 71.0071 105.952 70.8128 105.802 70.6281C105.667 70.4569 105.538 70.303 105.434 70.1837C105.37 70.1029 105.301 70.026 105.231 69.9509C105.122 69.8278 105.02 69.7181 104.922 69.6143C104.787 69.468 104.643 69.3179 104.469 69.1467C104.316 68.9947 104.162 68.8447 104.006 68.7024C103.859 68.5638 103.705 68.4234 103.525 68.2695C103.345 68.1117 103.173 67.9674 103.009 67.8404C102.843 67.7038 102.671 67.5711 102.495 67.4422C102.302 67.2941 102.122 67.1652 101.95 67.0497C101.758 66.9151 101.59 66.8016 101.432 66.7015C101.43 66.7015 101.428 66.6977 101.424 66.6977C98.9949 62.9904 95.915 59.7179 92.3563 57.0495C92.4286 56.6109 92.4364 56.1569 92.3778 55.7028C92.1941 54.2677 91.3283 52.9729 90.0678 52.238C83.7536 48.5576 76.5306 46.6126 69.1787 46.6126C61.8268 46.6126 54.6018 48.5576 48.2915 52.2361C47.0271 52.9729 46.1633 54.2677 45.9777 55.7048C45.919 56.1588 45.9288 56.6109 45.9992 57.0495C42.4874 59.6833 39.4407 62.9038 37.0291 66.5495C36.8356 66.6707 36.6617 66.7843 36.5249 66.8747C36.5171 66.8805 36.5093 66.8862 36.4995 66.89C34.9771 67.9155 33.6267 69.1429 32.4835 70.5434C32.4033 70.6377 32.3271 70.7358 32.2548 70.8301C31.9206 71.2514 31.6021 71.6939 31.309 72.1441C31.1428 72.3942 31.008 72.6212 30.881 72.8329C30.752 73.0503 30.6211 73.2811 30.4686 73.5697C30.367 73.7601 30.2712 73.9468 30.1872 74.1199C30.1247 74.2488 30.0621 74.3816 30.0015 74.5105C29.8726 74.7933 29.7631 75.051 29.6635 75.2973C29.6048 75.4397 29.5501 75.5801 29.5013 75.7186C29.1163 76.7383 28.8231 77.8079 28.6316 78.9026C28.6101 79.0219 28.5906 79.1431 28.573 79.2566C28.5573 79.3451 28.5378 79.4721 28.5202 79.6183C28.5046 79.7203 28.487 79.8492 28.4733 79.9877C28.4479 80.2012 28.4303 80.3917 28.4186 80.5513C28.4147 80.6033 28.4108 80.6552 28.4069 80.7091C25.6181 82.4483 23.785 85.5187 23.785 88.9201C23.785 92.6485 25.9621 95.9345 29.1573 97.5544C30.1325 101.008 33.357 103.549 37.1717 103.549H41.2581C43.4059 107.505 46.3998 110.969 50.0308 113.684C55.5594 117.814 62.157 120 69.1103 120C76.0636 120 82.6612 117.816 88.1878 113.684C91.8169 110.971 94.8089 107.505 96.9605 103.551H101.043C104.858 103.551 108.082 101.01 109.057 97.5563C112.253 95.9364 114.43 92.6505 114.43 88.922C114.43 85.5226 112.597 82.4521 109.81 80.713L109.804 80.6976Z" fill="white"/>
<path d="M51.2855 69.0776C51.1311 69.2277 51.0041 69.3816 50.9103 69.5509C50.7578 69.6875 50.6093 69.8279 50.4608 69.9684C47.4395 72.8503 45.1061 76.4287 43.7244 80.4418C42.8079 83.0987 42.3135 85.946 42.3135 88.9068C42.3135 91.048 42.5773 93.1277 43.0659 95.1208C37.3262 93.4567 33.1382 88.2315 33.1382 82.0425C33.1382 81.8174 33.1441 81.5942 33.1558 81.373C33.1616 81.2229 33.1753 81.0767 33.1831 80.9305C33.1949 80.7843 33.2105 80.6381 33.2261 80.4957C33.2379 80.3918 33.2515 80.288 33.2672 80.1879C33.273 80.1148 33.2848 80.0417 33.2984 79.9686C33.3102 79.8839 33.3238 79.8012 33.3395 79.7185C33.4841 78.8874 33.7049 78.0813 33.9981 77.3118C34.0293 77.2233 34.0626 77.1347 34.0997 77.0462C34.1837 76.8365 34.2736 76.6288 34.3655 76.4248C34.4065 76.3363 34.4495 76.2459 34.4925 76.1574C34.5609 76.017 34.6312 75.8804 34.7055 75.7399C34.8013 75.561 34.9009 75.3802 35.0065 75.2032C35.1081 75.03 35.2136 74.8627 35.3231 74.6934C35.5497 74.3452 35.7901 74.0104 36.05 73.6853C36.093 73.6276 36.1399 73.5699 36.1868 73.5141C37.0448 72.4598 38.059 71.5363 39.1964 70.7706C39.3567 70.6648 39.5208 70.5571 39.6889 70.457C39.8745 70.3416 40.0641 70.232 40.2556 70.1281C40.3455 70.08 40.4374 70.0299 40.5312 69.9819C40.6211 69.9338 40.7129 69.8876 40.8067 69.8414C40.967 69.7625 41.1311 69.6856 41.2953 69.6106C41.4497 69.5432 41.6041 69.4759 41.7624 69.4162C41.8249 69.3893 41.8894 69.3643 41.9539 69.3393C42.4424 69.1507 42.9447 68.9891 43.4587 68.8583C43.5232 68.8391 43.5896 68.8256 43.6541 68.8102C43.7244 68.791 43.7928 68.7736 43.8651 68.7583C43.9355 68.7429 44.0098 68.7256 44.0821 68.7121C44.1759 68.6909 44.2677 68.6717 44.3635 68.6544C45.2156 68.4928 46.0969 68.4081 46.9978 68.4081C47.7463 68.4081 48.4811 68.4658 49.1983 68.5794C49.7338 68.664 50.2595 68.7814 50.7735 68.9276C50.9474 68.9757 51.1174 69.0276 51.2835 69.0834L51.2855 69.0776Z" fill="#E7E6FC"/>
<path d="M42.3154 88.9065C42.3154 91.0478 42.5792 93.1275 43.0678 95.1206C37.3281 93.4565 33.1401 88.2313 33.1401 82.0422C33.1401 81.8171 33.146 81.594 33.1577 81.3727C33.1636 81.2227 33.1773 81.0764 33.1851 80.9302C33.1968 80.784 33.2124 80.6378 33.2281 80.4954C34.6176 79.7817 36.2005 79.3777 37.8773 79.3777C38.6473 79.3777 40.9455 79.8125 43.7244 80.4435C42.8079 83.1003 42.3135 85.9476 42.3135 88.9085L42.3154 88.9065Z" fill="#D6D6FB"/>
<path d="M43.0681 95.1209C37.3284 93.4568 33.1404 88.2316 33.1404 82.0425C33.1404 81.8174 33.1462 81.5943 33.1599 81.373C33.1658 81.223 33.1756 81.0767 33.1873 80.9305C33.199 80.7843 33.2127 80.6381 33.2303 80.4938C33.2401 80.3899 33.2557 80.2899 33.2713 80.186C33.2772 80.1129 33.2909 80.0398 33.3026 79.9667C33.3143 79.882 33.328 79.7993 33.3436 79.7166C33.4882 78.8855 33.7091 78.0794 34.0022 77.3099C34.0335 77.2214 34.0667 77.1329 34.1038 77.0444C34.1879 76.8347 34.2778 76.6269 34.3696 76.423C34.4106 76.3345 34.4536 76.2441 34.4966 76.1556C34.565 76.0151 34.6354 75.8785 34.7097 75.7381C34.8054 75.5591 34.9051 75.3783 35.0106 75.2013C35.1122 75.0301 35.2158 74.8608 35.3272 74.6915C35.5539 74.3433 35.7943 74.0085 36.0542 73.6834C36.0972 73.6257 36.1441 73.568 36.191 73.5122C37.0489 72.4579 38.0632 71.5345 39.2006 70.7688C39.3608 70.663 39.525 70.5552 39.693 70.4552C39.8787 70.3397 40.0682 70.2301 40.2598 70.1262C40.3536 70.0742 40.4415 70.0261 40.5353 69.98C40.6252 69.9319 40.7171 69.8857 40.8109 69.8395C40.9711 69.7568 41.1353 69.6818 41.2994 69.6087C41.4538 69.5413 41.6082 69.474 41.7665 69.4144C41.829 69.3874 41.8935 69.3624 41.958 69.3374C42.4466 69.1488 42.9488 68.9872 43.4628 68.8564C43.5273 68.8372 43.5937 68.8199 43.6582 68.8083C43.7286 68.7891 43.797 68.7718 43.8693 68.7564C43.9397 68.741 44.0139 68.7237 44.0862 68.7102C44.18 68.689 44.2719 68.6698 44.3676 68.6525C45.2197 68.4909 46.1011 68.4063 47.002 68.4063C47.7505 68.4063 48.4853 68.464 49.2025 68.5775C49.738 68.6621 50.2637 68.7795 50.7776 68.9257C50.9516 68.9738 51.1216 69.0257 51.2877 69.0815" stroke="#382A4D" stroke-width="0.782163" stroke-linecap="round" stroke-linejoin="round"/>
<path d="M105.065 82.0406C105.065 82.3523 105.055 82.6562 105.034 82.9602C105.028 83.0641 105.018 83.1642 105.008 83.2642C104.999 83.3642 104.989 83.4662 104.977 83.5663C104.915 84.1203 104.819 84.6667 104.69 85.1996C104.674 85.2689 104.657 85.3419 104.637 85.4131C104.584 85.6171 104.526 85.821 104.463 86.023C104.436 86.1153 104.406 86.2019 104.377 86.2904C104.35 86.3789 104.319 86.4674 104.287 86.5559C104.225 86.7329 104.156 86.906 104.086 87.0792C104.023 87.2369 103.955 87.3928 103.889 87.5486C103.408 88.6144 102.798 89.6091 102.071 90.5075C101.987 90.6133 101.901 90.7172 101.811 90.8211C101.774 90.8634 101.737 90.9057 101.7 90.95C101.614 91.0481 101.526 91.1443 101.436 91.2424C101.16 91.5406 100.869 91.8253 100.566 92.0985C100.465 92.1909 100.361 92.2813 100.258 92.3698C100.113 92.4948 99.9644 92.6161 99.8081 92.7353C99.7514 92.7777 99.6967 92.82 99.64 92.8604C99.5384 92.9431 99.4289 93.022 99.3214 93.0989C99.169 93.2047 99.0185 93.3086 98.8642 93.4125H98.8602C98.7019 93.5164 98.5436 93.6145 98.3873 93.7088C98.3814 93.7127 98.3756 93.7184 98.3697 93.7203C98.2466 93.7934 98.1215 93.8627 97.9945 93.9339C97.9241 93.9743 97.8499 94.0127 97.7717 94.0531C97.6779 94.1051 97.5861 94.1532 97.4903 94.1994C97.3359 94.2782 97.1815 94.3514 97.0193 94.4245C96.949 94.4572 96.8767 94.488 96.8024 94.5188C96.7027 94.5649 96.605 94.6034 96.5014 94.6476C96.433 94.6746 96.3646 94.7034 96.2962 94.7303C96.1751 94.7765 96.0539 94.8227 95.9308 94.8651C95.8683 94.8862 95.8077 94.9112 95.7412 94.9324C95.7256 94.9362 95.71 94.942 95.6943 94.9478C95.5614 94.9939 95.4246 95.0362 95.2878 95.0767C95.239 95.092 95.1882 95.1074 95.1393 95.119C95.6259 93.1259 95.8819 91.05 95.8819 88.9088C95.8819 84.8186 94.938 80.9517 93.2515 77.5003C91.8718 74.6723 89.9957 72.1308 87.7346 69.9703C87.59 69.8337 87.4434 69.6953 87.2949 69.5625C87.1991 69.3951 87.076 69.2335 86.9138 69.0815C87.1268 69.0123 87.3437 68.9469 87.5607 68.8892C88.0062 68.768 88.4616 68.6698 88.9228 68.5929C89.6654 68.4717 90.4295 68.4063 91.2073 68.4063C91.3715 68.4063 91.5317 68.4101 91.6939 68.4159C91.907 68.4217 92.118 68.4351 92.3291 68.4486C92.4678 68.4601 92.6085 68.4736 92.7473 68.489C92.7629 68.4928 92.7746 68.4928 92.7903 68.4948C92.9017 68.5063 93.0131 68.5198 93.1206 68.5371C93.189 68.5428 93.2535 68.5524 93.3179 68.564C93.4391 68.5832 93.5603 68.6006 93.6795 68.6217C93.7655 68.6371 93.8534 68.6525 93.9394 68.6698C93.9804 68.6794 94.0176 68.6852 94.0566 68.6948C94.1504 68.7141 94.2423 68.7352 94.3361 68.7564C94.4788 68.7872 94.6214 68.8237 94.7641 68.8603C94.9087 68.8968 95.0572 68.9392 95.1999 68.9815C95.5282 69.0796 95.8526 69.1854 96.1712 69.3066C96.3138 69.3624 96.4565 69.4163 96.5952 69.474C96.6324 69.4894 96.6695 69.5067 96.7105 69.5221C96.8337 69.5741 96.9587 69.6279 97.078 69.6837C97.078 69.6837 97.0799 69.685 97.0838 69.6875C97.2284 69.7568 97.3711 69.8242 97.5137 69.8973C97.5196 69.9011 97.5235 69.903 97.5294 69.9069C97.672 69.9761 97.8147 70.0531 97.9535 70.13C98.0961 70.2089 98.2388 70.2878 98.3775 70.3744C98.3834 70.3744 98.3873 70.3782 98.3893 70.3801C98.5221 70.4629 98.655 70.5456 98.7879 70.6302C98.9247 70.7187 99.0576 70.8072 99.1905 70.9015C99.3234 70.9938 99.4563 71.0881 99.5833 71.1843C99.7142 71.2786 99.8432 71.3786 99.9663 71.4825C100.089 71.5826 100.215 71.6864 100.338 71.7903C100.459 71.8961 100.58 72.0039 100.697 72.1135C100.815 72.2232 100.932 72.3367 101.047 72.4483C101.158 72.5618 101.274 72.6772 101.381 72.7927C101.483 72.8985 101.583 73.0081 101.678 73.1178C101.69 73.1274 101.7 73.1389 101.706 73.1505C101.811 73.2698 101.913 73.3948 102.014 73.5198C102.141 73.6757 102.265 73.8335 102.386 73.9951C102.745 74.4799 103.074 74.9878 103.367 75.5149C103.521 75.7977 103.67 76.0882 103.806 76.3806C103.908 76.5961 104.002 76.8154 104.092 77.0367C104.178 77.2598 104.262 77.4849 104.34 77.71C104.381 77.8235 104.418 77.9351 104.451 78.0505C104.489 78.166 104.522 78.2814 104.553 78.3988C104.578 78.4815 104.6 78.5604 104.621 78.6431C104.643 78.722 104.662 78.8008 104.68 78.8817C104.713 79.0182 104.745 79.1567 104.774 79.2953C104.799 79.4011 104.817 79.5108 104.838 79.6204C104.854 79.7032 104.866 79.7878 104.881 79.8705C104.893 79.9474 104.903 80.0225 104.915 80.0995C104.924 80.1668 104.932 80.236 104.942 80.3034C104.958 80.4188 104.969 80.5323 104.983 80.6477C105.008 80.8767 105.024 81.1076 105.036 81.3403C105.047 81.5712 105.055 81.8059 105.055 82.0406H105.065Z" fill="#E7E6FC"/>
<path d="M105.065 82.0404C105.065 82.352 105.055 82.656 105.034 82.96C105.028 83.0639 105.018 83.1639 105.008 83.264C104.998 83.364 104.989 83.466 104.977 83.566C104.914 84.1201 104.819 84.6665 104.69 85.1994C104.674 85.2725 104.656 85.3417 104.637 85.4129C104.584 85.6168 104.525 85.8207 104.463 86.0227C104.436 86.1112 104.406 86.1998 104.377 86.2902C104.35 86.3787 104.318 86.4671 104.287 86.5556C104.225 86.7326 104.156 86.9058 104.086 87.0789C104.023 87.2367 103.955 87.3964 103.888 87.5484C103.408 88.6142 102.798 89.6088 102.071 90.5073C101.985 90.6131 101.897 90.717 101.811 90.8209C101.774 90.8632 101.737 90.9055 101.7 90.9497C101.614 91.0479 101.526 91.1441 101.436 91.2422C101.16 91.5404 100.869 91.8251 100.566 92.0983C100.465 92.1926 100.361 92.281 100.257 92.3695C100.113 92.4946 99.9643 92.6158 99.8079 92.7351C99.7512 92.7774 99.6965 92.8197 99.6398 92.8601C99.5382 92.9428 99.4288 93.0217 99.3213 93.0987C99.1689 93.2045 99.0184 93.3123 98.864 93.4123H98.8601C98.7057 93.5162 98.5474 93.6143 98.3872 93.7086C98.3813 93.7124 98.3754 93.7182 98.3696 93.7201C98.2465 93.7932 98.1214 93.8663 97.9943 93.9336C97.924 93.9741 97.8497 94.0125 97.7716 94.0529C97.6778 94.1048 97.582 94.1529 97.4902 94.1991C97.3358 94.278 97.1814 94.3511 97.0192 94.4242C96.9488 94.4569 96.8765 94.4877 96.8023 94.5185C96.7026 94.5647 96.6049 94.6031 96.5013 94.6474C96.4329 94.6743 96.3645 94.7032 96.2961 94.7301C96.1749 94.7763 96.0538 94.8225 95.9307 94.8648C95.8681 94.886 95.8075 94.911 95.7411 94.9321C95.7254 94.936 95.7098 94.9418 95.6942 94.9475C95.5613 94.9937 95.4245 95.036 95.2877 95.0764C95.2388 95.0918 95.188 95.1072 95.1392 95.1187C95.6258 93.1256 95.8818 91.0498 95.8818 88.9085C95.8818 84.8184 94.9379 80.9515 93.2513 77.5001C96.5853 76.6459 99.7571 76.0283 101.039 76.0283C101.999 76.0283 102.927 76.1534 103.812 76.3842C104.013 76.8171 104.189 77.2596 104.344 77.7136C104.385 77.8271 104.422 77.9426 104.455 78.0541C104.492 78.1696 104.526 78.285 104.557 78.4024C104.582 78.4851 104.604 78.564 104.625 78.6467C104.647 78.7256 104.666 78.8045 104.684 78.8853C104.717 79.0219 104.748 79.1604 104.778 79.2989C104.803 79.4047 104.821 79.5143 104.842 79.624C104.858 79.7067 104.869 79.7914 104.885 79.8741C104.897 79.9511 104.911 80.0261 104.918 80.1031C104.928 80.1704 104.936 80.2396 104.946 80.307C104.961 80.4224 104.973 80.5359 104.987 80.6513C105.012 80.8803 105.028 81.1112 105.039 81.344C105.051 81.5748 105.059 81.8095 105.059 82.0442L105.065 82.0404Z" fill="#D6D6FB"/>
<path d="M86.9158 69.0774H86.9197C87.1327 69.0081 87.3496 68.9427 87.5665 68.885C88.0121 68.7638 88.4674 68.6657 88.9287 68.5887C89.6713 68.4675 90.4354 68.4021 91.2132 68.4021C91.3774 68.4021 91.5376 68.406 91.6998 68.4117C91.9128 68.4175 92.1239 68.431 92.3349 68.4444C92.4737 68.456 92.6144 68.4694 92.7532 68.4848C92.7688 68.4887 92.7805 68.4887 92.7961 68.4906C92.9075 68.5021 93.0189 68.5156 93.1264 68.5329C93.1948 68.5387 93.2593 68.5483 93.3238 68.5599C93.445 68.5791 93.5661 68.5964 93.6853 68.6176C93.7713 68.6329 93.8593 68.6483 93.9453 68.6657C93.9863 68.6753 94.0234 68.6811 94.0625 68.6907C94.1563 68.7099 94.2482 68.7311 94.342 68.7523C94.4846 68.783 94.6273 68.8196 94.77 68.8561C94.9146 68.8927 95.0631 68.935 95.2057 68.9773C95.5341 69.0755 95.8585 69.1813 96.177 69.3025C96.3197 69.3544 96.4584 69.4121 96.6011 69.4699C96.6382 69.4852 96.6754 69.5026 96.7164 69.518C96.8395 69.5699 96.9646 69.6237 97.0838 69.6795C97.0838 69.6795 97.0858 69.6808 97.0897 69.6834C97.2343 69.7526 97.377 69.82 97.5196 69.8931C97.5255 69.8969 97.5294 69.8989 97.5352 69.9027C97.6779 69.972 97.8206 70.0489 97.9593 70.1259C98.102 70.2048 98.2446 70.2836 98.3834 70.3702C98.3892 70.3702 98.3932 70.3741 98.3951 70.376C98.5319 70.4549 98.6609 70.5376 98.7938 70.6261C98.9306 70.7107 99.0635 70.8031 99.1964 70.8973C99.3293 70.9858 99.4621 71.0839 99.5892 71.1801C99.7201 71.2744 99.8491 71.3745 99.9722 71.4783C100.099 71.5765 100.222 71.6803 100.344 71.7861C100.465 71.89 100.586 71.9959 100.703 72.1094C100.824 72.219 100.938 72.3287 101.053 72.4441C101.168 72.5576 101.282 72.6731 101.387 72.7885C101.489 72.8943 101.588 73.004 101.684 73.1136C101.696 73.1232 101.706 73.1348 101.712 73.1463C101.819 73.2675 101.925 73.3906 102.02 73.5157C102.147 73.6715 102.27 73.8293 102.392 73.9909C102.657 74.3449 102.902 74.7104 103.128 75.0875C103.212 75.2279 103.296 75.3684 103.373 75.5107C103.533 75.7935 103.679 76.0802 103.812 76.3765C103.914 76.59 104.01 76.8093 104.098 77.0325C104.188 77.2557 104.268 77.4808 104.346 77.7058C104.387 77.8194 104.424 77.9309 104.457 78.0464C104.494 78.1618 104.528 78.2772 104.559 78.3946C104.584 78.4773 104.606 78.5562 104.627 78.6389C104.649 78.7178 104.668 78.7967 104.686 78.8775C104.719 79.0141 104.75 79.1526 104.78 79.2911C104.805 79.3969 104.823 79.5066 104.844 79.6163C104.86 79.699 104.872 79.7836 104.887 79.8663C104.899 79.9433 104.909 80.0183 104.92 80.0953C104.93 80.1626 104.94 80.2319 104.948 80.2992C104.963 80.4146 104.975 80.5281 104.989 80.6436C105.014 80.8725 105.03 81.1034 105.042 81.3362C105.053 81.567 105.061 81.8017 105.061 82.0364C105.061 82.3481 105.051 82.6521 105.03 82.9561C105.024 83.0599 105.014 83.16 105.004 83.26C104.995 83.3601 104.985 83.4621 104.973 83.5621C104.911 84.1162 104.815 84.6625 104.686 85.1954C104.67 85.2647 104.653 85.3378 104.633 85.409C104.58 85.6129 104.522 85.8169 104.459 86.0189C104.432 86.1112 104.403 86.1978 104.373 86.2863C104.346 86.3748 104.315 86.4632 104.283 86.5517C104.221 86.7287 104.152 86.9019 104.082 87.0751C104.019 87.2328 103.951 87.3886 103.885 87.5445C103.404 88.6103 102.794 89.6049 102.067 90.5033C101.983 90.6091 101.897 90.7131 101.807 90.8169C101.77 90.8593 101.733 90.9016 101.696 90.9458C101.61 91.0439 101.522 91.1401 101.432 91.2383C101.156 91.5365 100.865 91.8212 100.562 92.0944C100.461 92.1867 100.357 92.2772 100.254 92.3657C100.109 92.4907 99.9605 92.6119 99.8041 92.7312C99.7475 92.7735 99.6927 92.8158 99.6361 92.8562C99.5345 92.9389 99.425 93.0178 99.3175 93.0948C99.1651 93.2006 99.0146 93.3045 98.8602 93.4084H98.8563C98.698 93.5123 98.5397 93.6104 98.3834 93.7047C98.3775 93.7085 98.3717 93.7142 98.3638 93.7162C98.2407 93.7893 98.1156 93.8585 97.9886 93.9297C97.9183 93.9701 97.844 94.0086 97.7659 94.049C97.672 94.101 97.5802 94.1491 97.4844 94.1952C97.33 94.2741 97.1756 94.3472 97.0134 94.4203C96.9431 94.453 96.8708 94.4838 96.7965 94.5146C96.6969 94.5608 96.5992 94.5992 96.4956 94.6435C96.4272 94.6704 96.3588 94.6992 96.2904 94.7262C96.1692 94.7724 96.048 94.8186 95.9249 94.8609C95.8624 94.8821 95.8018 94.907 95.7354 94.9282C95.7197 94.932 95.7041 94.9378 95.6885 94.9436C95.5556 94.9898 95.4188 95.0321 95.2839 95.0725C95.2351 95.0879 95.1843 95.1033 95.1354 95.1148V95.1187" stroke="#382A4D" stroke-width="0.782163" stroke-linecap="round" stroke-linejoin="round"/>
<path d="M95.8877 88.9066C95.8877 91.5 95.5125 93.9971 94.8011 96.3635C91.5336 107.289 81.2639 115.269 69.1045 115.269C56.9451 115.269 46.6695 107.289 43.4079 96.3635C42.7004 93.9952 42.3154 91.5 42.3154 88.9066C42.3154 81.4709 45.4403 74.7605 50.4628 69.9682C55.2918 65.3663 61.8659 62.5344 69.1065 62.5344C76.347 62.5344 82.9231 65.3663 87.7423 69.9682C92.7648 74.7624 95.8896 81.4709 95.8896 88.9066H95.8877Z" fill="#E7E6FC"/>
<path d="M95.0944 95.3111C95.0983 95.2072 95.0983 95.0995 95.0983 94.9937C95.0983 86.4614 91.5141 78.7622 85.751 73.258C80.2204 67.979 72.675 64.7276 64.3655 64.7276C61.522 64.7276 58.7704 65.1105 56.1576 65.8223C59.9958 63.7272 64.4124 62.5344 69.1085 62.5344C76.353 62.5344 82.9252 65.3663 87.7444 69.9682C92.7668 74.7624 95.8917 81.4709 95.8917 88.9066C95.8917 91.119 95.6181 93.2565 95.0963 95.3111H95.0944Z" fill="#F3F2FD"/>
<path d="M76.4369 114.269C74.1055 114.923 71.649 115.271 69.1065 115.271C56.947 115.271 46.6715 107.291 43.4098 96.3653C42.7024 93.9971 42.3174 91.5018 42.3174 88.9085C42.3174 83.6756 43.8652 78.8025 46.5347 74.7047C45.2195 77.9926 44.4983 81.569 44.4983 85.3186C44.4983 88.1774 44.9244 90.9285 45.7022 93.5373C49.2961 105.575 60.6171 114.369 74.0156 114.369C74.8325 114.369 75.6396 114.336 76.4369 114.271V114.269Z" fill="#D6D6FB"/>
<path d="M95.8877 88.9066C95.8877 91.5 95.5125 93.9971 94.8031 96.3654C91.5336 107.291 81.2659 115.271 69.1065 115.271C56.947 115.271 46.6715 107.291 43.4098 96.3654C42.7004 93.9971 42.3174 91.5 42.3174 88.9066C42.3174 81.4728 45.4403 74.7605 50.4647 69.9682C55.2918 65.3683 61.8659 62.5344 69.1065 62.5344C76.347 62.5344 82.9212 65.3683 87.7404 69.9682C92.7648 74.7605 95.8877 81.4728 95.8877 88.9066Z" stroke="#382A4D" stroke-width="0.782163" stroke-linecap="round" stroke-linejoin="round"/>
<path d="M35.6221 87.0827C35.6221 68.8696 50.6738 54.054 69.1729 54.054C87.672 54.054 102.724 68.8715 102.724 87.0827" stroke="#382A4D" stroke-width="0.782163" stroke-linecap="round" stroke-linejoin="round"/>
<path d="M87.6231 56.28L87.0349 56.8591L85.833 58.0423L83.5367 60.3028C79.2471 58.0615 74.3575 56.7917 69.1729 56.7917C63.9882 56.7917 59.0986 58.0615 54.809 60.3028L52.5128 58.0423L51.3109 56.8591L50.7227 56.28C56.136 53.1249 62.4424 51.3126 69.1729 51.3126C75.9034 51.3126 82.2098 53.1249 87.6231 56.28Z" fill="#F9E176"/>
<path d="M87.6231 56.28L83.5367 60.3028C79.2471 58.0615 74.3575 56.7917 69.1729 56.7917C63.9882 56.7917 59.0986 58.0615 54.809 60.3028L50.7227 56.28C56.136 53.1249 62.4424 51.3126 69.1729 51.3126C75.9034 51.3126 82.2098 53.1249 87.6231 56.28Z" stroke="#382A4D" stroke-width="0.782163" stroke-linecap="round" stroke-linejoin="round"/>
<path d="M104.566 82.4655V95.3515C104.566 97.2715 102.986 98.8221 101.037 98.8221H93.9294C94.2597 98.0199 94.5509 97.2003 94.803 96.3654C95.5124 93.9952 95.8856 91.498 95.8856 88.9066C95.8856 85.3956 95.1899 82.05 93.9255 78.9872H101.035C101.268 78.9872 101.496 79.0084 101.715 79.0507C103.337 79.3643 104.563 80.7725 104.563 82.4636L104.566 82.4655Z" fill="#F9E176"/>
<path d="M104.566 83.9162V93.8972C107.367 93.8972 109.636 91.6635 109.636 88.9066C109.636 86.1498 107.367 83.9162 104.566 83.9162Z" fill="#F9E176"/>
<path d="M104.566 93.8972C107.367 93.8972 109.636 91.6616 109.636 88.9066C109.636 86.1498 107.365 83.9162 104.566 83.9162" stroke="#382A4D" stroke-width="0.782163" stroke-linecap="round" stroke-linejoin="round"/>
<path d="M104.566 82.4655V95.3515C104.566 97.2715 102.986 98.8221 101.037 98.8221H93.9294C94.2597 98.0199 94.5509 97.2003 94.803 96.3654C95.5124 93.9952 95.8856 91.498 95.8856 88.9066C95.8856 85.3956 95.1899 82.05 93.9255 78.9872H101.035C101.268 78.9872 101.496 79.0084 101.715 79.0507C103.337 79.3643 104.563 80.7725 104.563 82.4636L104.566 82.4655Z" stroke="#382A4D" stroke-width="0.782163" stroke-linecap="round" stroke-linejoin="round"/>
<path d="M44.2795 98.8222H37.166C35.2196 98.8222 33.6366 97.2715 33.6366 95.3515V82.4655C33.6366 80.7225 34.9401 79.2816 36.6325 79.0276C36.8064 79.0007 36.9862 78.9873 37.1641 78.9873H44.2737C43.0073 82.05 42.3116 85.3956 42.3116 88.9066C42.3116 91.5 42.6946 93.9952 43.404 96.3654C43.6542 97.2004 43.9453 98.0199 44.2776 98.8222H44.2795Z" fill="#F9E176"/>
<path d="M33.6385 83.9162V93.8972C30.838 93.8972 28.5691 91.6635 28.5691 88.9066C28.5691 86.1498 30.838 83.9162 33.6385 83.9162Z" fill="#F9E176"/>
<path d="M33.6385 93.8972C30.838 93.8972 28.5691 91.6616 28.5691 88.9066C28.5691 86.1498 30.8399 83.9162 33.6385 83.9162" stroke="#382A4D" stroke-width="0.782163" stroke-linecap="round" stroke-linejoin="round"/>
<path d="M44.2795 98.8222H37.166C35.2196 98.8222 33.6366 97.2715 33.6366 95.3515V82.4655C33.6366 80.7225 34.9401 79.2816 36.6325 79.0276C36.8064 79.0007 36.9862 78.9873 37.1641 78.9873H44.2737C43.0073 82.05 42.3116 85.3956 42.3116 88.9066C42.3116 91.5 42.6946 93.9952 43.404 96.3654C43.6542 97.2004 43.9453 98.0199 44.2776 98.8222H44.2795Z" stroke="#382A4D" stroke-width="0.782163" stroke-linecap="round" stroke-linejoin="round"/>
<path d="M93.9313 98.8222H78.0353" stroke="#382A4D" stroke-width="0.782163" stroke-linecap="round" stroke-linejoin="round"/>
<path d="M78.0374 98.8221H73.099V101.21H78.0374V98.8221Z" stroke="#382A4D" stroke-width="0.782163" stroke-linecap="round" stroke-linejoin="round"/>
<path d="M78.0374 98.8221H73.099V101.21H78.0374V98.8221Z" fill="#342B49"/>
<path d="M57.1306 93.9663C58.9188 95.0418 60.9707 95.5227 62.9973 95.4073C64.2793 95.3361 65.5515 95.0264 66.7378 94.4781C67.0681 94.3261 67.3905 94.1549 67.7051 93.9663" stroke="#382A4D" stroke-width="0.782163" stroke-linecap="round" stroke-linejoin="round"/>
<path d="M66.0987 99.028C64.1093 99.6975 63.2416 96.5405 62.9954 95.4073C64.2774 95.3361 65.5496 95.0264 66.7358 94.4781C67.1755 95.6305 67.9944 98.3874 66.0987 99.028Z" fill="#ED8388"/>
<path d="M66.0987 99.028C64.1093 99.6975 63.2416 96.5405 62.9954 95.4073C64.2774 95.3361 65.5496 95.0264 66.7358 94.4781C67.1755 95.6305 67.9944 98.3874 66.0987 99.028Z" stroke="#382A4D" stroke-width="0.782163" stroke-linecap="round" stroke-linejoin="round"/>
<path d="M50.9279 75.2223C52.6554 74.1853 54.8422 74.1853 56.5698 75.2223" stroke="#382A4D" stroke-width="0.782163" stroke-linecap="round" stroke-linejoin="round"/>
<path d="M51.7213 89.4875C52.2373 89.9165 52.7708 90.359 53.3375 90.8419C53.4567 90.9439 53.6033 90.9939 53.7499 90.9939C53.8964 90.9939 54.0449 90.9439 54.1622 90.8419C54.7289 90.359 55.2625 89.9146 55.7784 89.4875C56.6754 88.743 57.4493 88.1004 58.1215 87.4752C59.425 86.2632 60.6328 84.8895 60.6328 83.0465C60.6328 81.9999 60.2673 81.0187 59.6049 80.2838C58.9052 79.5104 57.9378 79.0853 56.8767 79.0853C55.6944 79.0853 54.6684 79.6355 53.9101 80.6782C53.8534 80.7571 53.8007 80.8341 53.7499 80.911C53.701 80.8341 53.6463 80.7552 53.5896 80.6782C52.8333 79.6355 51.8073 79.0853 50.623 79.0853C49.5638 79.0853 48.5945 79.5104 47.8949 80.2838C47.2324 81.0168 46.8669 81.998 46.8669 83.0465C46.8669 84.1854 47.3164 85.2339 48.2779 86.3517C49.1183 87.3251 50.324 88.3274 51.7194 89.4875H51.7213Z" fill="#ED8388"/>
<path d="M51.7213 89.4875C52.2373 89.9165 52.7708 90.359 53.3375 90.8419C53.4567 90.9439 53.6033 90.9939 53.7499 90.9939C53.8964 90.9939 54.0449 90.9439 54.1622 90.8419C54.7289 90.359 55.2625 89.9146 55.7784 89.4875C56.6754 88.743 57.4493 88.1004 58.1215 87.4752C59.425 86.2632 60.6328 84.8895 60.6328 83.0465C60.6328 81.9999 60.2673 81.0187 59.6049 80.2838C58.9052 79.5104 57.9378 79.0853 56.8767 79.0853C55.6944 79.0853 54.6684 79.6355 53.9101 80.6782C53.8534 80.7571 53.8007 80.8341 53.7499 80.911C53.701 80.8341 53.6463 80.7552 53.5896 80.6782C52.8333 79.6355 51.8073 79.0853 50.623 79.0853C49.5638 79.0853 48.5945 79.5104 47.8949 80.2838C47.2324 81.0168 46.8669 81.998 46.8669 83.0465C46.8669 84.1854 47.3164 85.2339 48.2779 86.3517C49.1183 87.3251 50.324 88.3274 51.7194 89.4875H51.7213Z" stroke="#382A4D" stroke-width="0.782163" stroke-linecap="round" stroke-linejoin="round"/>
<path d="M68.2642 75.2223C69.9917 74.1853 72.1786 74.1853 73.9061 75.2223" stroke="#382A4D" stroke-width="0.782163" stroke-linecap="round" stroke-linejoin="round"/>
<path d="M69.0556 89.4875C69.5715 89.9165 70.105 90.359 70.6717 90.8419C70.7909 90.9439 70.9375 90.9939 71.0841 90.9939C71.2307 90.9939 71.3792 90.9439 71.4964 90.8419C72.0632 90.359 72.5967 89.9146 73.1126 89.4875C74.0096 88.743 74.7835 88.1004 75.4558 87.4752C76.7593 86.2632 77.967 84.8895 77.967 83.0465C77.967 81.9999 77.6016 81.0187 76.9391 80.2838C76.2394 79.5104 75.2721 79.0853 74.2109 79.0853C73.0286 79.0853 72.0026 79.6355 71.2443 80.6782C71.1877 80.7571 71.1349 80.8341 71.0841 80.911C71.0352 80.8341 70.9805 80.7552 70.9238 80.6782C70.1675 79.6355 69.1415 79.0853 67.9573 79.0853C66.8981 79.0853 65.9287 79.5104 65.2291 80.2838C64.5666 81.0168 64.2012 81.998 64.2012 83.0465C64.2012 84.1854 64.6506 85.2339 65.6121 86.3517C66.4525 87.3252 67.6583 88.3274 69.0536 89.4875H69.0556Z" fill="#ED8388"/>
<path d="M69.0556 89.4875C69.5715 89.9165 70.105 90.359 70.6717 90.8419C70.7909 90.9439 70.9375 90.9939 71.0841 90.9939C71.2307 90.9939 71.3792 90.9439 71.4964 90.8419C72.0632 90.359 72.5967 89.9146 73.1126 89.4875C74.0096 88.743 74.7835 88.1004 75.4558 87.4752C76.7593 86.2632 77.967 84.8895 77.967 83.0465C77.967 81.9999 77.6016 81.0187 76.9391 80.2838C76.2394 79.5104 75.2721 79.0853 74.2109 79.0853C73.0286 79.0853 72.0026 79.6355 71.2443 80.6782C71.1877 80.7571 71.1349 80.8341 71.0841 80.911C71.0352 80.8341 70.9805 80.7552 70.9238 80.6782C70.1675 79.6355 69.1415 79.0853 67.9573 79.0853C66.8981 79.0853 65.9287 79.5104 65.2291 80.2838C64.5666 81.0168 64.2012 81.998 64.2012 83.0465C64.2012 84.1854 64.6506 85.2339 65.6121 86.3517C66.4525 87.3252 67.6583 88.3274 69.0536 89.4875H69.0556Z" stroke="#382A4D" stroke-width="0.782163" stroke-linecap="round" stroke-linejoin="round"/>
</svg>