<svg id="Layer_1" data-name="Layer 1" xmlns="http://www.w3.org/2000/svg" xmlns:xlink="http://www.w3.org/1999/xlink" viewBox="0 0 542.97 494.62"><defs><style>.cls-1{fill:none;}.cls-2{fill:url(#linear-gradient);}.cls-3{fill:url(#linear-gradient-2);}.cls-4{fill:#c8c8c8;}.cls-5{fill:url(#linear-gradient-3);}.cls-6{fill:url(#linear-gradient-4);}.cls-7{fill:url(#linear-gradient-5);}.cls-8{fill:url(#linear-gradient-6);}.cls-9{fill:#3f3f3f;}.cls-10{fill:url(#linear-gradient-7);}.cls-11{fill:#010101;}.cls-12{fill:url(#linear-gradient-8);}.cls-13{fill:url(#linear-gradient-9);}.cls-14{fill:url(#linear-gradient-10);}.cls-15{fill:url(#linear-gradient-11);}.cls-16{fill:url(#linear-gradient-12);}.cls-17{fill:#fff;}.cls-18{fill:#343635;}.cls-19{fill:#090909;}.cls-20{fill:#0d0d0d;}.cls-21{fill:#5494cf;}.cls-22{fill:#c7e2f6;}.cls-23{fill:url(#linear-gradient-13);}.cls-24{fill:url(#linear-gradient-14);}.cls-25{fill:url(#linear-gradient-15);}.cls-26{fill:url(#linear-gradient-16);}.cls-27{fill:url(#linear-gradient-17);}.cls-28{fill:url(#linear-gradient-18);}.cls-29{fill:url(#linear-gradient-19);}.cls-30{fill:url(#linear-gradient-20);}.cls-31{fill:url(#linear-gradient-21);}.cls-32{fill:url(#linear-gradient-22);}.cls-33{fill:url(#linear-gradient-23);}.cls-34{fill:url(#linear-gradient-24);}.cls-35{fill:#cbecfc;}.cls-36{fill:#fcd106;}.cls-37{fill:#5b2613;}.cls-38{fill:#429bd5;}.cls-39,.cls-41{fill:#223e7d;}.cls-40{fill:#94d0f2;}.cls-41,.cls-42{fill-rule:evenodd;}.cls-42,.cls-43{fill:#f6fcfe;}.cls-44{clip-path:url(#clip-path);}.cls-45{fill:#f3bdaa;}.cls-46{clip-path:url(#clip-path-2);}.cls-47{clip-path:url(#clip-path-3);}</style><linearGradient id="linear-gradient" x1="12140.56" y1="412.46" x2="12236.28" y2="412.46" gradientTransform="translate(-11572.84 -1242.99) rotate(6.09)" gradientUnits="userSpaceOnUse"><stop offset="0" stop-color="#303030"/><stop offset="0.02" stop-color="#343434"/><stop offset="0.38" stop-color="#858585"/><stop offset="0.67" stop-color="silver"/><stop offset="0.89" stop-color="#e4e4e4"/><stop offset="1" stop-color="#f2f2f2"/></linearGradient><linearGradient id="linear-gradient-2" x1="12434.62" y1="563.75" x2="12434.62" y2="87.1" gradientTransform="translate(-11880.15 -1360.34) rotate(6.87)" gradientUnits="userSpaceOnUse"><stop offset="0" stop-color="#f2f2f2"/><stop offset="0.43" stop-color="#f0f0f0"/><stop offset="0.62" stop-color="#e9e9e9"/><stop offset="0.76" stop-color="#dcdcdc"/><stop offset="0.88" stop-color="#cbcaca"/><stop offset="0.98" stop-color="#b4b3b3"/><stop offset="1" stop-color="#afaeae"/></linearGradient><linearGradient id="linear-gradient-3" x1="12567.72" y1="-695.56" x2="12570.15" y2="-695.56" gradientTransform="matrix(0.97, 0.25, -0.25, 0.97, -12014.83, -1987.31)" gradientUnits="userSpaceOnUse"><stop offset="0" stop-color="#676767"/><stop offset="0.06" stop-color="#737373"/><stop offset="0.33" stop-color="#a9a9a9"/><stop offset="0.57" stop-color="#d1d1d1"/><stop offset="0.76" stop-color="#e9e9e9"/><stop offset="0.87" stop-color="#f2f2f2"/><stop offset="0.95" stop-color="#f8f8f8"/><stop offset="1" stop-color="#fff"/></linearGradient><linearGradient id="linear-gradient-4" x1="12736.06" y1="-700.29" x2="12738.85" y2="-700.29" gradientTransform="matrix(0.97, 0.25, -0.25, 0.97, -12014.83, -1987.31)" gradientUnits="userSpaceOnUse"><stop offset="0" stop-color="#fff"/><stop offset="0.05" stop-color="#f8f8f8"/><stop offset="0.13" stop-color="#f2f2f2"/><stop offset="0.24" stop-color="#e9e9e9"/><stop offset="0.43" stop-color="#d1d1d1"/><stop offset="0.67" stop-color="#a9a9a9"/><stop offset="0.94" stop-color="#737373"/><stop offset="1" stop-color="#676767"/></linearGradient><linearGradient id="linear-gradient-5" x1="12652.46" y1="-460.92" x2="12652.46" y2="-497.96" gradientTransform="matrix(0.97, 0.25, -0.25, 0.97, -12014.83, -1987.31)" gradientUnits="userSpaceOnUse"><stop offset="0" stop-color="#f2f2f2"/><stop offset="0.11" stop-color="#e4e4e4"/><stop offset="0.33" stop-color="silver"/><stop offset="0.62" stop-color="#858585"/><stop offset="0.98" stop-color="#343434"/><stop offset="1" stop-color="#303030"/></linearGradient><linearGradient id="linear-gradient-6" x1="12653.64" y1="-895.77" x2="12653.64" y2="-953.15" gradientTransform="matrix(0.97, 0.25, -0.25, 0.97, -12014.83, -1987.31)" gradientUnits="userSpaceOnUse"><stop offset="0" stop-color="#303030"/><stop offset="0.08" stop-color="#4c4c4c"/><stop offset="0.26" stop-color="#828282"/><stop offset="0.43" stop-color="#afafaf"/><stop offset="0.59" stop-color="#d2d2d2"/><stop offset="0.75" stop-color="#ebebeb"/><stop offset="0.89" stop-color="#fafafa"/><stop offset="1" stop-color="#fff"/></linearGradient><linearGradient id="linear-gradient-7" x1="12726.24" y1="-700.58" x2="12734.15" y2="-700.58" gradientTransform="matrix(0.97, 0.25, -0.25, 0.97, -12014.83, -1987.31)" gradientUnits="userSpaceOnUse"><stop offset="0" stop-color="#f2f2f2"/><stop offset="0.01" stop-color="#ededed"/><stop offset="0.15" stop-color="#b4b4b4"/><stop offset="0.28" stop-color="#858585"/><stop offset="0.4" stop-color="#606060"/><stop offset="0.52" stop-color="#464646"/><stop offset="0.62" stop-color="#363636"/><stop offset="0.7" stop-color="#303030"/></linearGradient><linearGradient id="linear-gradient-8" x1="12574.36" y1="-484.98" x2="12729.11" y2="-484.98" gradientTransform="matrix(0.97, 0.25, -0.25, 0.97, -12014.83, -1987.31)" gradientUnits="userSpaceOnUse"><stop offset="0" stop-color="#010101"/><stop offset="0.1" stop-color="#131313"/><stop offset="0.25" stop-color="#2b2b2b"/><stop offset="0.4" stop-color="#3a3a3a"/><stop offset="0.52" stop-color="#3f3f3f"/><stop offset="0.63" stop-color="#383838"/><stop offset="0.8" stop-color="#232323"/><stop offset="1" stop-color="#010101"/><stop offset="1" stop-color="#010101"/></linearGradient><linearGradient id="linear-gradient-9" x1="12575.5" y1="-910.13" x2="12734.16" y2="-910.13" xlink:href="#linear-gradient-8"/><linearGradient id="linear-gradient-10" x1="12571.23" y1="-695.07" x2="12575.17" y2="-695.07" gradientTransform="matrix(0.97, 0.25, -0.25, 0.97, -12014.83, -1987.31)" gradientUnits="userSpaceOnUse"><stop offset="0" stop-color="#3f3f3f"/><stop offset="0.03" stop-color="#3d3d3d"/><stop offset="0.67" stop-color="#141414"/><stop offset="1" stop-color="#040404"/></linearGradient><linearGradient id="linear-gradient-11" x1="12726.22" y1="-700.67" x2="12734.15" y2="-700.67" gradientTransform="matrix(0.97, 0.25, -0.25, 0.97, -12014.83, -1987.31)" gradientUnits="userSpaceOnUse"><stop offset="0" stop-color="#040404"/><stop offset="0.33" stop-color="#141414"/><stop offset="0.97" stop-color="#3d3d3d"/><stop offset="1" stop-color="#3f3f3f"/></linearGradient><linearGradient id="linear-gradient-12" x1="12639.53" y1="-911.24" x2="12659.33" y2="-911.24" gradientTransform="matrix(0.97, 0.25, -0.25, 0.97, -12014.83, -1987.31)" gradientUnits="userSpaceOnUse"><stop offset="0" stop-color="#303030"/><stop offset="0.11" stop-color="#262626"/><stop offset="0.3" stop-color="#191919"/><stop offset="0.48" stop-color="#151515"/><stop offset="0.78" stop-color="#171717"/><stop offset="0.89" stop-color="#1e1e1e"/><stop offset="0.97" stop-color="#292929"/><stop offset="1" stop-color="#303030"/></linearGradient><linearGradient id="linear-gradient-13" x1="9971.64" y1="625.98" x2="10067.37" y2="625.98" gradientTransform="matrix(-0.99, 0.11, 0.11, 0.99, 9999.85, -1242.99)" xlink:href="#linear-gradient"/><linearGradient id="linear-gradient-14" x1="10268.72" y1="806.96" x2="10268.72" y2="330.3" gradientTransform="matrix(-0.99, 0.12, 0.12, 0.99, 10307.16, -1360.34)" xlink:href="#linear-gradient-2"/><linearGradient id="linear-gradient-15" x1="10450.84" y1="-177.39" x2="10453.27" y2="-177.39" gradientTransform="matrix(-0.97, 0.25, 0.25, 0.97, 10441.84, -1987.31)" xlink:href="#linear-gradient-3"/><linearGradient id="linear-gradient-16" x1="10619.17" y1="-182.12" x2="10621.97" y2="-182.12" gradientTransform="matrix(-0.97, 0.25, 0.25, 0.97, 10441.84, -1987.31)" xlink:href="#linear-gradient-4"/><linearGradient id="linear-gradient-17" x1="10535.57" y1="57.25" x2="10535.57" y2="20.21" gradientTransform="matrix(-0.97, 0.25, 0.25, 0.97, 10441.84, -1987.31)" xlink:href="#linear-gradient-5"/><linearGradient id="linear-gradient-18" x1="10536.75" y1="-377.6" x2="10536.75" y2="-434.99" gradientTransform="matrix(-0.97, 0.25, 0.25, 0.97, 10441.84, -1987.31)" xlink:href="#linear-gradient-6"/><linearGradient id="linear-gradient-19" x1="10609.35" y1="-182.41" x2="10617.26" y2="-182.41" gradientTransform="matrix(-0.97, 0.25, 0.25, 0.97, 10441.84, -1987.31)" xlink:href="#linear-gradient-7"/><linearGradient id="linear-gradient-20" x1="10457.47" y1="33.19" x2="10612.22" y2="33.19" gradientTransform="matrix(-0.97, 0.25, 0.25, 0.97, 10441.84, -1987.31)" xlink:href="#linear-gradient-8"/><linearGradient id="linear-gradient-21" x1="10458.62" y1="-391.96" x2="10617.28" y2="-391.96" gradientTransform="matrix(-0.97, 0.25, 0.25, 0.97, 10441.84, -1987.31)" xlink:href="#linear-gradient-8"/><linearGradient id="linear-gradient-22" x1="10454.34" y1="-176.9" x2="10458.29" y2="-176.9" gradientTransform="matrix(-0.97, 0.25, 0.25, 0.97, 10441.84, -1987.31)" xlink:href="#linear-gradient-10"/><linearGradient id="linear-gradient-23" x1="10609.34" y1="-182.5" x2="10617.27" y2="-182.5" gradientTransform="matrix(-0.97, 0.25, 0.25, 0.97, 10441.84, -1987.31)" xlink:href="#linear-gradient-11"/><linearGradient id="linear-gradient-24" x1="10522.65" y1="-393.07" x2="10542.45" y2="-393.07" gradientTransform="matrix(-0.97, 0.25, 0.25, 0.97, 10441.84, -1987.31)" xlink:href="#linear-gradient-12"/><clipPath id="clip-path" transform="translate(-30.66 -197.83)"><ellipse class="cls-1" cx="148.81" cy="281.02" rx="12.65" ry="16.1"/></clipPath><clipPath id="clip-path-2" transform="translate(-30.66 -197.83)"><ellipse class="cls-1" cx="168.03" cy="372.44" rx="12.65" ry="16.1"/></clipPath><clipPath id="clip-path-3" transform="translate(-30.66 -197.83)"><ellipse class="cls-1" cx="201.61" cy="464.93" rx="12.65" ry="16.1"/></clipPath></defs><path class="cls-2" d="M572.88,260l-1.08,5L464.18,668.43c-4.25,16-17.5,25.81-30.6,23.74l-.53-.07-.52-.07L432,692l-.52-.07a5.06,5.06,0,0,1-.52-.08l-.24,0c9.58.42,18.92-5.35,24.45-15,.33-.57.65-1.17.95-1.77h0c.21-.4.4-.82.59-1.23a39.72,39.72,0,0,0,2.13-6L567.62,260c.07-.26.14-.52.19-.78a34.76,34.76,0,0,0,.7-3.52c2.24-15.28-5.84-27.92-19.26-29.54l-.79-.11-.8-.11-.79-.11-.8-.1c-.26,0-.52-.08-.79-.11l-.52-.08-.27,0-.28,0-.7-.16h0l-.67-.12c.23,0,.45.05.68.09l.79.11c.27,0,.53.06.8.11l.78.1h0c.27,0,.53.06.8.11a7.49,7.49,0,0,1,.79.11c.27,0,.53.06.79.1l.8.11.79.11.79.11.8.11c.26,0,.53.06.79.11l.19,0C567.41,230.13,576.38,243.81,572.88,260Z" transform="translate(-30.66 -197.83)"/><path class="cls-3" d="M567.63,260,458.85,667.79c-4,14.94-15.86,24.53-28.11,24l-.29,0-.52-.08-.52-.07-.52-.07-.52-.07-.53-.07-.52-.08-.52-.07-.52-.07h0l-.51-.07a19.61,19.61,0,0,1-4.1-1l-93-33.84-.17-.06-26.21-9.06c-12.11-4.19-18.37-20.38-14.15-36.22l96.06-360.1h0l2.06-8a40.83,40.83,0,0,1,14-22c.51-.39,1-.77,1.56-1.13l1.07-.68c.36-.22.71-.42,1.08-.62a23.44,23.44,0,0,1,3.86-1.71c.37-.13.75-.24,1.12-.35a18.25,18.25,0,0,1,6.2-.65l124.94,9.19,4.1.57.28,0c.27,0,.54.06.8.1l.79.11.79.11.8.11.79.11.79.11C563.92,227.9,572.21,242.82,567.63,260Z" transform="translate(-30.66 -197.83)"/><path class="cls-4" d="M549.58,232.7c-.33-.29-.68-.57-1-.83C548.9,232.13,549.25,232.41,549.58,232.7Zm-1.82-1.36c.25.16.5.32.73.5l-.33-.23C548,231.51,547.9,231.43,547.76,231.34Zm-3.26-1.61a16.33,16.33,0,0,1,2.09.92l.44.25a14.67,14.67,0,0,0-2.91-1.3Zm-.74-.25a1.66,1.66,0,0,0-.21-.06l-.39-.12c.33.09.64.19,1,.3l-.06,0Zm3.63,1.63s0,0,0,0l-.31-.17.73.43Zm-5-2-.43-.08.78.16.45.11-.68-.17ZM303.15,643l.17.09,0,0Zm-.18-.11h0l-.18-.1Zm-.23-.13.08,0-.18-.11Zm-3.16-2.53h0l-.16-.16Zm-1.11-1.25.2.24-.21-.25Zm-4.5-9.25.11.41c0,.08.05.17.07.26l-.12-.44Zm-1-7.53v0Zm0-1.42v0Zm0-.53v.06c0-.17,0-.35,0-.53C293,619.89,293,620,293,620.2ZM544.21,225.5c-.47-.11-.93-.2-1.41-.28l-.57-.09c-.24,0-.49-.06-.75-.09l-.45,0h0l-.91-.07-124.93-9.19a18.22,18.22,0,0,0-6.2.65c-.38.11-.75.22-1.13.35a23.44,23.44,0,0,0-3.86,1.71c-.36.19-.72.4-1.08.62l-1.07.68c-.52.36-1.05.74-1.56,1.13a40.88,40.88,0,0,0-14,22l-2.05,8h0L291.69,611.41c-4.07,15.86,1.55,32,12.7,36l24.12,8.78.17.06,93,33.83a18.91,18.91,0,0,0,4.61,1.07h0C438,692.4,449.8,682.54,453.79,667l104.77-408.3C562.71,242.51,556.28,228.42,544.21,225.5Zm14.52,28.55-.1.75c0,.25-.09.5-.13.76s-.09.51-.14.76c-.1.47-.2.94-.31,1.42l-.21.9-.76,2.95L453.86,663.82a38.7,38.7,0,0,1-3.58,9.1c-.11.21-.23.42-.35.62s-.24.42-.37.62-.18.31-.28.45c-.27.45-.57.89-.86,1.32l-.4.56c-.19.27-.38.52-.58.78l-.39.5-.43.52c-.4.48-.81.94-1.24,1.39-.13.14-.27.29-.41.42l-.46.46L444,681a6.42,6.42,0,0,1-.48.43l-.49.43c-.32.28-.65.54-1,.8-.51.39-1,.77-1.56,1.12l-.49.31-1.1.65-.49.26c-.53.28-1.08.54-1.62.77l-.55.23c-.37.15-.74.27-1.11.4l-.55.17a13.93,13.93,0,0,1-1.8.45,4.4,4.4,0,0,1-.47.1l-.57.09-.57.08c-.42.05-.85.09-1.27.11h-.45a15.7,15.7,0,0,1-1.68,0l-.59,0-.61-.07-1.14-.18h0l-.22,0-.1,0h0l-.05,0h0l.29.06h.08l.53.08a.45.45,0,0,0,.16,0l.27,0,.41,0,.25,0h.08l.22,0h1.48l.4,0,.26,0h.41l.22,0h.17c.44-.05.88-.12,1.31-.2l.14,0,.08,0,.28-.06.11,0,.48-.12.9-.25.05,0c.32-.1.62-.2.93-.32l.88-.35.06,0,0,0c.48-.2,1-.43,1.43-.68l.19-.1.07,0,.11-.05.1-.07c.22-.12.44-.24.66-.38l.65-.41a24,24,0,0,0,3.09-2.4l.2-.19.21-.2c.54-.52,1.07-1.06,1.58-1.64.34-.38.66-.78,1-1.18l.35-.46a1.83,1.83,0,0,0,.13-.16l.42-.57.16-.23a2,2,0,0,1,.18-.26l.15-.23c.1-.14.19-.28.28-.43l.09-.13c.06-.1.12-.2.19-.3s.21-.33.31-.51l0-.06.3-.52c.11-.18.21-.37.31-.55l.31-.57.29-.58.14-.29c.05-.09.09-.19.14-.3l.18-.38.2-.44.21-.51,0-.08c.1-.25.21-.5.3-.76s.26-.67.37-1h0c.12-.33.23-.67.34-1s.18-.55.26-.84a2.17,2.17,0,0,0,.07-.24c.1-.34.2-.69.28-1L555.43,258.42c.2-.78.37-1.56.52-2.33a32.42,32.42,0,0,0,.58-5.7.15.15,0,0,0,0-.07c0-.2,0-.41,0-.62v-.42c0-.37,0-.74,0-1.11s-.05-.71-.08-1.06l-.06-.53-.06-.53a.59.59,0,0,0,0-.14,2.5,2.5,0,0,0-.06-.38s0,0,0,0,0-.2,0-.29a1.42,1.42,0,0,0,0-.2c0-.18-.06-.34-.1-.52-.09-.5-.21-1-.33-1.49,0-.16-.09-.31-.13-.46l-.06-.23c0-.09,0-.19-.08-.28h0a3.53,3.53,0,0,0-.15-.46c-.09-.31-.2-.62-.31-.92l-.18-.47c-.07-.15-.12-.3-.19-.45a1.6,1.6,0,0,0-.1-.23c-.06-.16-.13-.3-.2-.45l-.14-.31c0-.09-.1-.18-.14-.27l0-.11c-.07-.12-.13-.24-.19-.36l0-.08-.35-.62-.13-.22-.1-.15c0-.08-.09-.15-.13-.22l-.21-.33-.17-.24-.27-.39-.15-.2a2.35,2.35,0,0,0-.19-.25l-.22-.29a2.75,2.75,0,0,0-.22-.26l-.08-.1-.23-.27-.26-.3-.12-.12a3.07,3.07,0,0,0-.25-.26l-.06-.06-.33-.33-.63-.57,0,0c-.33-.29-.68-.57-1-.83l0,0h0l-.33-.23c-.13-.1-.26-.18-.4-.27h0l-.37-.22s0,0,0,0l-.31-.17a14.67,14.67,0,0,0-2.91-1.3l-.06,0-.3-.1a1.66,1.66,0,0,0-.21-.06l-.39-.12-.68-.17-.12,0-.43-.08-.26-.05-.49-.07h0c-.38-.06-.75-.1-1.14-.13l-125.77-9.53c-.34,0-.67,0-1,0h-.5c-10.07.26-20.56,10.61-24,23.9L294.09,612.24a37.19,37.19,0,0,0-1.09,6.9v.05l0,.54c0,.16,0,.31,0,.47v.06c0,.15,0,.29,0,.44v.19c0,.11,0,.22,0,.33v.13c0,.17,0,.34,0,.51v.42c0,.17,0,.33,0,.49v0l0,.48c0,.26,0,.51.05.77,0,.09,0,.19,0,.28v.14c0,.12,0,.24,0,.36a.76.76,0,0,0,0,.15l.06.51c0,.1,0,.2,0,.3l.06.49,0,.22c0,.09,0,.18,0,.27a.29.29,0,0,0,0,.09.68.68,0,0,0,0,.14c0,.1,0,.21.05.31s.05.28.08.43c.11.57.24,1.14.38,1.7l.06.24.11.41c0,.08.05.17.07.26a25.65,25.65,0,0,0,2.56,6l.23.37c.31.52.64,1,1,1.48l.05.07.07.08.12.17.24.29,0,.07h0l.2.24c.18.22.37.43.56.64l.07.07.14.15.14.15h0l.2.21.59.56.11.09c.17.15.33.29.51.43l.12.1.51.39.14.1.07,0c.26.18.52.36.79.52l.1.07.08,0,.15.09h0l.29.17-.14-.07-.18-.09h0c-.3-.16-.59-.34-.87-.52a19.1,19.1,0,0,1-4.64-4.31c-.1-.12-.19-.25-.28-.37-.24-.32-.47-.64-.69-1l-.3-.47a24.86,24.86,0,0,1-1.38-2.49c-.08-.15-.15-.31-.22-.47-.22-.48-.43-1-.63-1.45l-.18-.49-.21-.57c-.06-.2-.13-.39-.2-.58l-.12-.39a4,4,0,0,1-.15-.49c-.29-1-.54-2-.75-3,0-.18-.07-.37-.1-.55-.11-.57-.2-1.15-.28-1.74,0-.2,0-.42-.07-.63a36.67,36.67,0,0,1-.25-4.83c0-.23,0-.44,0-.67,0-1.13.12-2.26.25-3.4,0-.23,0-.46.08-.68a41.34,41.34,0,0,1,.93-4.82l93.24-363.35h0l.68-2.66c.08-.27.15-.54.23-.82s.11-.41.17-.61c.13-.45.27-.88.42-1.33.08-.22.15-.45.23-.67s.09-.24.13-.37.1-.28.16-.43.17-.45.26-.68q.22-.58.48-1.17c.08-.19.16-.38.25-.57.25-.57.51-1.13.79-1.68l.27-.52c.11-.21.22-.43.34-.64l.28-.52.24-.43.3-.5c.08-.14.15-.26.23-.38s.22-.37.35-.56.4-.64.62-1q.15-.24.33-.48c.12-.18.25-.36.39-.55a36.33,36.33,0,0,1,2.91-3.58c.14-.16.29-.32.44-.47s.33-.36.51-.53.56-.56.85-.83.62-.57.93-.84.64-.54,1-.8c.16-.14.32-.26.48-.39.33-.24.65-.49,1-.73s.65-.45,1-.67.67-.43,1-.63l.52-.29.5-.28.53-.27.52-.25,1-.46.5-.2.05,0,.51-.19.49-.17.57-.17.53-.15.53-.13a5.23,5.23,0,0,1,.54-.12c.36-.08.72-.14,1.07-.19l.53-.07a11.35,11.35,0,0,1,1.15-.09c.3,0,.6,0,.9,0l.55,0,.55,0,125.83,9.32.63.06.52.06c.4,0,.78.12,1.17.2h0a5.43,5.43,0,0,1,.58.13l.57.14.57.16c.18,0,.37.11.55.18h0l.54.19.49.19.11,0,.46.2c.21.1.42.19.62.3s.29.14.42.22c.31.16.61.33.92.52s.4.24.6.37l.42.3.46.34.45.35a18.21,18.21,0,0,1,2.9,2.92c.11.13.22.26.32.4.38.5.73,1,1.07,1.54.15.24.3.48.43.72a23.31,23.31,0,0,1,1.51,3.14c.08.2.15.39.22.59.15.41.29.82.42,1.24.07.21.13.42.19.64.11.37.21.74.29,1.11,0,.19.09.39.13.58.08.36.15.72.21,1.09a4.68,4.68,0,0,1,.09.54c.1.61.18,1.24.24,1.87,0,.17,0,.33,0,.5.06.63.08,1.27.1,1.92q0,.36,0,.72a32.27,32.27,0,0,1-.26,4.24C558.77,253.73,558.76,253.89,558.73,254.05Z" transform="translate(-30.66 -197.83)"/><path class="cls-5" d="M303.43,643.1l-.45-.24h0l-.87-.53a19.1,19.1,0,0,1-4.64-4.31c-.09-.13-.19-.25-.28-.37-.24-.32-.47-.65-.69-1l-.3-.47a24.86,24.86,0,0,1-1.38-2.49c-.08-.16-.15-.31-.22-.47-.22-.48-.43-1-.63-1.45l-.18-.49c-.08-.19-.14-.38-.21-.57s-.13-.39-.2-.58-.08-.25-.12-.39-.11-.32-.15-.49c-.29-1-.54-2-.75-3,0-.18-.07-.37-.1-.55-.11-.57-.2-1.15-.28-1.74,0-.2,0-.42-.08-.63a38.49,38.49,0,0,1-.24-4.83c0-.23,0-.45,0-.67,0-1.13.12-2.26.25-3.4,0-.23,0-.46.08-.68a39.4,39.4,0,0,1,.94-4.82l93.23-363.35c3.84-15,15.78-26.54,27.1-26.38-10.22-.07-21,10.39-24.45,23.89L294.09,612.24C290.75,625.28,294.87,638.53,303.43,643.1Z" transform="translate(-30.66 -197.83)"/><path class="cls-6" d="M557.08,261.59,453.86,663.82a38.7,38.7,0,0,1-3.58,9.1c-.11.21-.23.42-.35.63l-.36.61-.28.45-.87,1.32-.4.57c-.19.26-.38.51-.58.76s-.26.34-.39.51l-.43.52c-.4.48-.81.94-1.24,1.39l-.41.42-.46.46c-.15.16-.32.31-.47.45l-.48.44-.49.42c-.32.27-.65.54-1,.8-.51.39-1,.77-1.57,1.12l-.48.3c-.36.23-.73.45-1.1.66l-.49.26c-.53.28-1.07.53-1.62.77l-.55.22c-.37.15-.74.28-1.11.41l-.55.17c-.6.18-1.19.34-1.8.46l-.47.09-.57.09-.57.08c-.42.05-.85.09-1.27.11h-.45a15.7,15.7,0,0,1-1.68,0l-.59,0-.61-.07q-.59-.07-1.14-.18h0c-.2,0-.39-.08-.58-.12,10.9,2.32,22.28-6.57,26-21L555.43,258.42c3.76-14.66-2.38-27.42-13.65-29.42C554.37,231.1,561.26,245.29,557.08,261.59Z" transform="translate(-30.66 -197.83)"/><path class="cls-7" d="M453.86,663.82l-.75,2.95c-4.38,17.05-18.46,27.09-31.22,22.46L304.6,646.62c-10.83-3.93-16.31-19.62-12.36-35l.69-2.66a39.4,39.4,0,0,0-.94,4.82c0,.22-.06.45-.08.68-.13,1.14-.22,2.27-.25,3.4,0,.22,0,.44,0,.67a38.49,38.49,0,0,0,.24,4.83c0,.21.05.43.08.63.08.59.17,1.17.28,1.74,0,.18.06.37.1.55.21,1,.46,2,.75,3,0,.17.1.33.15.49s.08.26.12.39.13.38.2.58.13.38.21.57l.18.49c.2.49.41,1,.63,1.45.07.16.14.31.22.47a24.86,24.86,0,0,0,1.38,2.49l.3.47c.22.33.45.66.69,1,.09.12.19.24.28.37a19.1,19.1,0,0,0,4.64,4.31l.87.53h0c.3.17.6.32.92.47l.47.22c.31.14.61.26.93.37l117.33,42.4c.36.13.72.25,1.08.35l.59.16.93.22.22,0h0l1.14.18.61.07.59,0a15.7,15.7,0,0,0,1.68,0h.45c.42,0,.85-.06,1.27-.11l.57-.08.57-.09.47-.09c.61-.12,1.2-.28,1.8-.46l.55-.17c.37-.13.74-.26,1.11-.41.18-.06.37-.14.55-.22.55-.24,1.09-.49,1.62-.77l.49-.26c.37-.21.74-.43,1.1-.66a5.6,5.6,0,0,0,.48-.3c.54-.35,1.06-.73,1.57-1.12.34-.26.67-.52,1-.8l.49-.42L444,681l.47-.45.46-.46.41-.42c.43-.45.84-.91,1.24-1.39l.43-.52c.13-.17.26-.33.39-.51s.39-.5.58-.76l.4-.57.87-1.32.28-.45.36-.61c.12-.21.24-.42.35-.63A38.7,38.7,0,0,0,453.86,663.82Z" transform="translate(-30.66 -197.83)"/><path class="cls-8" d="M557.83,258.64l-.75,2.95c4.12-16-2.5-30-14.72-32.48l-.58-.11-.6-.1h0c-.37-.05-.74-.09-1.13-.12l-125.77-9.53c-.33,0-.66,0-1,0h0c-11.32-.16-23.26,11.42-27.1,26.38l.69-2.67c.07-.27.14-.55.22-.82s.11-.41.17-.61c.13-.45.27-.89.42-1.33.07-.22.15-.45.23-.67s.08-.24.13-.36.1-.29.16-.44.17-.45.26-.68c.15-.39.31-.78.48-1.16.08-.2.16-.39.25-.58.25-.57.51-1.12.79-1.68l.27-.52c.11-.22.22-.43.34-.64s.19-.35.28-.52.16-.29.25-.43.19-.34.29-.5.15-.26.23-.38.23-.37.35-.56.4-.64.62-.95a4.07,4.07,0,0,1,.33-.48c.12-.19.25-.38.38-.56a38.2,38.2,0,0,1,2.92-3.58l.44-.48.5-.52.86-.83q.47-.44.93-.84c.32-.27.64-.55,1-.8l.48-.39c.33-.25.65-.49,1-.72s.65-.46,1-.68.67-.43,1-.62l.51-.3.52-.28.51-.27.53-.25c.34-.16.69-.32,1-.46l.5-.2.05,0,.51-.19.49-.17.57-.17.53-.15.53-.13.54-.12c.36-.08.72-.14,1.07-.19l.54-.07c.38,0,.76-.08,1.14-.09s.6,0,.9,0h.55l.55,0,125.83,9.32.63.06.52.06c.39.06.78.12,1.17.2h0l.58.12.57.15.57.16c.19,0,.37.12.55.18,0,0,0,0,0,0l.54.19.49.19.11,0,.45.2c.22.1.43.19.63.3s.29.14.42.22c.31.16.62.33.92.52a6.64,6.64,0,0,1,.6.38l.42.29.47.34.44.35a18.21,18.21,0,0,1,2.9,2.92c.11.13.22.26.32.4.38.5.73,1,1.07,1.55.15.23.29.47.43.71a23.77,23.77,0,0,1,1.51,3.13c.08.2.15.4.22.59.16.42.29.83.42,1.25.07.21.13.43.19.64.11.37.2.74.29,1.11,0,.19.09.38.13.57.08.37.15.73.21,1.1a4.68,4.68,0,0,1,.09.54c.1.61.18,1.23.24,1.87,0,.17,0,.33,0,.5,0,.63.09,1.27.1,1.92,0,.24,0,.48,0,.72a34.21,34.21,0,0,1-.26,4.24l-.06.46c0,.26-.07.51-.11.76l-.12.76c0,.25-.09.51-.14.76-.1.47-.2.94-.31,1.41C558,258,557.91,258.34,557.83,258.64Z" transform="translate(-30.66 -197.83)"/><path class="cls-9" d="M541.18,228.9h0c-.37-.05-.74-.09-1.13-.12l-125.77-9.53c-.33,0-.66,0-1,0h0c-10.22-.07-21,10.39-24.45,23.89L294.09,612.24c-3.4,13.27.93,26.76,9.81,31.09l.47.22c.31.14.61.26.93.37l117.33,42.4c.36.13.72.25,1.08.35l.59.16c11.07,2.77,22.78-6.18,26.54-20.83L555.43,258.42C559.26,243.5,552.83,230.55,541.18,228.9ZM449,665.38c-3.4,13.24-14.12,21.61-24.27,19.08l-.55-.15c-.33-.09-.66-.2-1-.32L305.85,641.76c-.29-.1-.57-.22-.85-.34l-.43-.2c-8.16-4-12.08-16.46-9-28.47l94.81-369.5c3.16-12.33,12.94-21.93,22.36-21.88h.05c.3,0,.61,0,.91,0l125.73,9.7,1,.11h0c10.72,1.55,16.48,13.42,13,27Z" transform="translate(-30.66 -197.83)"/><path class="cls-10" d="M553.46,258.41,449,665.54a32,32,0,0,1-2.69,7,27.87,27.87,0,0,1-3.08,4.66c-.23.29-.48.57-.72.84s-.74.81-1.12,1.18a23.57,23.57,0,0,1-3.44,2.8,31.75,31.75,0,0,0,6-12.23l1.21-4.68c.08-.28.15-.56.22-.84L549.66,258c.08-.28.15-.57.21-.86l1.17-4.58a30.46,30.46,0,0,0,.56-13.49C554.51,244.08,555.36,251,553.46,258.41Z" transform="translate(-30.66 -197.83)"/><path class="cls-11" d="M539.82,233.55l-.08,0-.89-.09-125.69-9.87-.8,0h-.12c-8.54,0-17.4,8.69-20.27,19.86L297.06,613.25c-2.8,10.93.76,22.27,8.18,25.87l.35.16h.05c.25.11.5.22.76.31l117.43,42.07.89.28.06,0,.45.12c9.22,2.28,18.92-5.33,22-17.33L551.59,258.07C554.76,245.74,549.54,235,539.82,233.55Zm-97.3,429.6a19.48,19.48,0,0,1-5.31,9.35l-.39.36c-.4.35-.81.67-1.22,1s-.75.51-1.13.73h0a12.69,12.69,0,0,1-1.48.73,10.91,10.91,0,0,1-1.52.52h0c-.25.07-.51.12-.77.17h0l-.78.11a10.52,10.52,0,0,1-3.48-.23l-.17,0-.08,0h-.05l-.07,0-.16,0-.16-.05-.33-.11L307.86,633.93l-.28-.11-.28-.12h0l0,0-.07,0-.15-.07c-5.45-2.61-8.08-10.94-6-19l95.16-370.82c2.09-8.16,8.55-14.53,14.78-14.57h.26a4.05,4.05,0,0,1,.52,0l125.57,10.3.6.06.06,0H538a.7.7,0,0,1,.14,0,2.32,2.32,0,0,1,.38.07.47.47,0,0,1,.17,0,3.37,3.37,0,0,1,.34.09,2.73,2.73,0,0,1,.41.1h0c.19,0,.38.12.57.19l.1,0a3.71,3.71,0,0,1,.46.19c.21.1.43.2.64.32a3.63,3.63,0,0,1,.51.28c.17.1.35.22.52.34a7.89,7.89,0,0,1,1,.78,8.75,8.75,0,0,1,.8.81l.18.2.3.38a4.09,4.09,0,0,1,.38.52,10.21,10.21,0,0,1,.67,1.11,4.68,4.68,0,0,1,.3.59l.27.62a14.28,14.28,0,0,1,.81,2.67c.09.47.16,1,.22,1.45s.09,1,.11,1.51v.77a16.71,16.71,0,0,1-.11,1.71c0,.23,0,.46-.08.69a20.81,20.81,0,0,1-.48,2.48Z" transform="translate(-30.66 -197.83)"/><path class="cls-11" d="M429.56,238.14l0-.33v-.12Z" transform="translate(-30.66 -197.83)"/><path class="cls-11" d="M513.26,244.92l-.07.12-.21.33C513.07,245.22,513.16,245.07,513.26,244.92Z" transform="translate(-30.66 -197.83)"/><path class="cls-11" d="M518,238a3.15,3.15,0,0,0-2.72,2.31c0,.12-.07.24-.11.36a15,15,0,0,1-.5,1.47c-.07.17-.13.33-.21.5h0c-.08.21-.17.4-.26.59s-.17.35-.25.53l-.07.12-.07.13a.31.31,0,0,1,0,.1l-.09.18-.11.19-.27.47c-.1.15-.19.3-.28.45a.21.21,0,0,0,0,.06l0,0c-.08.13-.17.25-.25.37l-.22.32-.08.1a.91.91,0,0,1-.11.16l-.16.21-.05.06s0,0-.06.08a1.71,1.71,0,0,1-.11.14,1,1,0,0,1-.13.16l-.1.13a.46.46,0,0,1-.07.07,1,1,0,0,1-.13.16l-.09.1a1.07,1.07,0,0,1-.14.16l0,0,0,0-.15.17L511,248l-.17.18h0a2.18,2.18,0,0,1-.22.21,1.2,1.2,0,0,1-.22.23h0l-.14.13-.16.15-.16.14-.28.24a1.92,1.92,0,0,1-.22.18.69.69,0,0,1-.13.11l-.33.25-.31.23-.18.13-.22.15h0a1.64,1.64,0,0,1-.22.14.24.24,0,0,1-.09.06l-.36.21-.28.17-.36.18-.14.08h0l-.26.12-.23.11-.21.09-.11,0-.1,0h0l-.54.19c-.17.05-.33.11-.5.15a5.29,5.29,0,0,1-.54.13,8.08,8.08,0,0,1-1.08.17l-.45,0h-1l-65.4-6-.12,0-.39-.06-.33-.06-.08,0-.38-.11a6.54,6.54,0,0,1-.87-.34,3.17,3.17,0,0,1-.41-.21l-.37-.22-.38-.26h0l-.07-.05-.08-.06-.14-.12-.15-.13-.17-.16,0,0-.09-.09a1.52,1.52,0,0,1-.22-.22,1.12,1.12,0,0,1-.17-.2l-.21-.25a.28.28,0,0,1-.06-.08l-.12-.15h0l-.12-.17a1.3,1.3,0,0,0-.1-.15l-.16-.26-.17-.28-.06-.12a1,1,0,0,1-.11-.2c-.05-.09-.09-.18-.13-.27a1,1,0,0,1-.07-.15l-.07-.16s0-.09-.06-.15h0a.61.61,0,0,1-.05-.12c-.05-.12-.09-.24-.13-.36h0l-.06-.19a.14.14,0,0,1,0-.07,1.21,1.21,0,0,1-.05-.18s0,0,0,0v0a.85.85,0,0,1,0-.17.36.36,0,0,1,0-.11,1.24,1.24,0,0,0,0-.16s0-.05,0-.07l0-.14a.85.85,0,0,1,0-.17l0-.14s0,0,0-.08a.13.13,0,0,1,0-.06,1.7,1.7,0,0,1,0-.22l0-.17s0-.07,0-.1,0-.22,0-.33,0-.24,0-.37v0a.15.15,0,0,1,0-.07l0-.45c0-.15,0-.31,0-.47v-.72c0-.17,0-.34,0-.51s0-.39,0-.58h0c0-.16,0-.32.05-.48.06-.47.14-.94.25-1.42,0-.12.05-.23.08-.35.23-1.29-.31-2.36-1.27-2.51Z" transform="translate(-30.66 -197.83)"/><path class="cls-11" d="M435.73,246.19l.39.06a1.46,1.46,0,0,1-.22,0,1.81,1.81,0,0,1-.23,0l-.25-.05h0Z" transform="translate(-30.66 -197.83)"/><path class="cls-11" d="M502.59,252.25h0Z" transform="translate(-30.66 -197.83)"/><path class="cls-11" d="M429.51,237.22v0Z" transform="translate(-30.66 -197.83)"/><path class="cls-11" d="M429.56,238.14l0-.33v-.12Z" transform="translate(-30.66 -197.83)"/><path class="cls-11" d="M430.08,240.78a1.72,1.72,0,0,1-.07-.21s0,0,0,0A1.21,1.21,0,0,0,430.08,240.78Z" transform="translate(-30.66 -197.83)"/><path class="cls-11" d="M430.3,241.4l-.09-.23a.5.5,0,0,0,0-.13h0C430.21,241.16,430.25,241.28,430.3,241.4Z" transform="translate(-30.66 -197.83)"/><path class="cls-11" d="M430.41,241.67a.47.47,0,0,1-.06-.15h0C430.37,241.58,430.39,241.62,430.41,241.67Z" transform="translate(-30.66 -197.83)"/><path class="cls-11" d="M431.18,243.11a2.26,2.26,0,0,1-.16-.26,1.12,1.12,0,0,1-.1-.16.75.75,0,0,1-.07-.12l.17.28Z" transform="translate(-30.66 -197.83)"/><path class="cls-11" d="M431.28,243.26l.12.17,0,0Z" transform="translate(-30.66 -197.83)"/><path class="cls-11" d="M431.8,243.92a.86.86,0,0,1-.13-.14h0l-.07-.1Z" transform="translate(-30.66 -197.83)"/><path class="cls-11" d="M433.29,245.23A2.92,2.92,0,0,1,433,245l-.06-.05Z" transform="translate(-30.66 -197.83)"/><path class="cls-11" d="M433.66,245.45a3.17,3.17,0,0,0,.41.21l-.28-.13-.13-.07a1.08,1.08,0,0,1-.18-.11.76.76,0,0,1-.19-.12Z" transform="translate(-30.66 -197.83)"/><path class="cls-11" d="M434.94,246l.38.11L435,246h0l-.15,0-.3-.11-.36-.15-.06,0A6.54,6.54,0,0,0,434.94,246Z" transform="translate(-30.66 -197.83)"/><path class="cls-11" d="M435.73,246.19h-.06l-.09,0-.16,0h0Z" transform="translate(-30.66 -197.83)"/><path class="cls-11" d="M501.64,252.23a.65.65,0,0,1-.14,0l-65.14-5.94-.12,0Z" transform="translate(-30.66 -197.83)"/><path class="cls-11" d="M502.21,252.25h0Z" transform="translate(-30.66 -197.83)"/><path class="cls-11" d="M503.13,252.21a8.08,8.08,0,0,0,1.08-.17l-.08,0-.46.09-.36,0-.19,0h0a2.69,2.69,0,0,1-.4,0Z" transform="translate(-30.66 -197.83)"/><path class="cls-11" d="M505.25,251.76l-.26.09-.24.07-.18,0-.36.08a5.29,5.29,0,0,0,.54-.13C504.92,251.87,505.08,251.81,505.25,251.76Z" transform="translate(-30.66 -197.83)"/><path class="cls-11" d="M505.25,251.76l.54-.19-.09,0Z" transform="translate(-30.66 -197.83)"/><path class="cls-11" d="M507.51,250.73l.36-.21-.14.09h0Z" transform="translate(-30.66 -197.83)"/><path class="cls-11" d="M508.41,250.17l-.16.11-.06,0Z" transform="translate(-30.66 -197.83)"/><path class="cls-11" d="M509.23,249.56l-.14.11c-.06.06-.13.1-.19.15l-.31.22.31-.23Z" transform="translate(-30.66 -197.83)"/><path class="cls-11" d="M510.32,248.61l-.14.13.14-.13Z" transform="translate(-30.66 -197.83)"/><path class="cls-11" d="M510.78,248.16l-.13.12-.1.09a2.18,2.18,0,0,0,.22-.21Z" transform="translate(-30.66 -197.83)"/><path class="cls-11" d="M511.19,247.72l-.19.2.15-.17Z" transform="translate(-30.66 -197.83)"/><path class="cls-11" d="M513.26,244.92l-.07.12-.21.33C513.07,245.22,513.16,245.07,513.26,244.92Z" transform="translate(-30.66 -197.83)"/><path class="cls-11" d="M513.64,244.26l-.1.17v0Z" transform="translate(-30.66 -197.83)"/><path class="cls-12" d="M445.19,665.11,444,669.79a31.75,31.75,0,0,1-6,12.23,16.56,16.56,0,0,1-13.19,2.57l-.55-.15-1-.32L305.83,641.88l-.85-.34-.44-.2-.6-.32a17.59,17.59,0,0,1-7.54-9.3,34.64,34.64,0,0,1,.85-12.84l1.28-5a25.33,25.33,0,0,0,1,16,13.8,13.8,0,0,0,6.4,7.21l.27.12,0,0,0,0,.7.28,117.46,41.9c.27.09.54.18.81.25l.05,0,.05,0c.12,0,.25.06.37.09C433.72,681.83,442.19,675.4,445.19,665.11Z" transform="translate(-30.66 -197.83)"/><path class="cls-13" d="M553.5,258.28l0,0c3.49-13.59-2.27-25.46-13-27h0l-1-.11-125.73-9.7-.91,0h-.05c-.38,0-.77,0-1.15,0a19.81,19.81,0,0,0-11.29,5.24,36.48,36.48,0,0,0-5.47,11.89l-1.29,5a27.15,27.15,0,0,1,8.65-14,15.25,15.25,0,0,1,9.54-3.83h.18c.25,0,.48,0,.68,0l125.65,10c.21,0,.45,0,.7.07h0l.16,0c8.5,1.25,13.15,10.46,10.77,21.16l1.18-4.58a30.49,30.49,0,0,0,.55-13.5C554.55,244,555.4,250.87,553.5,258.28Z" transform="translate(-30.66 -197.83)"/><path class="cls-14" d="M296.42,631.61a31.36,31.36,0,0,1-.84-18.86l94.81-369.5a33.44,33.44,0,0,1,9.93-16.6,36.29,36.29,0,0,0-5.48,11.89L297.27,618.76A34.69,34.69,0,0,0,296.42,631.61Z" transform="translate(-30.66 -197.83)"/><path class="cls-15" d="M553.5,258.3,449,665.44a32.49,32.49,0,0,1-2.69,7,28.51,28.51,0,0,1-3.08,4.66l-.72.84c-.36.41-.74.81-1.13,1.18a21.39,21.39,0,0,1-3.47,2.83l0,0a31.64,31.64,0,0,0,6-12.22L551.08,252.47a30.34,30.34,0,0,0,.55-13.5C554.55,244,555.4,250.89,553.5,258.3Z" transform="translate(-30.66 -197.83)"/><path class="cls-16" d="M480.22,239.43l-18.33-1.55c-.45,0-.7-.55-.55-1.14l.14-.55a1.23,1.23,0,0,1,1.11-1l18.33,1.52c.47,0,.72.56.57,1.16l-.15.55A1.22,1.22,0,0,1,480.22,239.43Z" transform="translate(-30.66 -197.83)"/><path class="cls-17" d="M546.59,257.61,442.52,663.15a19.48,19.48,0,0,1-5.31,9.35l-.39.36c-.4.35-.81.67-1.22,1s-.75.51-1.13.73h0a12.69,12.69,0,0,1-1.48.73,12.4,12.4,0,0,1-1.52.52h0l-.77.17h0l-.78.11a11.87,11.87,0,0,1-1.58,0,10.48,10.48,0,0,1-1.9-.27l-.17,0,0,0h0l-.09,0h0l-.18-.06-.16-.05-.33-.11L307.86,633.93l-.28-.11-.29-.11h0l-.07,0h0l0,0-.15-.07c-5.45-2.61-8.08-10.94-6-19l95.16-370.82c2.09-8.16,8.55-14.53,14.78-14.57h.26a4.05,4.05,0,0,1,.52,0l17,1.39c1,.15,1.5,1.22,1.27,2.51l-.06.27v0a.09.09,0,0,0,0,.05c-.11.48-.19.95-.25,1.42,0,.16,0,.32-.05.48h0c0,.19,0,.38,0,.58s0,.34,0,.51v.72c0,.16,0,.32,0,.47l0,.45a.15.15,0,0,0,0,.07v0c0,.13,0,.25,0,.37s0,.22,0,.33,0,.07,0,.1l0,.17a1.7,1.7,0,0,0,0,.22.13.13,0,0,0,0,.06s0,0,0,.08l0,.14a.85.85,0,0,0,0,.17l0,.14s0,0,0,.07a1.24,1.24,0,0,1,0,.16.36.36,0,0,0,0,.11.85.85,0,0,0,0,.17v0s0,0,0,0a1.21,1.21,0,0,0,.05.18.14.14,0,0,0,0,.07l.06.19h0a.65.65,0,0,0,0,.13l.09.23a.61.61,0,0,0,.05.12h0c0,.06,0,.1.06.15l.07.16a1,1,0,0,0,.07.15c0,.09.08.18.13.27a1,1,0,0,0,.11.2l.06.12a.75.75,0,0,0,.07.12.86.86,0,0,0,.1.16h0a2.26,2.26,0,0,0,.16.26,1.3,1.3,0,0,1,.1.15l.09.13,0,0h0l.12.15a.28.28,0,0,0,.06.08l.07.1h0a.86.86,0,0,0,.13.14,1.12,1.12,0,0,0,.17.2,1.52,1.52,0,0,0,.22.22l.09.09,0,0,.17.16.15.13.14.12.08.06.07.05.06.05a2.92,2.92,0,0,0,.32.21.76.76,0,0,0,.19.12l.18.1h0l.13.07.28.13.06,0,.36.15.3.11.15,0h0l.34.09.08,0h0l.16,0,.09,0a1.81,1.81,0,0,0,.23,0,1.86,1.86,0,0,0,.34.05l.12,0,65.14,5.94a.65.65,0,0,0,.14,0,1.59,1.59,0,0,0,.38,0h.66a2.69,2.69,0,0,0,.4,0h.23l.36,0,.46-.09.08,0,.36-.08.18,0h0l.24-.06.26-.09.45-.15.09,0,.1,0,.11,0,.21-.09.23-.11.26-.12h0l.14-.08.36-.18.28-.17.21-.11h0l.14-.09a.24.24,0,0,0,.09-.06,1.64,1.64,0,0,0,.22-.14h0l.06,0,.16-.11.18-.13.31-.22h0a1.33,1.33,0,0,0,.19-.14l.14-.11a.69.69,0,0,0,.13-.11,1.92,1.92,0,0,0,.22-.18l.28-.24.16-.14.16-.15.14-.13h0a1.2,1.2,0,0,0,.22-.23l.1-.09a.68.68,0,0,0,.12-.12h0L511,248l.05-.06.15-.17,0,0,0,0a1.07,1.07,0,0,0,.14-.16l.09-.1a1,1,0,0,0,.13-.16.46.46,0,0,0,.07-.07l.1-.13a1,1,0,0,0,.13-.16,1.71,1.71,0,0,0,.11-.14s0,0,.06-.08l.05-.06.16-.21a.91.91,0,0,0,.11-.16l.08-.1.22-.32c.08-.12.17-.24.25-.37l0,0a.21.21,0,0,1,0-.06c.09-.15.18-.3.28-.45l.27-.47v0l.1-.17.09-.18a.31.31,0,0,0,0-.1l.07-.13.07-.12c.08-.18.17-.35.25-.53s.18-.38.26-.59h0c.08-.17.14-.33.21-.5a15,15,0,0,0,.5-1.47.08.08,0,0,0,0,0v0a2.76,2.76,0,0,1,.08-.27A3.15,3.15,0,0,1,518,238l19.3,1.58.6.06.06,0,.12,0h.11l.35.07a.47.47,0,0,1,.17,0,3.37,3.37,0,0,1,.34.09l.41.1h0l.57.19.1,0,.46.19c.21.1.43.2.64.32l.51.28.52.34a11.82,11.82,0,0,1,1,.78,10.19,10.19,0,0,1,.8.81l.18.2.3.38.38.52a10.21,10.21,0,0,1,.67,1.11,6.54,6.54,0,0,1,.3.59l.27.62a16,16,0,0,1,.81,2.67c.09.47.16,1,.22,1.45s.09,1,.11,1.51v.77a16.71,16.71,0,0,1-.11,1.71c0,.23,0,.46-.08.69A20.81,20.81,0,0,1,546.59,257.61Z" transform="translate(-30.66 -197.83)"/><path class="cls-18" d="M420.4,438.83c.92-3.59,2-7.15,2.75-10.77,1.51-6.89-.23-11.89-4.93-14.61-5.39-3.11-14.44-2.27-18.71,1.88-5.7,5.55-7.08,12.84-7.69,20.3a54.14,54.14,0,0,0,2.25,19.56c-17.57-17.24-10.93-35.55,4.63-50.47a40,40,0,0,1,6.81-4.78c2.77-1.72,7.06-2,5.9-7-.73-3.2.8-6.87-3.07-9.41-2.44-1.6-2.09-4.73,0-6.86,1.81-1.87,4.16-2.41,6.47-.58s3.31,4.53,1.29,6.76c-3,3.27,0,5.84.21,8.72.34,4.92,3.81,3.71,6.81,3.68a41.7,41.7,0,0,1,21.22,5.58c4.81,2.71,11.72-1.12,11.39-6.71-.23-4,1.16-6.14,4.86-6.55a4.41,4.41,0,0,1,5,4.17c.44,3.5-1.44,5.22-5,6-4.3.95-7.11,9.57-4.62,13.13,10.83,15.49,9,40.89-3.72,51.47-3.18,2.64-3.87,2.94-8.44,3.35,4.39-5.55,8-11,10.21-17.26,1.79-5.16,2.76-10.4,1.69-15.81a16.73,16.73,0,0,0-18.58-13.08c-3.67.53-5.82,2.9-7.61,5.85-2.74,4.54-3.6,9.68-4.87,14.7Z" transform="translate(-30.66 -197.83)"/><path class="cls-19" d="M407,439.87c-2.34-.81-3.65-2.36-3.21-4.93.51-3,2.8-3.89,5.28-3.29s3.42,2.66,2.91,5.15C411.4,439.46,409.46,440.12,407,439.87Z" transform="translate(-30.66 -197.83)"/><path class="cls-20" d="M435.79,447.41c-2.41-.91-3.63-2.64-3.08-5.11.64-2.89,3-3.75,5.49-3,2.31.7,3.29,2.78,2.63,5.27C440.13,447.22,438.19,447.77,435.79,447.41Z" transform="translate(-30.66 -197.83)"/><path class="cls-21" d="M420.4,438.83l4.27,1.24c.8,2,4.49,2.5,3.11,5.72-4.16-2-8.63-2.8-13.1-3.64C415.41,439,418.65,440.2,420.4,438.83Z" transform="translate(-30.66 -197.83)"/><path class="cls-22" d="M414.45,443a76.89,76.89,0,0,1,13.12,3.58C423.39,448.08,417.59,446.5,414.45,443Z" transform="translate(-30.66 -197.83)"/><path class="cls-23" d="M33.55,242.22l1.08,5L142.25,650.63c4.25,16,17.5,25.81,30.6,23.74l.53-.07.52-.07.52-.08.52-.07.52-.07.24,0c-9.57.42-18.92-5.34-24.45-15-.33-.58-.65-1.17-.95-1.78h0c-.2-.41-.4-.82-.59-1.24a38.26,38.26,0,0,1-2.12-6L38.81,242.23c-.07-.26-.13-.52-.19-.78a35.31,35.31,0,0,1-.7-3.52c-2.24-15.29,5.84-27.92,19.26-29.54.26,0,.53-.09.8-.12l.79-.1.79-.11c.26-.05.53-.08.8-.11l.79-.11.52-.08.28,0,.28,0,.69-.15h0l.67-.13-.68.1c-.27,0-.53.06-.79.11l-.8.1-.78.11h0l-.79.11-.8.11-.79.11c-.27,0-.53.06-.8.11s-.52.06-.79.11l-.79.1-.8.12-.79.1-.19,0C39,212.32,30.05,226,33.55,242.22Z" transform="translate(-30.66 -197.83)"/><path class="cls-24" d="M38.8,242.17,147.58,650c4,14.94,15.86,24.54,28.12,24l.28,0,.52-.07.53-.08.51-.07.53-.07.52-.07.52-.07a4.67,4.67,0,0,0,.52-.08l.52-.06h0l.51-.08a19,19,0,0,0,4.1-1l93-33.83.17-.06,26.21-9.06c12.12-4.19,18.38-20.39,14.15-36.22L222.22,233h0l-2.05-8a40.94,40.94,0,0,0-14-22c-.52-.4-1-.77-1.57-1.13-.35-.24-.71-.47-1.07-.68s-.71-.43-1.08-.63a24.31,24.31,0,0,0-3.86-1.71c-.37-.12-.75-.24-1.12-.34a18.25,18.25,0,0,0-6.2-.65L66.33,207.07l-4.11.56-.28,0-.8.11-.79.11-.79.1c-.27,0-.54.07-.8.12l-.79.1-.79.11C42.51,210.09,34.22,225,38.8,242.17Z" transform="translate(-30.66 -197.83)"/><path class="cls-4" d="M57.89,214.07a10.22,10.22,0,0,0-1,.83C57.18,214.61,57.53,214.33,57.89,214.07Zm.38-.27-.33.23c.24-.18.48-.34.73-.5Zm4-2a15.3,15.3,0,0,0-2.91,1.31c.14-.09.29-.17.44-.25a15.64,15.64,0,0,1,2.09-.93Zm.06,0-.06,0c.32-.1.63-.21,1-.29l-.39.11-.21.06Zm-3.7,1.76.73-.43-.3.17-.06,0ZM64,211.32c-.24.06-.47.11-.69.18l.45-.11.78-.17-.43.08Zm239.18,413.9,0,0,.17-.1Zm.47-.27-.17.1,0,0Zm.18-.11-.18.11.08-.05Zm3.2-2.61-.15.15h0Zm1-1.12-.21.26.2-.24Zm4.43-9-.12.43c0-.08.05-.17.08-.26s.07-.27.1-.4Zm1.09-8.06v0Zm0-1.15v0Zm0-1c0,.17,0,.35,0,.52v-.05C313.48,602.24,313.47,602.08,313.46,601.93ZM47.87,240.9,152.65,649.2c4,15.53,15.75,25.39,27.5,24.17h0a19.87,19.87,0,0,0,4.61-1.07l93-33.84.18-.06L302,629.63c11.15-4.06,16.78-20.16,12.7-36L222.23,233.08h0l-2.05-8a40.8,40.8,0,0,0-14-22c-.51-.4-1-.78-1.56-1.13-.36-.24-.71-.47-1.07-.68s-.71-.43-1.08-.63a24.31,24.31,0,0,0-3.86-1.71c-.37-.13-.75-.24-1.13-.34a18,18,0,0,0-6.2-.66l-124.93,9.2-.91.07h0l-.45,0c-.25,0-.51,0-.75.09l-.57.08c-.47.08-.94.17-1.4.28C50.15,210.61,43.72,224.71,47.87,240.9Zm-.23-5.13a36.13,36.13,0,0,1-.26-4.24c0-.24,0-.47,0-.72,0-.64,0-1.28.1-1.91,0-.17,0-.34,0-.5.06-.64.14-1.26.24-1.88a5.07,5.07,0,0,1,.09-.54c.06-.37.13-.73.21-1.09,0-.19.08-.38.13-.57.08-.37.18-.75.29-1.11s.12-.43.19-.64c.13-.42.27-.84.42-1.25.07-.2.14-.39.23-.59a22.58,22.58,0,0,1,1.5-3.13c.14-.25.28-.49.43-.72a17,17,0,0,1,1.08-1.54,4.24,4.24,0,0,1,.31-.4,18.69,18.69,0,0,1,2.9-2.93l.45-.35c.15-.11.3-.23.46-.33s.28-.21.43-.3l.59-.38.92-.52c.13-.08.28-.14.42-.22s.41-.2.63-.29a4.43,4.43,0,0,1,.45-.2l.11,0,.49-.19L61,209h0l.56-.18.56-.16.57-.14.58-.12h0c.38-.07.76-.14,1.16-.19l.52-.07.64-.05,125.82-9.33.55,0h.55l.9,0,1.15.09.53.07c.35.05.71.12,1.07.2l.54.11.53.14.53.14.57.18.49.17.51.18.05,0,.5.2c.35.15.7.3,1,.47l.53.25.52.27.51.27.51.3,1,.62c.34.22.67.45,1,.68s.66.48,1,.73l.48.38,1,.8.94.85c.28.26.56.54.85.82l.5.53c.15.16.3.31.44.47a36.82,36.82,0,0,1,2.92,3.59c.13.18.26.36.38.55s.23.32.33.48c.22.32.43.64.62,1s.24.37.35.55.15.25.23.38l.3.51.24.43c.09.17.19.34.28.52s.23.42.34.63l.27.53c.28.55.54,1.11.79,1.68.09.19.17.38.25.57q.26.57.48,1.17l.27.68c.05.15.11.29.15.43l.13.36c.08.22.16.45.23.68.15.44.29.88.42,1.33.06.2.12.4.17.61s.15.54.23.82l.68,2.65h0l93.24,363.35a41.34,41.34,0,0,1,.93,4.82c0,.23.06.46.08.69.13,1.13.22,2.27.25,3.4,0,.22,0,.44,0,.66a36.83,36.83,0,0,1-.25,4.84c0,.21,0,.42-.07.63-.08.58-.17,1.17-.28,1.74,0,.18-.06.37-.1.55-.21,1-.45,2-.74,3l-.15.49c-.05.13-.09.26-.13.39l-.2.57c-.07.19-.14.38-.2.57s-.13.33-.19.49c-.2.5-.4,1-.63,1.45-.07.16-.14.32-.22.48a24.86,24.86,0,0,1-1.38,2.49l-.3.46c-.22.34-.45.66-.69,1l-.28.36a18.55,18.55,0,0,1-4.64,4.31c-.28.19-.57.36-.87.53h0l-.18.08-.14.08.3-.17,0,0,.14-.08.08-.05.1-.06c.27-.17.53-.34.79-.53l.07,0,.14-.09.51-.39.12-.1c.18-.14.34-.29.51-.43l.11-.1.59-.56.21-.21h0l.14-.15a1.06,1.06,0,0,1,.15-.15l.06-.08.56-.63.2-.24v0l0-.06.24-.3.13-.17.06-.08.05-.07c.35-.47.68-1,1-1.47.07-.12.15-.24.22-.37a25.91,25.91,0,0,0,2.56-6.05c0-.08.05-.17.08-.26s.07-.27.1-.4l.06-.24c.15-.56.27-1.13.38-1.71,0-.14.06-.29.08-.43l.06-.31s0-.08,0-.13a.29.29,0,0,0,0-.09c0-.09,0-.18,0-.27l0-.22c0-.16.05-.33.07-.5l0-.29.06-.51s0-.1,0-.15l0-.37v-.13a2.83,2.83,0,0,0,0-.29c0-.25,0-.51.05-.77s0-.31,0-.48v0c0-.16,0-.32,0-.48v-.43c0-.16,0-.33,0-.5v-.13c0-.12,0-.22,0-.33a.33.33,0,0,0,0-.1v-.09c0-.15,0-.3,0-.45v-.05c0-.16,0-.32,0-.47l0-.55v0a37.19,37.19,0,0,0-1.09-6.9L217.62,225.3c-3.41-13.29-13.89-23.64-24-23.89h-.5c-.32,0-.65,0-1,0L66.39,211c-.39,0-.76.07-1.13.12h0l-.49.08-.26,0-.43.08-.11,0c-.24.06-.47.11-.69.18l-.39.11-.21.06-.3.1-.06,0a15.3,15.3,0,0,0-2.91,1.31l-.3.17-.06,0-.37.23h0l-.4.27-.33.23,0,0,0,0a10.22,10.22,0,0,0-1,.83l0,0c-.22.19-.42.38-.63.58l-.33.33-.06,0-.25.27-.11.12-.27.3-.23.27-.08.09-.22.27c-.07.09-.15.18-.22.28l-.19.25-.15.21-.27.38c-.06.09-.11.16-.16.25l-.22.32c0,.08-.09.15-.13.22a1.3,1.3,0,0,0-.1.15l-.13.23c-.12.2-.23.41-.35.62a.59.59,0,0,0,0,.08l-.18.35a.6.6,0,0,0-.06.11l-.13.27-.15.31c-.07.15-.14.3-.2.45a2.44,2.44,0,0,0-.1.24c-.06.14-.12.29-.19.44l-.18.48c-.11.3-.22.6-.31.91-.06.15-.1.31-.15.47,0,0,0,0,0,0l-.09.28-.06.22c0,.15-.08.31-.13.46q-.18.74-.33,1.5c0,.17-.07.34-.1.51a.76.76,0,0,0,0,.21c0,.09,0,.19-.05.28s0,0,0,0l-.06.37c0,.05,0,.1,0,.15l-.06.53-.06.53c0,.35-.06.7-.08,1.06s0,.73-.05,1.11v1s0,0,0,.07a33.5,33.5,0,0,0,.58,5.7c.15.77.32,1.54.52,2.32L155.59,648.19c.08.35.18.69.28,1l.07.25c.09.28.17.56.26.84s.22.68.34,1h0c.11.34.24.67.37,1s.2.52.31.77c0,0,0,0,0,.08l.21.5c.07.15.14.3.2.45l.18.38.14.3.15.29c.09.19.18.38.28.57l.31.57.31.56.3.52,0,.06c.1.17.21.34.32.5s.12.21.19.31l.08.13a4.38,4.38,0,0,0,.28.42l.15.24a2,2,0,0,1,.18.25l.16.23.42.57.13.17.35.45c.33.41.66.8,1,1.19.51.57,1,1.12,1.58,1.63l.21.2.2.19a25,25,0,0,0,3.09,2.41l.65.41.66.38.11.06.1.06.08,0,.18.09c.47.25,1,.48,1.43.69l0,0,.06,0,.88.35.93.32h.05l.9.26.48.11.11,0,.28.06h.09l.13,0c.43.08.87.14,1.32.2h.16a.83.83,0,0,0,.22,0h.67l.4,0h1.48l.22,0h.08l.25,0,.41,0,.27,0a.44.44,0,0,0,.16,0l.53-.08.08,0,.29,0h0l-.05,0h0l-.1,0-.21,0h0a10.82,10.82,0,0,1-1.14.18c-.2,0-.41.06-.61.07l-.59.05a15.56,15.56,0,0,1-1.67,0h-.45c-.43,0-.85-.07-1.28-.12l-.57-.07-.57-.1-.47-.09q-.9-.18-1.8-.45l-.55-.18c-.37-.12-.74-.25-1.11-.4-.18-.07-.37-.14-.55-.23-.54-.23-1.09-.49-1.62-.77-.17-.08-.33-.17-.49-.26-.37-.21-.74-.42-1.1-.65l-.48-.3c-.54-.36-1.06-.73-1.57-1.13-.34-.25-.67-.52-1-.8-.17-.13-.33-.28-.49-.42l-.48-.43-.47-.45-.46-.46-.41-.42c-.43-.45-.84-.92-1.23-1.4-.15-.17-.3-.34-.43-.52s-.27-.33-.4-.5l-.58-.77-.39-.57c-.3-.42-.59-.86-.87-1.31-.1-.15-.19-.3-.28-.46s-.25-.4-.37-.61-.24-.41-.35-.62a38.87,38.87,0,0,1-3.58-9.1L49.36,243.78l-.76-2.95c-.08-.3-.15-.6-.22-.9-.11-.48-.21-.94-.31-1.41,0-.26-.1-.51-.14-.77l-.12-.76-.11-.75Z" transform="translate(-30.66 -197.83)"/><path class="cls-25" d="M303,625.3l.46-.25h0c.3-.17.59-.34.87-.53a18.72,18.72,0,0,0,4.64-4.31l.28-.36c.24-.33.47-.65.69-1l.3-.46a24.86,24.86,0,0,0,1.38-2.49l.23-.48c.21-.47.42-1,.62-1.45.06-.16.13-.32.18-.49s.15-.38.21-.57.14-.39.2-.58.09-.25.12-.38a4.58,4.58,0,0,0,.15-.49c.3-1,.54-2,.75-3,0-.18.07-.37.1-.55.11-.58.2-1.15.28-1.74,0-.21,0-.42.08-.63a38.58,38.58,0,0,0,.24-4.83c0-.23,0-.45,0-.67,0-1.13-.11-2.26-.25-3.4,0-.23,0-.46-.08-.69a41.34,41.34,0,0,0-.93-4.82L220.27,227.78c-3.84-14.95-15.78-26.53-27.1-26.38,10.22-.07,21,10.4,24.45,23.9l94.72,369.13C315.69,607.48,311.56,620.73,303,625.3Z" transform="translate(-30.66 -197.83)"/><path class="cls-26" d="M49.35,243.78,152.57,646a38.87,38.87,0,0,0,3.58,9.1c.11.21.23.42.35.62s.24.41.37.61.18.31.28.46c.28.45.57.88.86,1.31.14.2.27.39.41.57s.37.52.57.77.26.34.4.5.28.35.42.53c.4.47.82.94,1.24,1.39l.41.42.46.46.47.45.48.43.49.42c.33.28.65.55,1,.8.51.4,1,.77,1.57,1.12l.48.31c.36.23.73.44,1.1.66l.49.25c.53.29,1.08.54,1.62.77l.55.23c.37.15.74.28,1.11.4l.55.18q.9.27,1.8.45a3.89,3.89,0,0,0,.47.09l.57.1.57.07c.42.06.85.09,1.28.11l.45,0a15.56,15.56,0,0,0,1.67,0l.59-.05c.2,0,.41,0,.62-.07.38,0,.76-.11,1.13-.18h0l.57-.13c-10.9,2.33-22.28-6.57-26-21L51,240.61C47.24,226,53.38,213.2,64.65,211.19,52.06,213.3,45.17,227.48,49.35,243.78Z" transform="translate(-30.66 -197.83)"/><path class="cls-27" d="M152.57,646l.76,3c4.37,17,18.45,27.09,31.21,22.45l117.29-42.6c10.83-3.94,16.31-19.62,12.36-35l-.68-2.67a41.34,41.34,0,0,1,.93,4.82c0,.23.06.46.08.69.14,1.14.22,2.27.25,3.4,0,.22,0,.44,0,.67a38.58,38.58,0,0,1-.24,4.83c0,.21-.05.42-.08.63-.08.59-.17,1.16-.28,1.74,0,.18-.06.37-.1.55-.21,1-.45,2-.75,3a4.58,4.58,0,0,1-.15.49c0,.13-.08.26-.12.38s-.13.39-.2.58-.13.38-.21.57-.12.33-.18.49c-.2.49-.41,1-.62,1.45l-.23.48a24.86,24.86,0,0,1-1.38,2.49l-.3.46c-.22.34-.45.66-.69,1l-.28.36a18.72,18.72,0,0,1-4.64,4.31c-.28.19-.57.36-.87.53h0c-.31.17-.61.33-.92.48l-.48.22-.92.37L183.8,668.51l-1.08.36-.59.16c-.31.08-.61.15-.93.21l-.21,0h0c-.38.08-.76.14-1.13.18-.21,0-.42.06-.62.07l-.59.05a15.56,15.56,0,0,1-1.67,0l-.45,0c-.43,0-.86-.05-1.28-.11l-.57-.07-.57-.1a3.89,3.89,0,0,1-.47-.09q-.9-.18-1.8-.45l-.55-.18c-.37-.12-.74-.25-1.11-.4-.18-.07-.37-.14-.55-.23-.54-.23-1.09-.48-1.62-.77l-.49-.25c-.37-.22-.74-.43-1.1-.66l-.48-.31c-.54-.35-1.06-.72-1.57-1.12-.34-.25-.67-.52-1-.8l-.49-.42-.48-.43-.47-.45-.46-.46-.41-.42c-.42-.45-.84-.92-1.24-1.39-.14-.18-.29-.35-.42-.53s-.27-.33-.4-.5-.38-.51-.57-.77-.28-.37-.41-.57c-.29-.43-.58-.86-.86-1.31-.1-.15-.19-.3-.28-.46s-.25-.4-.37-.61-.24-.41-.35-.62A38.87,38.87,0,0,1,152.57,646Z" transform="translate(-30.66 -197.83)"/><path class="cls-28" d="M48.6,240.83l.75,2.95c-4.11-16.05,2.5-30,14.72-32.48l.58-.11.6-.09h0c.37,0,.75-.09,1.13-.12l125.77-9.53c.33,0,.67,0,1,0h0c11.32-.15,23.26,11.43,27.1,26.38l-.69-2.66c-.07-.28-.14-.55-.22-.82s-.11-.41-.17-.61c-.13-.45-.27-.89-.42-1.33-.07-.23-.15-.46-.23-.68s-.08-.24-.13-.36-.1-.28-.16-.43-.16-.45-.25-.68c-.16-.4-.32-.79-.49-1.17-.08-.19-.16-.38-.25-.57-.25-.57-.51-1.13-.79-1.68l-.27-.53c-.11-.21-.22-.42-.34-.63s-.19-.35-.28-.52l-.24-.43-.3-.51-.23-.38c-.11-.19-.22-.37-.34-.55s-.41-.64-.63-1l-.32-.48-.39-.55a38.05,38.05,0,0,0-2.92-3.59c-.14-.16-.29-.31-.44-.47l-.5-.52c-.29-.29-.57-.56-.86-.83l-.93-.85c-.32-.27-.63-.54-1-.8l-.48-.38c-.32-.25-.65-.49-1-.73s-.66-.46-1-.68l-1-.62-.51-.29-.51-.28-.52-.27-.53-.26c-.34-.16-.69-.31-1-.45l-.5-.21-.05,0-.5-.18-.5-.17-.57-.18-.53-.14-.53-.14-.54-.12c-.36-.07-.71-.14-1.07-.19l-.53-.07-1.15-.09-.9,0H192l-.55,0L65.64,208.07l-.63.06c-.17,0-.35,0-.52.06-.39.05-.78.12-1.16.19h0l-.58.13-.57.14-.57.16L61,209h0l-.54.2-.49.18-.11,0-.45.2c-.22.09-.43.19-.63.29l-.42.22-.92.52-.6.38-.42.3c-.16.1-.31.22-.46.33l-.45.36a18.14,18.14,0,0,0-2.9,2.91l-.32.4c-.38.5-.73,1-1.07,1.55-.15.23-.29.47-.43.72a22.62,22.62,0,0,0-1.51,3.13c-.08.2-.15.39-.22.59-.15.41-.29.83-.42,1.25-.07.21-.13.42-.19.64s-.2.74-.29,1.11c0,.19-.09.38-.13.57-.08.36-.15.72-.21,1.09a5.07,5.07,0,0,0-.09.54c-.1.62-.18,1.24-.24,1.88,0,.16,0,.32,0,.49,0,.64-.08,1.28-.1,1.92,0,.24,0,.48,0,.72a36.13,36.13,0,0,0,.26,4.24l.06.47c0,.25.07.5.11.75l.12.76c0,.26.1.51.14.77.1.47.2.94.31,1.41C48.45,240.23,48.52,240.53,48.6,240.83Z" transform="translate(-30.66 -197.83)"/><path class="cls-9" d="M51,240.61,155.59,648.19c3.76,14.66,15.47,23.61,26.54,20.84l.59-.16,1.08-.36,117.34-42.39.92-.37.48-.22c8.87-4.33,13.2-17.82,9.8-31.1L217.62,225.3c-3.47-13.5-14.23-24-24.45-23.9h0c-.32,0-.66,0-1,0L66.39,211c-.38,0-.76.07-1.13.12h0C53.6,212.75,47.17,225.7,51,240.61Zm1.92-.17c-3.49-13.6,2.27-25.47,13-27h0c.34,0,.69-.09,1-.11l125.73-9.7c.3,0,.61,0,.91-.05h.05c9.42,0,19.2,9.55,22.36,21.87l94.81,369.5c3.09,12-.82,24.51-9,28.48-.14.06-.29.14-.44.19s-.56.24-.85.35L183.2,666.19c-.33.11-.66.22-1,.31l-.55.16c-10.15,2.52-20.87-5.85-24.27-19.09Z" transform="translate(-30.66 -197.83)"/><path class="cls-29" d="M53,240.6,157.44,647.74a32,32,0,0,0,2.69,7,28.29,28.29,0,0,0,3.08,4.66q.36.44.72.84c.37.41.74.8,1.12,1.18a23.49,23.49,0,0,0,3.44,2.79,31.61,31.61,0,0,1-6-12.23l-1.2-4.68c-.08-.27-.16-.55-.23-.83L56.77,240.21c-.08-.29-.14-.58-.21-.86l-1.17-4.58a30.34,30.34,0,0,1-.55-13.5C51.92,226.28,51.07,233.19,53,240.6Z" transform="translate(-30.66 -197.83)"/><path class="cls-11" d="M54.84,240.26,159.2,647c3.08,12,12.78,19.61,22,17.33a3.74,3.74,0,0,0,.45-.12l.06,0c.29-.08.59-.17.89-.28L300,621.8l.77-.31,0,0,.35-.16c7.42-3.6,11-14.94,8.18-25.86L214.46,225.59c-2.87-11.17-11.73-19.89-20.27-19.86h-.12c-.27,0-.53,0-.8,0L67.59,215.64c-.31,0-.6.05-.89.09h-.09C56.89,217.16,51.67,227.94,54.84,240.26Zm5-.46a22.55,22.55,0,0,1-.48-2.48c0-.23-.06-.45-.08-.68a16.73,16.73,0,0,1-.11-1.72c0-.26,0-.51,0-.77,0-.51,0-1,.1-1.51s.13-1,.22-1.44a14.16,14.16,0,0,1,.81-2.68l.27-.61a5.59,5.59,0,0,1,.3-.6c.21-.38.43-.75.67-1.11.12-.18.25-.36.38-.52s.2-.25.31-.37.11-.14.17-.2a8.86,8.86,0,0,1,.8-.82,8.1,8.1,0,0,1,1-.77,4.72,4.72,0,0,1,.52-.35,4.91,4.91,0,0,1,.5-.28l.65-.32a4.68,4.68,0,0,1,.45-.19l.1,0,.57-.18h0a3.11,3.11,0,0,1,.41-.11,1.87,1.87,0,0,1,.34-.08l.17,0,.39-.07.13,0h.12l.6-.06,125.57-10.31c.16,0,.32,0,.52,0h.26c6.23,0,12.69,6.4,14.79,14.56L305.45,596.8c2.06,8-.57,16.35-6,19l-.14.07-.07,0-.05,0,0,0-.29.12-.28.1L181,657.75l-.33.11-.16,0-.16,0-.06,0h-.06l-.08,0-.17,0a10.51,10.51,0,0,1-1.9.28,9.24,9.24,0,0,1-1.58-.05,6.66,6.66,0,0,1-.78-.11h0A7.08,7.08,0,0,1,175,658h0a10.86,10.86,0,0,1-1.52-.51,14.5,14.5,0,0,1-1.48-.73h0c-.39-.22-.77-.47-1.14-.73s-.82-.63-1.22-1l-.39-.35a19.51,19.51,0,0,1-5.31-9.36Z" transform="translate(-30.66 -197.83)"/><path class="cls-11" d="M176.87,220.34l0-.33v-.12Z" transform="translate(-30.66 -197.83)"/><path class="cls-11" d="M93.17,227.11a.54.54,0,0,1,.07.13l.22.32Z" transform="translate(-30.66 -197.83)"/><path class="cls-11" d="M88.46,220.16a3.17,3.17,0,0,1,2.72,2.31c0,.13.07.24.11.36.14.5.31,1,.5,1.48.07.17.13.33.21.49h0c.08.2.17.39.26.59l.26.52.06.13s0,.08.07.12a.37.37,0,0,0,0,.11l.1.17c0,.07.07.13.1.19s.18.32.27.47l.29.45,0,.06,0,0,.25.37.22.31a.76.76,0,0,0,.08.11l.11.15a1.84,1.84,0,0,0,.17.22.21.21,0,0,0,0,.06l.06.08.11.14.13.15a1.34,1.34,0,0,0,.11.14.17.17,0,0,0,.06.06,1,1,0,0,0,.13.16l.09.11.14.15,0,0s0,0,0,0,.1.11.15.17,0,0,.06.06a1,1,0,0,0,.17.18h0l.22.22a2.28,2.28,0,0,0,.22.22,0,0,0,0,0,0,0h0l.14.14.17.15a.93.93,0,0,0,.15.13l.28.25.22.18.13.11c.11.08.22.17.33.24a3.55,3.55,0,0,0,.31.23l.19.13a1.07,1.07,0,0,0,.22.15h0l.22.13a.23.23,0,0,0,.1.07l.35.21a1.64,1.64,0,0,0,.28.16,3.13,3.13,0,0,0,.36.19l.14.07h0l.26.13.23.1.21.09.11,0,.1,0h0l.53.2.5.15.54.13c.36.07.73.13,1.08.17l.45,0h.47l.43,0a.65.65,0,0,1,.14,0l65.4-6h.13l.38-.06.33-.07.08,0,.38-.1a6.54,6.54,0,0,0,.87-.34,3.17,3.17,0,0,0,.41-.21l.37-.22a4.44,4.44,0,0,0,.38-.27h0a.18.18,0,0,0,.07,0l.08-.06.14-.11c.05-.05.11-.09.15-.14a1.29,1.29,0,0,0,.17-.16h0l.09-.09a1.61,1.61,0,0,0,.22-.23,1.54,1.54,0,0,0,.17-.19l.21-.25.06-.08.12-.16h0l.12-.17s.07-.09.1-.15l.16-.26a2.61,2.61,0,0,0,.17-.28.75.75,0,0,1,.07-.12l.1-.2a2.24,2.24,0,0,0,.13-.27A.69.69,0,0,0,176,224c0-.05.05-.1.07-.16l.06-.14h0a.5.5,0,0,0,0-.13c.05-.12.09-.24.13-.36h0l.06-.19a.14.14,0,0,0,0-.07.84.84,0,0,0,.05-.17.05.05,0,0,0,0,0s0,0,0,0a.75.75,0,0,0,0-.16.36.36,0,0,0,0-.11,1,1,0,0,1,0-.17.64.64,0,0,0,0-.07l0-.14a.75.75,0,0,0,0-.16l0-.14s0-.06,0-.09a.13.13,0,0,0,0-.06.78.78,0,0,0,0-.22.41.41,0,0,0,0-.16s0-.07,0-.11,0-.21,0-.32,0-.25,0-.38,0,0,0,0v-.06l0-.45c0-.16,0-.31,0-.47v-.72c0-.17,0-.35,0-.52s0-.38,0-.58h0c0-.16,0-.32-.05-.49-.06-.47-.14-.94-.25-1.42,0-.11,0-.22-.08-.34-.23-1.3.31-2.37,1.27-2.51Z" transform="translate(-30.66 -197.83)"/><path class="cls-11" d="M170.7,228.39l-.38.06.21,0,.23,0,.25,0s0,0,0,0Z" transform="translate(-30.66 -197.83)"/><path class="cls-11" d="M103.85,234.45h.31a1,1,0,0,0,.25,0l.24,0-.43,0Z" transform="translate(-30.66 -197.83)"/><path class="cls-11" d="M176.92,219.42v0Z" transform="translate(-30.66 -197.83)"/><path class="cls-11" d="M176.87,220.34l0-.33v-.12Z" transform="translate(-30.66 -197.83)"/><path class="cls-11" d="M176.35,223a1,1,0,0,0,.07-.21.05.05,0,0,1,0,0A.84.84,0,0,1,176.35,223Z" transform="translate(-30.66 -197.83)"/><path class="cls-11" d="M176.13,223.59l.09-.22.05-.14h0C176.22,223.35,176.18,223.47,176.13,223.59Z" transform="translate(-30.66 -197.83)"/><path class="cls-11" d="M176,223.86a.42.42,0,0,0,.06-.14h0Z" transform="translate(-30.66 -197.83)"/><path class="cls-11" d="M175.25,225.3a1.53,1.53,0,0,0,.16-.25.86.86,0,0,0,.1-.16.54.54,0,0,0,.07-.13,2.61,2.61,0,0,1-.17.28Z" transform="translate(-30.66 -197.83)"/><path class="cls-11" d="M175.15,225.45l-.12.17,0,0Z" transform="translate(-30.66 -197.83)"/><path class="cls-11" d="M174.63,226.12l.13-.14h0l.07-.1Z" transform="translate(-30.66 -197.83)"/><path class="cls-11" d="M173.14,227.43l.32-.22.06-.05A4.44,4.44,0,0,1,173.14,227.43Z" transform="translate(-30.66 -197.83)"/><path class="cls-11" d="M172.77,227.65a3.17,3.17,0,0,1-.41.21l.28-.13.14-.07.17-.11.19-.12Z" transform="translate(-30.66 -197.83)"/><path class="cls-11" d="M171.49,228.2l-.38.1a1.89,1.89,0,0,0,.34-.09h0l.15,0,.3-.1.36-.16.06,0A6.54,6.54,0,0,1,171.49,228.2Z" transform="translate(-30.66 -197.83)"/><path class="cls-11" d="M170.7,228.39h.15l.16,0s0,0,0,0Z" transform="translate(-30.66 -197.83)"/><path class="cls-11" d="M104.79,234.43h.14l65.14-5.94.12,0Z" transform="translate(-30.66 -197.83)"/><path class="cls-11" d="M104.22,234.45h-.16a.34.34,0,0,0,.1,0Z" transform="translate(-30.66 -197.83)"/><path class="cls-11" d="M103.3,234.41c-.35,0-.72-.1-1.08-.17l.08,0,.46.08a2.35,2.35,0,0,0,.37,0l.18,0h0l.4,0Z" transform="translate(-30.66 -197.83)"/><path class="cls-11" d="M101.18,234l.26.08.24.07.18,0,.36.08-.54-.13Z" transform="translate(-30.66 -197.83)"/><path class="cls-11" d="M101.18,234l-.53-.2.09,0Z" transform="translate(-30.66 -197.83)"/><path class="cls-11" d="M98.92,232.93l-.35-.21.13.09h0A1.13,1.13,0,0,0,98.92,232.93Z" transform="translate(-30.66 -197.83)"/><path class="cls-11" d="M98,232.36l.15.12.07,0A1.07,1.07,0,0,1,98,232.36Z" transform="translate(-30.66 -197.83)"/><path class="cls-11" d="M97.2,231.76l.14.11.19.14a3,3,0,0,0,.31.22,3.55,3.55,0,0,1-.31-.23C97.42,231.93,97.31,231.84,97.2,231.76Z" transform="translate(-30.66 -197.83)"/><path class="cls-11" d="M96.11,230.8l.14.14-.14-.14Z" transform="translate(-30.66 -197.83)"/><path class="cls-11" d="M95.66,230.35a.71.71,0,0,0,.12.13l.1.09-.22-.22Z" transform="translate(-30.66 -197.83)"/><path class="cls-11" d="M95.24,229.91a1.8,1.8,0,0,0,.19.2c-.05-.06-.11-.11-.15-.17S95.25,229.92,95.24,229.91Z" transform="translate(-30.66 -197.83)"/><path class="cls-11" d="M93.17,227.11a.54.54,0,0,1,.07.13l.22.32Z" transform="translate(-30.66 -197.83)"/><path class="cls-11" d="M92.8,226.45l.09.18h0C92.87,226.58,92.83,226.52,92.8,226.45Z" transform="translate(-30.66 -197.83)"/><path class="cls-30" d="M161.25,647.3l1.2,4.68a31.61,31.61,0,0,0,6,12.23,16.56,16.56,0,0,0,13.19,2.57,5.62,5.62,0,0,0,.55-.15c.33-.09.66-.2,1-.32L300.6,624.07c.29-.1.57-.22.85-.34l.44-.2c.2-.09.4-.2.6-.31a17.69,17.69,0,0,0,7.55-9.3,34.7,34.7,0,0,0-.86-12.85l-1.28-5a25.34,25.34,0,0,1-.95,16,13.75,13.75,0,0,1-6.41,7.2l-.27.13,0,0h0c-.23.1-.46.2-.7.28L182,661.66l-.8.25-.06,0h0l-.37.1C172.71,664,164.24,657.59,161.25,647.3Z" transform="translate(-30.66 -197.83)"/><path class="cls-31" d="M52.94,240.48l0,0c-3.49-13.59,2.27-25.46,13-27h0c.34,0,.69-.09,1-.11l125.73-9.7c.3,0,.61,0,.91-.05h0a11.24,11.24,0,0,1,1.16,0,19.75,19.75,0,0,1,11.28,5.24,36.5,36.5,0,0,1,5.48,11.89l1.28,5a27.11,27.11,0,0,0-8.65-14,15.32,15.32,0,0,0-9.54-3.84h-.18l-.68,0L68.17,218c-.21,0-.45,0-.7.08h0l-.16,0c-8.5,1.25-13.15,10.47-10.77,21.17l-1.17-4.59a30.46,30.46,0,0,1-.56-13.49C51.89,226.15,51,233.07,52.94,240.48Z" transform="translate(-30.66 -197.83)"/><path class="cls-32" d="M310,613.8a31.28,31.28,0,0,0,.84-18.86L216,225.44a33.47,33.47,0,0,0-9.92-16.59,36.39,36.39,0,0,1,5.47,11.89L309.16,601A34.64,34.64,0,0,1,310,613.8Z" transform="translate(-30.66 -197.83)"/><path class="cls-33" d="M52.93,240.49,157.4,647.63a32.49,32.49,0,0,0,2.69,7,28.51,28.51,0,0,0,3.08,4.66l.72.85c.36.41.74.8,1.13,1.18a22.39,22.39,0,0,0,3.47,2.83l0,0a31.77,31.77,0,0,1-6.05-12.23L55.35,234.66a30.3,30.3,0,0,1-.55-13.49C51.88,226.17,51,233.09,52.93,240.49Z" transform="translate(-30.66 -197.83)"/><path class="cls-34" d="M126.21,221.63l18.33-1.55c.45,0,.7-.55.55-1.15l-.14-.55a1.22,1.22,0,0,0-1.1-1l-18.34,1.53c-.47,0-.72.55-.57,1.15l.15.56A1.22,1.22,0,0,0,126.21,221.63Z" transform="translate(-30.66 -197.83)"/><path class="cls-17" d="M59.84,239.8,163.91,645.34a19.51,19.51,0,0,0,5.31,9.36l.39.35c.4.35.81.68,1.22,1s.75.51,1.14.73h0a14.5,14.5,0,0,0,1.48.73A14.28,14.28,0,0,0,175,658h0l.77.17h0c.25.05.52.08.78.11a10.39,10.39,0,0,0,1.58.05,10.51,10.51,0,0,0,1.9-.28l.17,0h.08l.09,0h0l.18-.05.16,0,.33-.11,117.53-41.63.28-.1.29-.12h0l.07,0,0,0h0l.14-.07c5.45-2.62,8.08-10.95,6-19L210.3,226c-2.1-8.16-8.56-14.53-14.79-14.56h-.26c-.2,0-.36,0-.52,0l-17,1.4c-1,.14-1.5,1.21-1.27,2.51l.06.26v0a.06.06,0,0,1,0,0c.11.48.19.95.25,1.42,0,.17,0,.33.05.49h0c0,.2,0,.39,0,.58s0,.35,0,.52v.72c0,.16,0,.31,0,.47l0,.45v.06s0,0,0,0,0,.26,0,.38,0,.22,0,.32,0,.08,0,.11a.41.41,0,0,1,0,.16.78.78,0,0,1,0,.22.13.13,0,0,1,0,.06s0,.06,0,.09l0,.14a.75.75,0,0,1,0,.16l0,.14a.64.64,0,0,1,0,.07,1,1,0,0,0,0,.17.36.36,0,0,1,0,.11.75.75,0,0,1,0,.16s0,0,0,0a.05.05,0,0,1,0,0,.84.84,0,0,1-.05.17.14.14,0,0,1,0,.07l-.06.19h0a.57.57,0,0,1,0,.14l-.09.22a.5.5,0,0,1,0,.13h0l-.06.14c0,.06-.05.11-.07.16a.69.69,0,0,1-.07.15,2.24,2.24,0,0,1-.13.27l-.1.2a.75.75,0,0,0-.07.12.54.54,0,0,1-.07.13,1.3,1.3,0,0,1-.1.15h0a1.53,1.53,0,0,1-.16.25c0,.06-.07.1-.1.15l-.09.13,0,0h0l-.12.16-.06.08-.07.1h0l-.13.14a1.54,1.54,0,0,1-.17.19,1.61,1.61,0,0,1-.22.23l-.09.09h0a1.29,1.29,0,0,1-.17.16s-.1.09-.15.14l-.14.11s0,0-.08.06a.18.18,0,0,1-.07,0l-.06.05-.32.22-.19.12a1,1,0,0,1-.18.1h0l-.14.07-.28.13-.06,0-.36.16-.3.1-.15,0h0a1.89,1.89,0,0,1-.34.09l-.08,0s0,0,0,0l-.16,0h-.09l-.23,0a1.86,1.86,0,0,1-.34,0l-.12,0-65.14,5.94h-.14a2.36,2.36,0,0,1-.38,0,1,1,0,0,1-.25,0,.34.34,0,0,1-.1,0h-.31l-.4,0h0l-.17,0a2.35,2.35,0,0,1-.37,0l-.46-.08-.08,0-.36-.08-.18,0h0l-.24-.07-.26-.08-.44-.16-.1,0-.1,0-.11,0-.21-.09-.23-.1-.26-.13h0l-.14-.07a3.13,3.13,0,0,1-.36-.19,1.64,1.64,0,0,1-.28-.16,1.13,1.13,0,0,1-.21-.12h0l-.13-.09a.23.23,0,0,1-.1-.07l-.22-.13h0l-.07,0-.15-.12-.19-.13a3,3,0,0,1-.31-.22h0l-.19-.13-.14-.11-.13-.11-.22-.18-.28-.25a.93.93,0,0,1-.15-.13l-.17-.15-.14-.14h0a0,0,0,0,1,0,0,2.28,2.28,0,0,1-.22-.22l-.1-.09-.12-.13h0a1,1,0,0,1-.17-.18s0,0-.06-.06-.11-.11-.15-.17,0,0,0,0l0,0-.14-.15-.09-.11a1,1,0,0,1-.13-.16.17.17,0,0,1-.06-.06,1.34,1.34,0,0,1-.11-.14l-.13-.15-.11-.14-.06-.08a.21.21,0,0,1,0-.06,1.84,1.84,0,0,1-.17-.22l-.11-.15a.76.76,0,0,1-.08-.11l-.22-.31-.25-.37,0,0,0-.06-.29-.45c-.09-.15-.18-.3-.27-.47h0l-.09-.18-.1-.17a.37.37,0,0,1,0-.11s-.05-.09-.07-.12l-.06-.13-.26-.52c-.09-.2-.18-.39-.26-.59h0c-.08-.16-.14-.32-.21-.49-.19-.49-.36-1-.5-1.48a.08.08,0,0,1,0,0v0c0-.09-.05-.19-.08-.28a3.17,3.17,0,0,0-2.72-2.31l-19.3,1.59-.6.06H68.5l-.11,0h-.12l-.35.07-.17,0a1.87,1.87,0,0,0-.34.08,3.11,3.11,0,0,0-.41.11h0l-.57.18-.1,0a4.68,4.68,0,0,0-.45.19l-.65.32-.5.28c-.18.11-.36.23-.52.35a12.3,12.3,0,0,0-1,.77,10.32,10.32,0,0,0-.8.82c-.06.06-.11.13-.17.2s-.21.25-.31.37l-.38.52c-.24.36-.46.73-.67,1.11q-.16.3-.3.6l-.27.61a16.06,16.06,0,0,0-.81,2.68c-.09.46-.16,1-.22,1.44s-.09,1-.1,1.51c0,.26,0,.51,0,.77a16.73,16.73,0,0,0,.11,1.72c0,.22,0,.45.08.68A22.55,22.55,0,0,0,59.84,239.8Z" transform="translate(-30.66 -197.83)"/><path class="cls-35" d="M279.49,260.8l-86.23,29.38c-3.95,1.35-6.32,6.57-5.26,11.6L195.82,339c1.06,5,5.15,8.05,9.11,6.7l86.22-29.38c4-1.35,6.32-6.57,5.26-11.6L288.6,267.5C287.54,262.47,283.44,259.45,279.49,260.8Z" transform="translate(-30.66 -197.83)"/><polygon class="cls-35" points="148.77 97.06 166.41 91.05 161.36 106.32 148.77 97.06"/><ellipse class="cls-36" cx="216.9" cy="116.77" rx="6.64" ry="8.45"/><path class="cls-37" d="M245.36,313.31c.18.84-.64-.33-1.3-.11s-.91,1.77-1.09.92a1.65,1.65,0,0,1,.88-1.92C244.51,312,245.19,312.47,245.36,313.31Z" transform="translate(-30.66 -197.83)"/><path class="cls-37" d="M251.36,311.27c.17.84-.65-.34-1.31-.11s-.91,1.76-1.08.92a1.65,1.65,0,0,1,.87-1.93C250.5,309.93,251.18,310.43,251.36,311.27Z" transform="translate(-30.66 -197.83)"/><path class="cls-37" d="M248.26,317.91a4.55,4.55,0,0,1-4.24-.71.27.27,0,0,1-.07-.32.16.16,0,0,1,.25-.08c2.5,1.84,5.7.74,7.14-2.43a.17.17,0,0,1,.25-.09.27.27,0,0,1,.07.32A6,6,0,0,1,248.26,317.91Z" transform="translate(-30.66 -197.83)"/><polygon class="cls-38" points="245.66 80.7 167.65 107.28 167.06 104.49 245.07 77.91 245.66 80.7"/><polygon class="cls-38" points="247.89 91.34 169.89 117.93 169.3 115.13 247.31 88.55 247.89 91.34"/><polygon class="cls-38" points="203.49 119.99 172.54 130.54 171.95 127.74 202.9 117.19 203.49 119.99"/><path class="cls-38" d="M136.23,265.42l-13.83,4.71-3.81,1.3L36.18,299.51c-4,1.35-6.32,6.57-5.27,11.6l4.51,21.42c1.06,5,5.15,8,9.11,6.7l86.22-29.39c3.95-1.34,6.32-6.56,5.26-11.59l-4.5-21.42c0-.22-.11-.44-.16-.65Z" transform="translate(-30.66 -197.83)"/><polygon class="cls-17" points="89.36 88.35 11.36 114.94 10.77 112.14 88.78 85.56 89.36 88.35"/><polygon class="cls-17" points="60.65 109.55 13.6 125.58 13.01 122.78 60.06 106.75 60.65 109.55"/><ellipse class="cls-35" cx="140.34" cy="121.78" rx="13.5" ry="17.18"/><path class="cls-39" d="M176.39,327.06l-6.93,2.36a.31.31,0,0,0-.17.38l.35,1.68c0,.16.17.26.3.22l6.93-2.36A.33.33,0,0,0,177,329l-.35-1.67C176.65,327.11,176.52,327,176.39,327.06Z" transform="translate(-30.66 -197.83)"/><path class="cls-40" d="M176.6,311.74l-13.33,4.55a2.17,2.17,0,0,0-1.16,2.54l2.23,10.62c.24,1.11,1.13,1.77,2,1.47l13.34-4.55a2.16,2.16,0,0,0,1.15-2.54l-2.23-10.62A1.64,1.64,0,0,0,176.6,311.74Z" transform="translate(-30.66 -197.83)"/><path class="cls-41" d="M170,319.72a2.65,2.65,0,0,1-1.4,3.1c-1.06.36-2.15-.44-2.43-1.79a2.65,2.65,0,0,1,1.4-3.1C168.64,317.57,169.73,318.37,170,319.72Z" transform="translate(-30.66 -197.83)"/><path class="cls-42" d="M169.44,319.92a1.84,1.84,0,0,1-1,2.16c-.74.26-1.5-.3-1.7-1.25a1.86,1.86,0,0,1,1-2.17C168.48,318.41,169.24,319,169.44,319.92Z" transform="translate(-30.66 -197.83)"/><ellipse class="cls-39" cx="143.36" cy="120.52" rx="1.99" ry="2.53"/><path class="cls-42" d="M175.36,317.9a1.85,1.85,0,0,1-1,2.16c-.74.26-1.5-.3-1.7-1.25a1.85,1.85,0,0,1,1-2.16C174.4,316.39,175.17,317,175.36,317.9Z" transform="translate(-30.66 -197.83)"/><path class="cls-40" d="M170,310.2l-1.61.55a2.73,2.73,0,0,0-1.44,3.19l.73,3.48,5.56-1.89L172.5,312C172.21,310.65,171.09,309.83,170,310.2Z" transform="translate(-30.66 -197.83)"/><polygon class="cls-40" points="138.25 109.85 138.91 113 138.34 113.19 137.68 110.05 138.25 109.85"/><path class="cls-39" d="M180.79,316.42,179,317l.73,3.48,1.78-.61a1.21,1.21,0,0,0,.63-1.4l-.27-1.27A.9.9,0,0,0,180.79,316.42Z" transform="translate(-30.66 -197.83)"/><path class="cls-39" d="M162.2,326.49l1.78-.61-.74-3.48-1.77.61a1.19,1.19,0,0,0-.63,1.4l.26,1.27C161.23,326.29,161.72,326.65,162.2,326.49Z" transform="translate(-30.66 -197.83)"/><path class="cls-39" d="M168.4,306.64c.37-.13.74.15.84.61a.93.93,0,0,1-.48,1.07c-.37.12-.74-.16-.84-.62A.91.91,0,0,1,168.4,306.64Z" transform="translate(-30.66 -197.83)"/><path class="cls-43" d="M169.05,324.17c.45,1.85,2,2.94,3.43,2.43s2.36-2.41,2-4.29Z" transform="translate(-30.66 -197.83)"/><path class="cls-35" d="M299.21,354.59,213,384c-3.95,1.35-6.32,6.56-5.26,11.6l5.5,26.15c1.06,5,5.16,8,9.11,6.69L308.55,399c3.95-1.35,6.32-6.56,5.26-11.6l-5.49-26.14C307.26,356.25,303.16,353.24,299.21,354.59Z" transform="translate(-30.66 -197.83)"/><polygon class="cls-35" points="168.49 190.85 186.13 184.84 181.08 200.1 168.49 190.85"/><polygon class="cls-38" points="265.71 176.06 187.7 202.65 187.12 199.85 265.12 173.27 265.71 176.06"/><polygon class="cls-38" points="218.42 203.59 189.94 213.29 189.35 210.49 217.83 200.79 218.42 203.59"/><ellipse class="cls-35" cx="160.06" cy="215.57" rx="13.5" ry="17.18"/><path class="cls-39" d="M196.11,420.84l-6.93,2.36a.33.33,0,0,0-.17.38l.35,1.68c0,.17.17.27.3.22l6.93-2.36a.31.31,0,0,0,.17-.38l-.35-1.68C196.37,420.9,196.24,420.8,196.11,420.84Z" transform="translate(-30.66 -197.83)"/><path class="cls-40" d="M196.32,405.53,183,410.07a2.2,2.2,0,0,0-1.16,2.55l2.23,10.62c.24,1.1,1.13,1.76,2,1.47l13.34-4.55a2.18,2.18,0,0,0,1.15-2.54L198.32,407C198.09,405.89,197.19,405.23,196.32,405.53Z" transform="translate(-30.66 -197.83)"/><path class="cls-41" d="M189.73,413.51a2.64,2.64,0,0,1-1.4,3.09c-1.06.36-2.15-.44-2.43-1.79a2.64,2.64,0,0,1,1.4-3.09C188.36,411.36,189.45,412.16,189.73,413.51Z" transform="translate(-30.66 -197.83)"/><path class="cls-42" d="M189.16,413.7a1.86,1.86,0,0,1-1,2.17c-.75.25-1.51-.31-1.71-1.25a1.87,1.87,0,0,1,1-2.17C188.2,412.2,189,412.76,189.16,413.7Z" transform="translate(-30.66 -197.83)"/><ellipse class="cls-39" cx="163.08" cy="214.31" rx="1.99" ry="2.53"/><path class="cls-42" d="M195.09,411.68a1.87,1.87,0,0,1-1,2.17c-.74.25-1.5-.31-1.7-1.25a1.86,1.86,0,0,1,1-2.17A1.4,1.4,0,0,1,195.09,411.68Z" transform="translate(-30.66 -197.83)"/><path class="cls-40" d="M189.72,404l-1.62.54a2.74,2.74,0,0,0-1.44,3.19l.73,3.49,5.56-1.9-.73-3.48C191.93,404.44,190.81,403.61,189.72,404Z" transform="translate(-30.66 -197.83)"/><polygon class="cls-40" points="157.97 203.64 158.63 206.78 158.06 206.97 157.4 203.83 157.97 203.64"/><path class="cls-39" d="M200.51,410.21l-1.77.6.73,3.48,1.78-.6a1.19,1.19,0,0,0,.63-1.4l-.27-1.27A.9.9,0,0,0,200.51,410.21Z" transform="translate(-30.66 -197.83)"/><path class="cls-39" d="M181.92,420.27l1.78-.6-.74-3.48-1.77.6a1.2,1.2,0,0,0-.63,1.4l.26,1.27C181,420.07,181.44,420.44,181.92,420.27Z" transform="translate(-30.66 -197.83)"/><path class="cls-39" d="M188.12,400.42c.37-.12.74.15.84.62a.91.91,0,0,1-.48,1.06c-.37.13-.74-.15-.84-.61A.92.92,0,0,1,188.12,400.42Z" transform="translate(-30.66 -197.83)"/><path class="cls-43" d="M188.78,418c.44,1.85,1.95,2.94,3.42,2.44s2.36-2.41,2-4.29Z" transform="translate(-30.66 -197.83)"/><ellipse class="cls-38" cx="118.15" cy="83.18" rx="12.65" ry="16.1"/><g class="cls-44"><path class="cls-39" d="M154.38,276.64c.89,4.26-1.09,8.64-4.44,9.78s-6.78-1.39-7.67-5.65,1.09-8.63,4.43-9.77S153.48,272.38,154.38,276.64Z" transform="translate(-30.66 -197.83)"/><path class="cls-36" d="M151.34,288.27l-1.88.65c-3.5,1.19-5.58,5.77-4.64,10.22l1.19,5.64,14.55-5-1.18-5.64C158.44,289.73,154.84,287.08,151.34,288.27Z" transform="translate(-30.66 -197.83)"/><path class="cls-45" d="M150.93,273.26c-3.63,3.7-7,2.39-7,2.39.76,1.39,1.42,3.94.25,8.16l-.14.07c.74,3.52,3.58,5.6,6.35,4.66h0c2.76-.94,4.41-4.56,3.68-8.08l-.15,0C151.24,277.58,150.82,275,150.93,273.26Z" transform="translate(-30.66 -197.83)"/><path class="cls-45" d="M147.72,285.8l1.15,5.46c.29,1.37,1.4,2.18,2.47,1.82a2.71,2.71,0,0,0,1.43-3.16l-1.14-5.45Z" transform="translate(-30.66 -197.83)"/><path class="cls-17" d="M147.83,284.76a1.68,1.68,0,0,0,2,1.37,2.27,2.27,0,0,0,1.25-2.49Z" transform="translate(-30.66 -197.83)"/><path class="cls-45" d="M145.37,283a2,2,0,0,1-1.08,2.37c-.81.27-1.64-.34-1.86-1.37a2,2,0,0,1,1.08-2.37C144.32,281.33,145.15,281.94,145.37,283Z" transform="translate(-30.66 -197.83)"/><path class="cls-45" d="M155.49,279.52a2,2,0,0,1-1.07,2.37,1.52,1.52,0,0,1-1.86-1.37,2,2,0,0,1,1.07-2.37C154.44,277.88,155.27,278.49,155.49,279.52Z" transform="translate(-30.66 -197.83)"/></g><path class="cls-38" d="M155.45,356.84l-13.83,4.71-3.81,1.3L55.4,390.93c-3.95,1.35-6.32,6.57-5.26,11.6L54.64,424c1.06,5,5.16,8.05,9.11,6.7L150,401.27c4-1.35,6.32-6.57,5.26-11.6l-4.51-21.42c0-.22-.1-.43-.16-.65Z" transform="translate(-30.66 -197.83)"/><polygon class="cls-17" points="108.92 181.35 30.91 207.93 30.33 205.14 108.33 178.56 108.92 181.35"/><polygon class="cls-17" points="80.2 202.54 33.15 218.58 32.56 215.78 79.61 199.75 80.2 202.54"/><ellipse class="cls-38" cx="137.37" cy="174.61" rx="12.65" ry="16.1"/><g class="cls-46"><path class="cls-39" d="M173.6,368.06c.9,4.26-1.09,8.64-4.43,9.78s-6.79-1.39-7.68-5.65,1.09-8.63,4.43-9.77S172.71,363.81,173.6,368.06Z" transform="translate(-30.66 -197.83)"/><path class="cls-36" d="M170.57,379.7l-1.89.64c-3.5,1.19-5.57,5.77-4.64,10.22l1.19,5.64,14.56-5-1.19-5.64C177.66,381.15,174.07,378.5,170.57,379.7Z" transform="translate(-30.66 -197.83)"/><path class="cls-45" d="M170.15,364.68c-3.63,3.7-7,2.39-7,2.39.76,1.4,1.42,3.95.25,8.16l-.14.07c.75,3.52,3.59,5.6,6.35,4.66h0c2.77-.94,4.41-4.55,3.68-8.07l-.15,0C170.47,369,170,366.38,170.15,364.68Z" transform="translate(-30.66 -197.83)"/><path class="cls-45" d="M167,377.22l1.14,5.46c.29,1.37,1.4,2.18,2.48,1.82a2.7,2.7,0,0,0,1.43-3.15l-1.15-5.46Z" transform="translate(-30.66 -197.83)"/><path class="cls-17" d="M167.05,376.18a1.67,1.67,0,0,0,2.06,1.37,2.27,2.27,0,0,0,1.24-2.49Z" transform="translate(-30.66 -197.83)"/><path class="cls-45" d="M164.59,374.39a2,2,0,0,1-1.08,2.37c-.81.28-1.64-.34-1.85-1.37a2,2,0,0,1,1.07-2.37C163.54,372.75,164.37,373.36,164.59,374.39Z" transform="translate(-30.66 -197.83)"/><path class="cls-45" d="M174.71,370.94a2,2,0,0,1-1.07,2.37c-.81.27-1.64-.34-1.86-1.37a2,2,0,0,1,1.08-2.37C173.67,369.3,174.5,369.91,174.71,370.94Z" transform="translate(-30.66 -197.83)"/></g><path class="cls-35" d="M332.29,444.72,246.06,474.1c-3.95,1.35-6.32,6.56-5.26,11.6l7.82,37.18c1.06,5,5.16,8,9.11,6.7L344,500.2c4-1.35,6.32-6.57,5.27-11.6l-7.82-37.19C340.34,446.38,336.24,443.37,332.29,444.72Z" transform="translate(-30.66 -197.83)"/><polygon class="cls-35" points="201.57 280.98 219.21 274.97 214.16 290.24 201.57 280.98"/><ellipse class="cls-36" cx="269.71" cy="300.68" rx="6.64" ry="8.45"/><path class="cls-37" d="M298.17,497.23c.17.84-.65-.34-1.31-.11s-.91,1.76-1.08.92a1.65,1.65,0,0,1,.87-1.93C297.31,495.89,298,496.39,298.17,497.23Z" transform="translate(-30.66 -197.83)"/><path class="cls-37" d="M304.16,495.18c.18.84-.65-.33-1.31-.11s-.9,1.77-1.08.93a1.65,1.65,0,0,1,.87-1.93C303.3,493.85,304,494.34,304.16,495.18Z" transform="translate(-30.66 -197.83)"/><path class="cls-37" d="M301.06,501.82a4.55,4.55,0,0,1-4.24-.71.27.27,0,0,1-.06-.31c.05-.11.16-.15.24-.08,2.5,1.83,5.7.74,7.15-2.44.05-.11.16-.15.24-.08a.26.26,0,0,1,.07.31A5.94,5.94,0,0,1,301.06,501.82Z" transform="translate(-30.66 -197.83)"/><polygon class="cls-38" points="298.46 264.62 220.45 291.2 219.87 288.4 297.87 261.82 298.46 264.62"/><polygon class="cls-38" points="300.69 275.26 222.69 301.84 222.1 299.05 300.11 272.47 300.69 275.26"/><polygon class="cls-38" points="256.29 303.9 225.34 314.45 224.75 311.66 255.71 301.11 256.29 303.9"/><path class="cls-38" d="M189,449.33l-13.83,4.72-3.81,1.29L89,483.43c-4,1.35-6.32,6.56-5.26,11.59l4.5,21.43c1.06,5,5.16,8,9.11,6.69l86.22-29.38c4-1.35,6.32-6.56,5.27-11.6l-4.51-21.42c0-.22-.1-.43-.16-.64Z" transform="translate(-30.66 -197.83)"/><polygon class="cls-17" points="142.17 272.27 64.16 298.85 63.58 296.06 141.58 269.47 142.17 272.27"/><polygon class="cls-17" points="113.45 293.46 66.4 309.5 65.81 306.7 112.86 290.67 113.45 293.46"/><ellipse class="cls-35" cx="193.14" cy="305.7" rx="13.5" ry="17.18"/><path class="cls-39" d="M229.19,511l-6.93,2.36a.33.33,0,0,0-.17.38l.35,1.68c0,.17.17.27.3.22l6.93-2.36a.31.31,0,0,0,.17-.38l-.35-1.68A.25.25,0,0,0,229.19,511Z" transform="translate(-30.66 -197.83)"/><path class="cls-40" d="M229.4,495.66l-13.33,4.54a2.2,2.2,0,0,0-1.16,2.55l2.24,10.61c.23,1.11,1.12,1.77,2,1.48l13.34-4.55a2.19,2.19,0,0,0,1.16-2.54l-2.24-10.62C231.17,496,230.28,495.36,229.4,495.66Z" transform="translate(-30.66 -197.83)"/><path class="cls-41" d="M222.82,503.64a2.65,2.65,0,0,1-1.41,3.09c-1.06.36-2.15-.44-2.43-1.79a2.65,2.65,0,0,1,1.4-3.09C221.44,501.49,222.53,502.29,222.82,503.64Z" transform="translate(-30.66 -197.83)"/><path class="cls-42" d="M222.24,503.83a1.86,1.86,0,0,1-1,2.17,1.39,1.39,0,0,1-1.7-1.25,1.86,1.86,0,0,1,1-2.17C221.28,502.33,222,502.89,222.24,503.83Z" transform="translate(-30.66 -197.83)"/><ellipse class="cls-39" cx="196.16" cy="304.44" rx="1.99" ry="2.53"/><path class="cls-42" d="M228.17,501.81a1.85,1.85,0,0,1-1,2.17c-.74.25-1.5-.31-1.7-1.25a1.85,1.85,0,0,1,1-2.17C227.21,500.31,228,500.87,228.17,501.81Z" transform="translate(-30.66 -197.83)"/><path class="cls-40" d="M222.8,494.12l-1.61.54a2.75,2.75,0,0,0-1.45,3.19l.73,3.49,5.56-1.9L225.3,496C225,494.57,223.89,493.74,222.8,494.12Z" transform="translate(-30.66 -197.83)"/><polygon class="cls-40" points="191.05 293.77 191.71 296.91 191.14 297.1 190.48 293.96 191.05 293.77"/><path class="cls-39" d="M233.6,500.34l-1.78.6.74,3.48,1.77-.6a1.19,1.19,0,0,0,.63-1.4l-.26-1.27C234.57,500.54,234.08,500.17,233.6,500.34Z" transform="translate(-30.66 -197.83)"/><path class="cls-39" d="M215,510.4l1.77-.6-.73-3.48-1.78.6a1.2,1.2,0,0,0-.63,1.4l.27,1.27C214,510.2,214.53,510.57,215,510.4Z" transform="translate(-30.66 -197.83)"/><path class="cls-39" d="M221.21,490.55c.36-.12.73.15.83.62a.91.91,0,0,1-.48,1.06c-.37.13-.74-.15-.84-.61A.93.93,0,0,1,221.21,490.55Z" transform="translate(-30.66 -197.83)"/><path class="cls-43" d="M221.86,508.08c.44,1.85,1.95,2.94,3.43,2.44s2.36-2.41,2-4.29Z" transform="translate(-30.66 -197.83)"/><ellipse class="cls-38" cx="170.95" cy="267.1" rx="12.65" ry="16.1"/><g class="cls-47"><path class="cls-39" d="M207.18,460.56c.9,4.26-1.09,8.63-4.43,9.77s-6.79-1.39-7.68-5.64,1.09-8.64,4.43-9.78S206.29,456.3,207.18,460.56Z" transform="translate(-30.66 -197.83)"/><path class="cls-36" d="M204.15,472.19l-1.89.64c-3.5,1.2-5.57,5.77-4.64,10.23l1.19,5.64,14.55-5-1.18-5.64C211.24,473.64,207.65,471,204.15,472.19Z" transform="translate(-30.66 -197.83)"/><path class="cls-45" d="M203.73,457.18c-3.63,3.7-7,2.38-7,2.38.76,1.4,1.42,3.95.25,8.17l-.14.07c.75,3.51,3.59,5.6,6.35,4.65h0c2.77-.94,4.41-4.55,3.68-8.07l-.15,0C204.05,461.5,203.62,458.87,203.73,457.18Z" transform="translate(-30.66 -197.83)"/><path class="cls-45" d="M200.52,469.72l1.15,5.45c.29,1.37,1.4,2.19,2.48,1.82a2.73,2.73,0,0,0,1.43-3.15l-1.15-5.45Z" transform="translate(-30.66 -197.83)"/><path class="cls-17" d="M200.63,468.68a1.67,1.67,0,0,0,2.06,1.36,2.26,2.26,0,0,0,1.24-2.49Z" transform="translate(-30.66 -197.83)"/><path class="cls-45" d="M198.17,466.89a2,2,0,0,1-1.08,2.36c-.81.28-1.64-.33-1.86-1.36a2,2,0,0,1,1.08-2.37C197.12,465.24,198,465.85,198.17,466.89Z" transform="translate(-30.66 -197.83)"/><path class="cls-45" d="M208.29,463.44a2,2,0,0,1-1.07,2.36c-.81.28-1.64-.33-1.86-1.36a2,2,0,0,1,1.07-2.37C207.24,461.79,208.08,462.4,208.29,463.44Z" transform="translate(-30.66 -197.83)"/></g></svg>