<svg width="68" height="69" viewBox="0 0 68 69" fill="none" xmlns="http://www.w3.org/2000/svg">
<circle cx="34" cy="34.5" r="34" fill="#0771ED"/>
<rect width="38.8571" height="38.8571" transform="translate(14.5714 15.0714)" fill="#0771ED"/>
<path d="M50.1905 51.9048H17.8095C17.1457 51.9048 16.5952 51.3543 16.5952 50.6905C16.5952 50.0267 17.1457 49.4762 17.8095 49.4762H50.1905C50.8543 49.4762 51.4047 50.0267 51.4047 50.6905C51.4047 51.3543 50.8543 51.9048 50.1905 51.9048Z" fill="white"/>
<path d="M37.6428 51.9048H30.3571C29.6933 51.9048 29.1428 51.3543 29.1428 50.6905V21.5476C29.1428 18.7628 30.6809 17.0952 33.2714 17.0952H34.7285C37.319 17.0952 38.8571 18.7628 38.8571 21.5476V50.6905C38.8571 51.3543 38.3066 51.9048 37.6428 51.9048ZM31.5714 49.4762H36.4285V21.5476C36.4285 19.6857 35.5543 19.5238 34.7285 19.5238H33.2714C32.4457 19.5238 31.5714 19.6857 31.5714 21.5476V49.4762Z" fill="white"/>
<path d="M25.9047 51.9048H19.4285C18.7647 51.9048 18.2142 51.3543 18.2142 50.6905V31.2619C18.2142 28.4771 19.639 26.8095 22.019 26.8095H23.3142C25.6942 26.8095 27.119 28.4771 27.119 31.2619V50.6905C27.119 51.3543 26.5685 51.9048 25.9047 51.9048ZM20.6428 49.4762H24.6904V31.2619C24.6904 29.2381 23.7999 29.2381 23.3142 29.2381H22.019C21.5333 29.2381 20.6428 29.2381 20.6428 31.2619V49.4762Z" fill="white"/>
<path d="M48.5715 51.9048H42.0953C41.4315 51.9048 40.881 51.3543 40.881 50.6905V39.3571C40.881 36.5724 42.3057 34.9048 44.6857 34.9048H45.981C48.361 34.9048 49.7857 36.5724 49.7857 39.3571V50.6905C49.7857 51.3543 49.2353 51.9048 48.5715 51.9048ZM43.3096 49.4762H47.3572V39.3571C47.3572 37.3333 46.4667 37.3333 45.981 37.3333H44.6857C44.2 37.3333 43.3096 37.3333 43.3096 39.3571V49.4762Z" fill="white"/>
</svg>
