<svg width="68" height="69" viewBox="0 0 68 69" fill="none" xmlns="http://www.w3.org/2000/svg">
<circle cx="34" cy="34.5" r="34" fill="#ED8307"/>
<path d="M41.0669 52.2834C40.3502 52.2834 39.4502 52.0667 38.3335 51.4L34.6002 49.1834C34.3168 49.0167 33.6836 49.0167 33.4002 49.1834L29.6669 51.4C27.3002 52.8 25.8669 52.2167 25.2335 51.75C24.6002 51.2834 23.6002 50.0834 24.2169 47.4167L25.1002 43.5667C25.1669 43.2667 25.0002 42.7 24.7835 42.4667L21.6835 39.3667C20.0168 37.7 20.1502 36.25 20.3835 35.5167C20.6168 34.7834 21.3502 33.5333 23.6668 33.1333L27.6502 32.4667C27.9335 32.4167 28.3836 32.0833 28.5002 31.8333L30.7002 27.4333C31.7835 25.2833 33.2169 24.95 33.9835 24.95C34.7502 24.95 36.1835 25.2667 37.2669 27.4333L39.4669 31.8333C39.6002 32.0833 40.0502 32.4167 40.3169 32.4667L44.3002 33.1333C46.6169 33.5167 47.3502 34.7834 47.5835 35.5167C47.8169 36.25 47.9502 37.7 46.2835 39.3667L43.1836 42.4667C42.9669 42.6834 42.8002 43.2667 42.8669 43.5667L43.7502 47.4C44.3669 50.0834 43.3835 51.2667 42.7335 51.7333C42.4335 52 41.8669 52.2834 41.0669 52.2834ZM34.0002 46.5667C34.6669 46.5667 35.3335 46.7167 35.8669 47.0334L39.6002 49.25C40.5835 49.8334 41.1669 49.8334 41.2835 49.7334C41.4169 49.6334 41.5835 49.0833 41.3335 47.9833L40.4502 44.15C40.1835 43.0167 40.6169 41.55 41.4335 40.7334L44.5335 37.6334C45.1502 37.0167 45.2836 36.5333 45.2169 36.3167C45.1502 36.1 44.7669 35.7834 43.9002 35.65L39.9168 34.9833C38.8502 34.8 37.7169 33.9667 37.2335 33L35.0335 28.6C34.6502 27.85 34.2335 27.5 33.9835 27.5C33.7335 27.5 33.3168 27.8334 32.9335 28.6L30.7335 33C30.2502 33.9667 29.1169 34.8 28.0502 34.9833L24.0669 35.65C23.2002 35.8 22.8169 36.1 22.7502 36.3167C22.6835 36.5333 22.8169 37.0167 23.4335 37.6334L26.5335 40.7334C27.3502 41.55 27.7835 43.0333 27.5168 44.15L26.6335 48C26.3835 49.1167 26.5502 49.6667 26.6835 49.75C26.8168 49.85 27.4002 49.85 28.3669 49.2667L32.1002 47.05C32.6668 46.7334 33.3335 46.5667 34.0002 46.5667Z" fill="white"/>
<path d="M24 30.75C23.3167 30.75 22.75 30.1833 22.75 29.5V17.8333C22.75 17.15 23.3167 16.5833 24 16.5833C24.6833 16.5833 25.25 17.15 25.25 17.8333V29.5C25.25 30.1833 24.6833 30.75 24 30.75Z" fill="white"/>
<path d="M44 30.75C43.3167 30.75 42.75 30.1833 42.75 29.5V17.8333C42.75 17.15 43.3167 16.5833 44 16.5833C44.6833 16.5833 45.25 17.15 45.25 17.8333V29.5C45.25 30.1833 44.6833 30.75 44 30.75Z" fill="white"/>
<path d="M34 22.4167C33.3167 22.4167 32.75 21.85 32.75 21.1667V17.8333C32.75 17.15 33.3167 16.5833 34 16.5833C34.6833 16.5833 35.25 17.15 35.25 17.8333V21.1667C35.25 21.85 34.6833 22.4167 34 22.4167Z" fill="white"/>
</svg>
