<?xml version="1.0" encoding="UTF-8"?>
<svg xmlns="http://www.w3.org/2000/svg" version="1.1" viewBox="0 0 639.29 538.1">
  <defs>
    <style>
      .cls-1 {
        fill: rgb(209 213 219);
        stroke-width: 0px;
      }

      .cls-2 {
        display: none;
      }
    </style>
  </defs>
  <g id="Layer_1" data-name="Layer 1" class="cls-2">
    <path class="cls-1"
      d="M323.32,240.95c9.95-13.43,20.44-25.49,28.98-35.03,41.65-46.56,91.98-83.79,147.88-111.48,1.67-.83,2.38-2.15,2.43-3.52,3.87.03,7.73.07,11.6.1-13.47,18.95-26.33,38.39-37.6,58.72-2.93,5.29,4.97,9.9,8.1,4.73,13.56-22.39,27.32-44.44,42.6-65.71,2.14-2.98-.75-7.1-4.07-7.09v.02c-33.47.16-67.02.03-100.47,1.29-4.09.15-4.09,6.18,0,6.35,21.14.9,42.32,1.23,63.49,1.44-61.75,31.59-116.55,76.38-159.57,130.84-5.09,6.44-10.6,13.95-15.99,22.12-10.32,2.71-20.4,6.43-30.03,10.97-69.04,32.49-118.13,103.61-132.64,177.42-.36,1.82,2.33,2.61,2.81.77,13.97-53.5,41.51-102.55,83.27-139.3,18.73-16.48,44.13-32.31,71.05-41.1l18.16-11.54ZM317.57,249" />
  </g>
  <g id="Layer_2" data-name="Layer 2">
    <path class="cls-1"
      d="M508.86,88.21c-63.47,24.4-123.31,57.79-177.5,98.86-54.19,41.07-102.66,89.49-143.64,143.76-23.21,30.73-43.91,63.31-61.87,97.37-1.8,3.41,3.38,6.45,5.18,3.03,31.47-59.7,71.44-114.72,118.26-163.32,46.81-48.58,100.27-90.69,158.57-124.65,32.82-19.12,67.14-35.62,102.6-49.25,3.57-1.37,2.02-7.17-1.6-5.79Z" />
    <path class="cls-1"
      d="M516.09,83.65c-18.28.48-36.56.95-54.84,1.43-3.85.1-3.87,6.1,0,6,16.59-.43,33.17-.86,49.76-1.3-8.97,16.74-17.95,33.47-26.92,50.21-1.82,3.4,3.35,6.44,5.18,3.03,9.8-18.28,19.61-36.57,29.41-54.85,1.04-1.94-.24-4.58-2.59-4.51Z" />
  </g>
</svg>