<svg width="75" height="75" viewBox="0 0 75 75" fill="none" xmlns="http://www.w3.org/2000/svg">
<g clip-path="url(#clip0_534_780)">
<rect width="75" height="75" rx="37.5" fill="white"/>
<rect x="44" y="9" width="5" height="9" rx="2.5" fill="#01172F"/>
<rect x="23" y="9" width="5" height="9" rx="2.5" fill="#01172F"/>
<rect x="10" y="16" width="54" height="39" rx="19.5" fill="url(#paint0_linear_534_780)"/>
<g filter="url(#filter0_d_534_780)">
<path d="M56.6577 39.5C57.399 39.5 58.0134 38.8931 57.8647 38.1668C57.5589 36.673 56.7437 35.2849 55.5104 34.1967C53.9163 32.7902 51.7543 32 49.5 32C47.2457 32 45.0837 32.7902 43.4896 34.1967C42.2563 35.2849 41.4411 36.673 41.1353 38.1668C40.9867 38.8931 41.601 39.5 42.3423 39.5V39.5C43.0836 39.5 43.6665 38.8866 43.8812 38.177C44.1427 37.3125 44.6583 36.5153 45.3879 35.8716C46.4785 34.9093 47.9577 34.3687 49.5 34.3687C51.0423 34.3687 52.5215 34.9093 53.6121 35.8716C54.3417 36.5153 54.8573 37.3125 55.1188 38.177C55.3335 38.8866 55.9164 39.5 56.6577 39.5V39.5Z" fill="#01172F"/>
</g>
<g filter="url(#filter1_d_534_780)">
<path d="M31.6577 39.5C32.399 39.5 33.0134 38.8931 32.8647 38.1668C32.5589 36.673 31.7437 35.2849 30.5104 34.1967C28.9163 32.7902 26.7543 32 24.5 32C22.2457 32 20.0837 32.7902 18.4896 34.1967C17.2563 35.2849 16.4411 36.673 16.1353 38.1668C15.9867 38.8931 16.601 39.5 17.3423 39.5V39.5C18.0836 39.5 18.6665 38.8866 18.8812 38.177C19.1427 37.3125 19.6583 36.5153 20.3879 35.8716C21.4785 34.9093 22.9577 34.3687 24.5 34.3687C26.0423 34.3687 27.5215 34.9093 28.6121 35.8716C29.3417 36.5153 29.8573 37.3125 30.1188 38.177C30.3335 38.8866 30.9164 39.5 31.6577 39.5V39.5Z" fill="#01172F"/>
</g>
<circle cx="37" cy="72" r="12" fill="url(#paint1_linear_534_780)"/>
</g>
<defs>
<filter id="filter0_d_534_780" x="41.1128" y="32" width="19.7744" height="10.5" filterUnits="userSpaceOnUse" color-interpolation-filters="sRGB">
<feFlood flood-opacity="0" result="BackgroundImageFix"/>
<feColorMatrix in="SourceAlpha" type="matrix" values="0 0 0 0 0 0 0 0 0 0 0 0 0 0 0 0 0 0 127 0" result="hardAlpha"/>
<feMorphology radius="3" operator="erode" in="SourceAlpha" result="effect1_dropShadow_534_780"/>
<feOffset dx="2" dy="2"/>
<feGaussianBlur stdDeviation="2"/>
<feComposite in2="hardAlpha" operator="out"/>
<feColorMatrix type="matrix" values="0 0 0 0 1 0 0 0 0 1 0 0 0 0 1 0 0 0 0.5 0"/>
<feBlend mode="normal" in2="BackgroundImageFix" result="effect1_dropShadow_534_780"/>
<feBlend mode="normal" in="SourceGraphic" in2="effect1_dropShadow_534_780" result="shape"/>
</filter>
<filter id="filter1_d_534_780" x="16.1128" y="32" width="19.7744" height="10.5" filterUnits="userSpaceOnUse" color-interpolation-filters="sRGB">
<feFlood flood-opacity="0" result="BackgroundImageFix"/>
<feColorMatrix in="SourceAlpha" type="matrix" values="0 0 0 0 0 0 0 0 0 0 0 0 0 0 0 0 0 0 127 0" result="hardAlpha"/>
<feMorphology radius="3" operator="erode" in="SourceAlpha" result="effect1_dropShadow_534_780"/>
<feOffset dx="2" dy="2"/>
<feGaussianBlur stdDeviation="2"/>
<feComposite in2="hardAlpha" operator="out"/>
<feColorMatrix type="matrix" values="0 0 0 0 1 0 0 0 0 1 0 0 0 0 1 0 0 0 0.5 0"/>
<feBlend mode="normal" in2="BackgroundImageFix" result="effect1_dropShadow_534_780"/>
<feBlend mode="normal" in="SourceGraphic" in2="effect1_dropShadow_534_780" result="shape"/>
</filter>
<linearGradient id="paint0_linear_534_780" x1="10" y1="35.5" x2="64" y2="35.5" gradientUnits="userSpaceOnUse">
<stop stop-color="#49D1FE"/>
<stop offset="1" stop-color="#00B2FF"/>
</linearGradient>
<linearGradient id="paint1_linear_534_780" x1="25" y1="72" x2="49" y2="72" gradientUnits="userSpaceOnUse">
<stop stop-color="#49D1FE"/>
<stop offset="1" stop-color="#00B2FF"/>
</linearGradient>
<clipPath id="clip0_534_780">
<rect width="75" height="75" rx="37.5" fill="white"/>
</clipPath>
</defs>
</svg>
