<svg width="250" height="144" viewBox="0 0 250 144" fill="none" xmlns="http://www.w3.org/2000/svg">
<g clip-path="url(#clip0_0_3)">
<path d="M249.82 62.17C248.867 49.5599 244.377 37.4743 236.865 27.3012C229.353 17.128 219.124 9.27973 207.353 4.65775C195.582 0.0357714 182.746 -1.17252 170.319 1.17163C157.892 3.51578 146.378 9.31733 137.1 17.91C141.011 23.3735 144.26 29.2814 146.78 35.51C154.109 27.2026 164.087 21.6862 175.02 19.8965C185.953 18.1069 197.168 20.1542 206.764 25.6911C216.359 31.228 223.744 39.9137 227.666 50.2749C231.587 60.6361 231.804 72.0348 228.28 82.5376C224.755 93.0405 217.706 102.001 208.328 107.899C198.95 113.796 187.82 116.269 176.827 114.896C165.834 113.524 155.654 108.391 148.014 100.368C140.374 92.3455 135.744 81.9271 134.91 70.88L134.29 62.73C133.3 49.6924 128.53 37.2264 120.563 26.8583C112.597 16.4903 101.78 8.67028 89.4374 4.35576C77.0947 0.0412383 63.7616 -0.580507 51.0709 2.56665C38.3801 5.71381 26.8825 12.4933 17.9858 22.0749C9.08911 31.6566 3.17949 43.6246 0.980547 56.5135C-1.2184 69.4024 0.388768 82.6529 5.60526 94.6423C10.8217 106.632 19.4212 116.84 30.3505 124.017C41.2799 131.194 54.0649 135.028 67.14 135.05C68.86 135.05 70.6 134.99 72.33 134.86C87.4998 133.744 101.834 127.482 112.96 117.11C109.045 111.651 105.786 105.751 103.25 99.53C95.925 107.843 85.9498 113.366 75.0167 115.162C64.0835 116.958 52.8657 114.916 43.2665 109.383C33.6672 103.85 26.2776 95.1666 22.3513 84.806C18.4251 74.4453 18.2039 63.0454 21.7254 52.5402C25.247 42.0351 32.2943 33.0717 41.6718 27.1707C51.0493 21.2697 62.1794 18.7945 73.174 20.165C84.1686 21.5356 94.3505 26.6675 101.992 34.69C109.634 42.7126 114.265 53.1318 115.1 64.18L115.72 72.33C117.021 89.2194 124.64 104.998 137.058 116.519C149.476 128.04 165.781 134.457 182.72 134.49C184.42 134.49 186.13 134.43 187.85 134.3C205.636 132.956 222.16 124.601 233.787 111.075C245.414 97.5478 251.192 79.9565 249.85 62.17H249.82Z" fill="url(#paint0_linear_0_3)"/>
<path d="M233.77 111.06C244.971 98.0406 250.764 81.2284 249.961 64.0729C249.159 46.9174 241.821 30.7195 229.454 18.8027C217.087 6.88591 200.628 0.153872 183.454 -0.0121298C166.281 -0.178131 149.695 6.2345 137.1 17.91C141.011 23.3735 144.26 29.2814 146.78 35.51C154.109 27.2026 164.087 21.6862 175.02 19.8965C185.953 18.1069 197.168 20.1542 206.764 25.6911C216.359 31.228 223.744 39.9137 227.666 50.2749C231.587 60.6361 231.804 72.0348 228.28 82.5376C224.755 93.0405 217.706 102.001 208.328 107.899C198.95 113.796 187.82 116.269 176.827 114.896C165.834 113.524 155.654 108.391 148.014 100.368C140.374 92.3455 135.744 81.9271 134.91 70.88L134.29 62.73C133.486 52.085 130.159 41.7845 124.584 32.6805C119.009 23.5766 111.346 15.9309 102.23 10.3759C93.1138 4.82089 82.806 1.5163 72.1592 0.735467C61.5125 -0.045364 50.8329 1.72001 41.0038 5.88555C31.1747 10.0511 22.4787 16.4971 15.6352 24.6903C8.79162 32.8834 3.99721 42.5883 1.64856 53.0021C-0.700083 63.4158 -0.535456 74.2392 2.12882 84.5767C4.79309 94.9142 9.88044 104.469 16.97 112.45L13.5 143.45L44.59 131.13C51.8258 133.721 59.4544 135.044 67.14 135.04C68.86 135.04 70.6 134.98 72.33 134.85C87.4998 133.734 101.834 127.472 112.96 117.1C109.045 111.641 105.786 105.741 103.25 99.52C95.925 107.833 85.9498 113.356 75.0167 115.152C64.0835 116.948 52.8657 114.906 43.2665 109.373C33.6672 103.84 26.2776 95.1566 22.3513 84.796C18.4251 74.4353 18.2039 63.0354 21.7254 52.5302C25.247 42.0251 32.2943 33.0617 41.6718 27.1607C51.0493 21.2597 62.1794 18.7845 73.174 20.155C84.1686 21.5256 94.3505 26.6575 101.992 34.68C109.634 42.7026 114.265 53.1218 115.1 64.17L115.72 72.32C117.021 89.2094 124.64 104.988 137.058 116.509C149.476 128.03 165.781 134.447 182.72 134.48C184.42 134.48 186.13 134.42 187.85 134.29C193.581 133.856 199.233 132.694 204.67 130.83L236.48 143.46L232.95 111.94C233.25 111.64 233.48 111.36 233.77 111.06Z" fill="url(#paint1_linear_0_3)"/>
<path style="mix-blend-mode:screen" d="M240.22 62.89C239.389 51.9345 235.443 41.4449 228.847 32.6584C222.251 23.8718 213.279 17.1548 202.991 13.2993C192.703 9.44379 181.526 8.61069 170.78 10.8982C160.034 13.1858 150.166 18.4985 142.34 26.21C144.008 29.2165 145.491 32.3223 146.78 35.51C154.109 27.2026 164.087 21.6862 175.02 19.8965C185.953 18.1069 197.168 20.1542 206.764 25.6911C216.359 31.228 223.744 39.9137 227.666 50.2749C231.587 60.6361 231.804 72.0348 228.28 82.5376C224.755 93.0405 217.706 102.001 208.328 107.899C198.95 113.796 187.82 116.269 176.827 114.896C165.834 113.524 155.654 108.391 148.014 100.368C140.374 92.3455 135.744 81.9271 134.91 70.88L134.29 62.73C133.486 52.085 130.159 41.7845 124.584 32.6805C119.009 23.5766 111.346 15.9309 102.23 10.3759C93.1138 4.82089 82.806 1.51629 72.1592 0.735464C61.5125 -0.0453674 50.8329 1.72001 41.0038 5.88555C31.1747 10.0511 22.4787 16.4971 15.6352 24.6903C8.79162 32.8834 3.99721 42.5883 1.64856 53.0021C-0.700083 63.4158 -0.535456 74.2392 2.12882 84.5767C4.79309 94.9142 9.88044 104.469 16.97 112.45L13.5 143.45L44.59 131.13C51.8258 133.721 59.4544 135.044 67.14 135.04C68.86 135.04 70.6 134.98 72.33 134.85C87.4998 133.734 101.834 127.472 112.96 117.1C111.049 114.439 109.296 111.667 107.71 108.8C98.3651 118.012 86.1549 123.757 73.1002 125.084C60.0455 126.412 46.9289 123.242 35.9212 116.099C24.9134 108.957 16.6743 98.2698 12.5675 85.807C8.46061 73.3442 8.73218 59.8528 13.3372 47.5654C17.9423 35.278 26.6048 24.9313 37.8911 18.2376C49.1774 11.5438 62.4109 8.90439 75.4016 10.756C88.3923 12.6077 100.361 18.8394 109.328 28.4199C118.295 38.0004 123.721 50.3553 124.71 63.44L125.33 71.59C125.902 79.1345 127.954 86.4924 131.37 93.2437C134.785 99.995 139.497 106.007 145.236 110.938C150.975 115.868 157.629 119.62 164.818 121.978C172.007 124.337 179.591 125.257 187.135 124.685C194.679 124.113 202.037 122.061 208.789 118.645C215.54 115.23 221.552 110.518 226.483 104.779C231.413 99.0397 235.165 92.3857 237.523 85.1967C239.882 78.0077 240.802 70.4244 240.23 62.88L240.22 62.89Z" fill="url(#paint2_linear_0_3)"/>
<path style="mix-blend-mode:screen" opacity="0.66" d="M9.79 72.16C6.85 44.76 25.01 18.82 51.68 12.01C53.54 11.64 55.39 11.23 57.25 10.9L62.89 10.36C55.4155 11.1845 48.1573 13.3813 41.48 16.84C21.25 27.11 8.62001 49.55 9.81001 72.16H9.79Z" fill="url(#paint3_linear_0_3)"/>
<path style="mix-blend-mode:screen" opacity="0.66" d="M124.7 63.45C125.41 68.76 125.7 74.15 126.95 79.36C130.023 92.4322 137.341 104.118 147.76 112.59C149.832 114.292 152.003 115.872 154.26 117.32C151.864 116.08 149.564 114.663 147.38 113.08C130.94 100.99 124.32 83.41 124.7 63.45Z" fill="url(#paint4_linear_0_3)"/>
<path style="mix-blend-mode:screen" opacity="0.66" d="M178.42 9.77C166.76 11.3916 155.705 15.9587 146.3 23.04C145.12 23.91 143.47 25.25 142.3 26.18C146.853 21.0888 152.415 17.0006 158.634 14.1755C164.852 11.3503 171.59 9.85004 178.42 9.77Z" fill="url(#paint5_linear_0_3)"/>
<path style="mix-blend-mode:multiply" opacity="0.8" d="M47.62 111.62C39.3794 107.932 32.3458 101.996 27.3268 94.4911C22.3079 86.9867 19.5071 78.219 19.246 69.1947C18.9849 60.1703 21.2742 51.2554 25.8509 43.4733C30.4277 35.6913 37.1063 29.3578 45.12 25.2C44.52 24.69 43.9 24.2 43.26 23.72C40.9186 22.0329 38.3714 20.6517 35.68 19.61C27.3554 25.0579 20.5837 32.5691 16.0248 41.4119C11.4658 50.2547 9.27497 60.1275 9.66568 70.0687C10.0564 80.0098 13.0153 89.6803 18.2543 98.138C23.4932 106.596 30.8335 113.552 39.56 118.33C42.6377 116.61 45.3704 114.335 47.62 111.62Z" fill="url(#paint6_linear_0_3)"/>
<path style="mix-blend-mode:multiply" opacity="0.8" d="M187.13 124.7C173.63 125.721 160.201 121.956 149.199 114.066C138.196 106.176 130.323 94.6645 126.96 81.55C124.02 84.1195 121.574 87.2032 119.74 90.65C124.531 103.501 133.13 114.583 144.388 122.417C155.645 130.251 169.025 134.463 182.74 134.49C184.44 134.49 186.15 134.43 187.87 134.3C190.926 134.06 193.962 133.619 196.96 132.98C197.71 131.58 198.41 130.18 199.09 128.77C200.22 126.4 201.3 123.97 202.24 121.48C197.372 123.23 192.289 124.313 187.13 124.7Z" fill="url(#paint7_linear_0_3)"/>
<path style="mix-blend-mode:multiply" opacity="0.8" d="M70.79 10.31C69.5007 13.2793 68.5546 16.3861 67.97 19.57C67.9652 19.6533 67.9652 19.7367 67.97 19.82C76.8562 19.9468 85.5327 22.5381 93.033 27.3052C100.533 32.0724 106.563 38.8281 110.45 46.82C110.83 46.55 111.21 46.29 111.57 46C113.837 44.1756 115.855 42.0608 117.57 39.71C112.857 31.2853 106.104 24.1787 97.9308 19.042C89.7574 13.9052 80.4252 10.9028 70.79 10.31Z" fill="url(#paint8_linear_0_3)"/>
</g>
<defs>
<linearGradient id="paint0_linear_0_3" x1="4.18607e-06" y1="67.53" x2="250.01" y2="67.53" gradientUnits="userSpaceOnUse">
<stop stop-color="#0A8EFF"/>
<stop offset="1" stop-color="#333499"/>
</linearGradient>
<linearGradient id="paint1_linear_0_3" x1="4.54494e-06" y1="71.73" x2="250.01" y2="71.73" gradientUnits="userSpaceOnUse">
<stop stop-color="white"/>
<stop offset="1" stop-color="#55C0FC"/>
</linearGradient>
<linearGradient id="paint2_linear_0_3" x1="4.5451e-06" y1="72.01" x2="240.39" y2="72.01" gradientUnits="userSpaceOnUse">
<stop stop-color="#0A8EFF"/>
<stop offset="1" stop-color="#333499"/>
</linearGradient>
<linearGradient id="paint3_linear_0_3" x1="9.48" y1="41.26" x2="62.89" y2="41.26" gradientUnits="userSpaceOnUse">
<stop/>
<stop offset="0.58" stop-color="white"/>
<stop offset="1"/>
</linearGradient>
<linearGradient id="paint4_linear_0_3" x1="124.68" y1="90.39" x2="154.26" y2="90.39" gradientUnits="userSpaceOnUse">
<stop/>
<stop offset="0.58" stop-color="white"/>
<stop offset="1"/>
</linearGradient>
<linearGradient id="paint5_linear_0_3" x1="142.34" y1="18" x2="178.42" y2="18" gradientUnits="userSpaceOnUse">
<stop/>
<stop offset="0.58" stop-color="white"/>
<stop offset="1"/>
</linearGradient>
<linearGradient id="paint6_linear_0_3" x1="28.62" y1="118.33" x2="28.62" y2="19.61" gradientUnits="userSpaceOnUse">
<stop stop-color="white"/>
<stop offset="0.09" stop-color="#DADBF9"/>
<stop offset="0.45" stop-color="#419CE4"/>
<stop offset="1" stop-color="white"/>
</linearGradient>
<linearGradient id="paint7_linear_0_3" x1="128.67" y1="95.38" x2="187.53" y2="130.55" gradientUnits="userSpaceOnUse">
<stop stop-color="white"/>
<stop offset="0.09" stop-color="#DADBF9"/>
<stop offset="0.45" stop-color="#3AC0DE"/>
<stop offset="1" stop-color="white"/>
</linearGradient>
<linearGradient id="paint8_linear_0_3" x1="79.32" y1="16.68" x2="106.11" y2="36.42" gradientUnits="userSpaceOnUse">
<stop stop-color="white"/>
<stop offset="0.09" stop-color="#DADBF9"/>
<stop offset="0.45" stop-color="#299CDF"/>
<stop offset="1" stop-color="white"/>
</linearGradient>
<clipPath id="clip0_0_3">
<rect width="250.01" height="143.45" fill="white"/>
</clipPath>
</defs>
</svg>
