<svg width="140" height="31" viewBox="0 0 140 31" fill="none" xmlns="http://www.w3.org/2000/svg">
<g clip-path="url(#clip0_66_9)">
<path d="M131.524 13.2249V16.259C131.528 16.4648 131.469 16.6672 131.355 16.8424C131.241 17.0176 131.076 17.1581 130.88 17.2472C128.644 18.2602 126.209 18.8186 123.731 18.8863C121.255 18.8205 118.82 18.2648 116.586 17.2549C116.388 17.1655 116.221 17.0239 116.106 16.8473C115.991 16.6706 115.933 16.4663 115.938 16.259V13.2249C115.943 13.0859 115.984 12.9503 116.058 12.8296C116.131 12.709 116.234 12.6071 116.359 12.5327C116.483 12.4583 116.625 12.4137 116.772 12.4026C116.918 12.3916 117.066 12.4144 117.201 12.4693C119.262 13.3265 121.48 13.7951 123.731 13.8488C125.982 13.7975 128.202 13.3316 130.265 12.477C130.399 12.4232 130.545 12.4009 130.691 12.4119C130.837 12.4229 130.977 12.4671 131.101 12.5405C131.224 12.6139 131.327 12.7145 131.401 12.8337C131.475 12.9529 131.517 13.0871 131.524 13.2249Z" fill="#0066FF"/>
<path d="M139.795 21.337C139.629 23.1781 138.731 24.8912 137.282 26.1327C135.834 27.374 133.942 28.0516 131.986 28.0291H127.679L119.476 33.0666V28.0291L127.679 22.9916H131.994C132.605 23.0125 133.201 22.8137 133.662 22.4353C134.123 22.057 134.416 21.5274 134.48 20.9534C134.731 17.0814 134.71 13.1979 134.418 9.3284C134.369 8.81224 134.124 8.33011 133.73 7.9701C133.335 7.61009 132.817 7.39625 132.269 7.36765C129.472 7.2049 126.527 7.10415 123.578 7.10415C120.629 7.10415 117.684 7.19715 114.887 7.38315C114.339 7.41175 113.82 7.62559 113.426 7.9856C113.031 8.34561 112.787 8.82774 112.737 9.3439C112.446 13.2134 112.425 17.0969 112.676 20.9689C112.744 21.5401 113.038 22.0659 113.499 22.4411C113.959 22.8162 114.553 23.0128 115.161 22.9916H119.476V28.0291H115.17C113.216 28.0475 111.328 27.3677 109.882 26.1259C108.437 24.8841 107.542 23.1722 107.377 21.3332C107.105 17.2031 107.126 13.0606 107.438 8.93315C107.593 7.22155 108.391 5.61863 109.686 4.41355C110.982 3.20847 112.691 2.48057 114.505 2.36115C117.425 2.16353 120.502 2.06665 123.578 2.06665C126.654 2.06665 129.73 2.16353 132.65 2.36115C134.47 2.4775 136.185 3.20603 137.484 4.41462C138.784 5.62321 139.582 7.23181 139.734 8.94865C140.045 13.0723 140.066 17.2109 139.795 21.337Z" fill="#0066FF"/>
<path d="M28.6796 19.845C29.1796 19.845 29.5746 19.795 29.8646 19.695C30.1646 19.595 30.3796 19.45 30.5096 19.26C30.6496 19.06 30.7196 18.83 30.7196 18.57C30.7196 18.37 30.6646 18.13 30.5546 17.85C30.4546 17.57 30.3146 17.26 30.1346 16.92C29.9546 16.57 29.7446 16.205 29.5046 15.825C29.2746 15.435 29.0246 15.04 28.7546 14.64L29.7896 13.965C30.1796 14.555 30.5196 15.115 30.8096 15.645C31.0996 16.165 31.3446 16.655 31.5446 17.115C31.7446 17.565 31.9046 17.99 32.0246 18.39C32.1646 18.83 32.3196 19.155 32.4896 19.365C32.6696 19.575 32.8546 19.71 33.0446 19.77C33.2346 19.82 33.4096 19.845 33.5696 19.845C33.7796 19.845 33.9346 19.905 34.0346 20.025C34.1346 20.135 34.1846 20.27 34.1846 20.43C34.1846 20.59 34.1146 20.74 33.9746 20.88C33.8346 21.01 33.6546 21.075 33.4346 21.075C33.1046 21.075 32.7796 21.015 32.4596 20.895C32.1496 20.765 31.8796 20.56 31.6496 20.28C31.4196 19.99 31.2596 19.605 31.1696 19.125L31.7696 18.645C31.7696 19.045 31.6846 19.435 31.5146 19.815C31.3446 20.185 31.0346 20.49 30.5846 20.73C30.1446 20.97 29.5096 21.09 28.6796 21.09C28.3196 21.09 27.9696 21.06 27.6296 21C27.2996 20.94 26.9946 20.855 26.7146 20.745C26.4346 20.625 26.1896 20.485 25.9796 20.325L26.5796 19.29C26.7796 19.42 27.0596 19.545 27.4196 19.665C27.7796 19.785 28.1996 19.845 28.6796 19.845ZM33.438 21.075L33.588 19.845C34.008 19.845 34.338 19.81 34.578 19.74C34.818 19.66 34.998 19.515 35.118 19.305C35.248 19.085 35.358 18.77 35.448 18.36C35.538 17.95 35.648 17.415 35.778 16.755L36.948 16.98C36.908 17.16 36.863 17.36 36.813 17.58C36.763 17.8 36.718 18.02 36.678 18.24C36.648 18.45 36.633 18.635 36.633 18.795C36.633 18.995 36.678 19.175 36.768 19.335C36.858 19.495 37.053 19.62 37.353 19.71C37.653 19.8 38.113 19.845 38.733 19.845C38.943 19.845 39.093 19.905 39.183 20.025C39.283 20.135 39.333 20.27 39.333 20.43C39.333 20.59 39.263 20.74 39.123 20.88C38.983 21.01 38.803 21.075 38.583 21.075C37.933 21.075 37.423 21.02 37.053 20.91C36.683 20.79 36.413 20.615 36.243 20.385C36.073 20.145 35.958 19.855 35.898 19.515L36.348 19.545C36.188 19.865 36.013 20.125 35.823 20.325C35.643 20.525 35.443 20.68 35.223 20.79C35.003 20.9 34.748 20.975 34.458 21.015C34.168 21.055 33.828 21.075 33.438 21.075ZM35.778 15.21C35.568 15.21 35.388 15.14 35.238 15C35.098 14.85 35.028 14.675 35.028 14.475C35.028 14.275 35.098 14.1 35.238 13.95C35.388 13.8 35.568 13.725 35.778 13.725C35.978 13.725 36.148 13.8 36.288 13.95C36.438 14.1 36.513 14.275 36.513 14.475C36.513 14.675 36.438 14.85 36.288 15C36.148 15.14 35.978 15.21 35.778 15.21ZM38.5796 21.075L38.7296 19.845C39.0096 19.845 39.2296 19.785 39.3896 19.665C39.5596 19.545 39.7196 19.345 39.8696 19.065C40.0296 18.785 40.2296 18.41 40.4696 17.94C40.7096 17.46 40.9496 17.07 41.1896 16.77C41.4396 16.46 41.6796 16.22 41.9096 16.05C42.1496 15.87 42.3746 15.745 42.5846 15.675C42.7946 15.605 42.9896 15.57 43.1696 15.57C43.4996 15.57 43.7946 15.645 44.0546 15.795C44.3146 15.935 44.5596 16.18 44.7896 16.53C45.0196 16.87 45.2546 17.34 45.4946 17.94C45.7246 18.49 45.9296 18.905 46.1096 19.185C46.2996 19.455 46.4946 19.635 46.6946 19.725C46.9046 19.805 47.1396 19.845 47.3996 19.845C47.6096 19.845 47.7596 19.905 47.8496 20.025C47.9496 20.135 47.9996 20.27 47.9996 20.43C47.9996 20.59 47.9296 20.74 47.7896 20.88C47.6496 21.01 47.4696 21.075 47.2496 21.075C46.8596 21.075 46.4996 21.01 46.1696 20.88C45.8496 20.75 45.5796 20.545 45.3596 20.265L45.5696 19.95C45.4596 20.26 45.3096 20.515 45.1196 20.715C44.9396 20.905 44.7346 21.045 44.5046 21.135C44.2746 21.235 44.0296 21.285 43.7696 21.285C43.4396 21.285 43.0996 21.215 42.7496 21.075C42.4096 20.935 42.0796 20.735 41.7596 20.475C41.4396 20.215 41.1596 19.91 40.9196 19.56C40.6596 20.02 40.4096 20.36 40.1696 20.58C39.9396 20.79 39.6996 20.925 39.4496 20.985C39.1996 21.045 38.9096 21.075 38.5796 21.075ZM41.4896 18.42C41.6596 18.7 41.8396 18.945 42.0296 19.155C42.2296 19.365 42.4296 19.54 42.6296 19.68C42.8296 19.81 43.0246 19.91 43.2146 19.98C43.4146 20.04 43.5946 20.07 43.7546 20.07C44.1046 20.07 44.3596 19.945 44.5196 19.695C44.6896 19.445 44.6846 19.095 44.5046 18.645C44.4146 18.415 44.3196 18.19 44.2196 17.97C44.1296 17.75 44.0296 17.55 43.9196 17.37C43.8096 17.18 43.6846 17.035 43.5446 16.935C43.4046 16.825 43.2496 16.77 43.0796 16.77C42.9296 16.77 42.7696 16.82 42.5996 16.92C42.4396 17.02 42.2646 17.19 42.0746 17.43C41.8946 17.67 41.6996 18 41.4896 18.42ZM47.2515 21.075L47.4015 19.845C47.7215 19.845 47.9815 19.825 48.1815 19.785C48.3815 19.735 48.5465 19.62 48.6765 19.44C48.8165 19.25 48.9465 18.955 49.0665 18.555C49.1865 18.155 49.3265 17.595 49.4865 16.875L50.6115 17.19C50.5715 17.36 50.5265 17.555 50.4765 17.775C50.4265 17.985 50.3815 18.205 50.3415 18.435C50.3015 18.655 50.2815 18.86 50.2815 19.05C50.2815 19.3 50.3765 19.495 50.5665 19.635C50.7565 19.775 51.1015 19.845 51.6015 19.845C51.9015 19.845 52.1465 19.82 52.3365 19.77C52.5265 19.72 52.6815 19.6 52.8015 19.41C52.9315 19.22 53.0465 18.915 53.1465 18.495C53.2465 18.075 53.3515 17.5 53.4615 16.77L54.6015 16.98C54.5715 17.16 54.5365 17.38 54.4965 17.64C54.4565 17.9 54.4165 18.16 54.3765 18.42C54.3465 18.67 54.3315 18.88 54.3315 19.05C54.3315 19.19 54.3615 19.325 54.4215 19.455C54.4915 19.575 54.6215 19.67 54.8115 19.74C55.0115 19.81 55.3065 19.845 55.6965 19.845C55.9865 19.845 56.2365 19.81 56.4465 19.74C56.6665 19.67 56.8315 19.54 56.9415 19.35C57.0615 19.16 57.1215 18.895 57.1215 18.555C57.1215 18.175 57.0315 17.7 56.8515 17.13C56.6815 16.55 56.4865 15.975 56.2665 15.405L57.4815 14.955C57.6115 15.275 57.7315 15.64 57.8415 16.05C57.9615 16.46 58.0615 16.865 58.1415 17.265C58.2215 17.665 58.2615 18.015 58.2615 18.315C58.2615 18.775 58.2015 19.18 58.0815 19.53C57.9615 19.88 57.7915 20.17 57.5715 20.4C57.3515 20.62 57.0815 20.79 56.7615 20.91C56.4415 21.02 56.0815 21.075 55.6815 21.075C55.2115 21.075 54.8265 21.02 54.5265 20.91C54.2265 20.8 53.9965 20.635 53.8365 20.415C53.6765 20.185 53.5715 19.895 53.5215 19.545H54.0315C53.8415 19.975 53.6415 20.3 53.4315 20.52C53.2215 20.74 52.9615 20.89 52.6515 20.97C52.3415 21.04 51.9315 21.075 51.4215 21.075C51.1715 21.075 50.9015 21.035 50.6115 20.955C50.3315 20.875 50.0865 20.72 49.8765 20.49C49.6665 20.25 49.5415 19.895 49.5015 19.425L49.9515 19.335C49.7815 19.845 49.5715 20.225 49.3215 20.475C49.0815 20.715 48.7915 20.875 48.4515 20.955C48.1115 21.035 47.7115 21.075 47.2515 21.075ZM53.7165 12.825C53.5065 12.825 53.3265 12.755 53.1765 12.615C53.0365 12.465 52.9665 12.29 52.9665 12.09C52.9665 11.89 53.0365 11.715 53.1765 11.565C53.3265 11.415 53.5065 11.34 53.7165 11.34C53.9165 11.34 54.0865 11.415 54.2265 11.565C54.3765 11.715 54.4515 11.89 54.4515 12.09C54.4515 12.29 54.3765 12.465 54.2265 12.615C54.0865 12.755 53.9165 12.825 53.7165 12.825ZM52.6965 14.475C52.4865 14.475 52.3065 14.405 52.1565 14.265C52.0165 14.115 51.9465 13.94 51.9465 13.74C51.9465 13.54 52.0165 13.365 52.1565 13.215C52.3065 13.065 52.4865 12.99 52.6965 12.99C52.8965 12.99 53.0665 13.065 53.2065 13.215C53.3565 13.365 53.4315 13.54 53.4315 13.74C53.4315 13.94 53.3565 14.115 53.2065 14.265C53.0665 14.405 52.8965 14.475 52.6965 14.475ZM54.7365 14.475C54.5265 14.475 54.3465 14.405 54.1965 14.265C54.0565 14.115 53.9865 13.94 53.9865 13.74C53.9865 13.54 54.0565 13.365 54.1965 13.215C54.3465 13.065 54.5265 12.99 54.7365 12.99C54.9365 12.99 55.1065 13.065 55.2465 13.215C55.3965 13.365 55.4715 13.54 55.4715 13.74C55.4715 13.94 55.3965 14.115 55.2465 14.265C55.1065 14.405 54.9365 14.475 54.7365 14.475ZM59.8842 24.45L59.6142 23.22C60.2142 23.14 60.7642 23.025 61.2642 22.875C61.7742 22.735 62.2092 22.53 62.5692 22.26C62.9392 21.99 63.2242 21.635 63.4242 21.195C63.6242 20.755 63.7242 20.205 63.7242 19.545C63.7242 18.865 63.5992 18.3 63.3492 17.85C63.0992 17.4 62.7742 17.175 62.3742 17.175C62.1642 17.175 61.9692 17.255 61.7892 17.415C61.6092 17.575 61.4592 17.79 61.3392 18.06C61.2292 18.33 61.1742 18.625 61.1742 18.945C61.1742 19.125 61.2142 19.275 61.2942 19.395C61.3742 19.505 61.4892 19.595 61.6392 19.665C61.7992 19.725 61.9992 19.77 62.2392 19.8C62.4792 19.83 62.7592 19.845 63.0792 19.845H66.2442C66.4542 19.845 66.6042 19.905 66.6942 20.025C66.7942 20.135 66.8442 20.27 66.8442 20.43C66.8442 20.59 66.7742 20.74 66.6342 20.88C66.4942 21.01 66.3142 21.075 66.0942 21.075H62.5092C62.0592 21.075 61.6392 21.01 61.2492 20.88C60.8692 20.75 60.5592 20.55 60.3192 20.28C60.0892 20 59.9742 19.635 59.9742 19.185C59.9742 18.765 60.0392 18.365 60.1692 17.985C60.2992 17.595 60.4742 17.25 60.6942 16.95C60.9242 16.64 61.1892 16.395 61.4892 16.215C61.7992 16.035 62.1342 15.945 62.4942 15.945C62.9542 15.945 63.3642 16.08 63.7242 16.35C64.0842 16.62 64.3692 17.03 64.5792 17.58C64.7892 18.12 64.8942 18.805 64.8942 19.635C64.8942 20.565 64.7042 21.365 64.3242 22.035C63.9542 22.715 63.3942 23.255 62.6442 23.655C61.9042 24.055 60.9842 24.32 59.8842 24.45ZM71.8644 21.12C71.4544 21.12 71.0344 21.065 70.6044 20.955C70.1744 20.835 69.7594 20.67 69.3594 20.46C68.9694 20.25 68.6144 19.995 68.2944 19.695C67.9844 19.385 67.7344 19.04 67.5444 18.66C67.3644 18.28 67.2744 17.87 67.2744 17.43C67.2744 16.98 67.3644 16.565 67.5444 16.185C67.7344 15.805 67.9994 15.5 68.3394 15.27C68.6894 15.03 69.0944 14.91 69.5544 14.91C70.0044 14.91 70.3894 15.035 70.7094 15.285C71.0294 15.525 71.2744 15.84 71.4444 16.23C71.6244 16.61 71.7144 17.01 71.7144 17.43C71.7144 18.01 71.5494 18.53 71.2194 18.99C70.8994 19.44 70.4644 19.82 69.9144 20.13C69.3644 20.44 68.7594 20.675 68.0994 20.835C67.4394 20.995 66.7694 21.075 66.0894 21.075L66.2394 19.845C66.7794 19.845 67.2594 19.81 67.6794 19.74C68.1094 19.66 68.4794 19.555 68.7894 19.425C69.2494 19.245 69.6094 19.03 69.8694 18.78C70.1394 18.52 70.3294 18.255 70.4394 17.985C70.5494 17.715 70.6044 17.47 70.6044 17.25C70.6044 17.04 70.5594 16.84 70.4694 16.65C70.3894 16.45 70.2694 16.29 70.1094 16.17C69.9594 16.04 69.7744 15.975 69.5544 15.975C69.3344 15.975 69.1344 16.04 68.9544 16.17C68.7844 16.29 68.6494 16.45 68.5494 16.65C68.4494 16.85 68.3994 17.06 68.3994 17.28C68.3994 17.7 68.5044 18.075 68.7144 18.405C68.9344 18.725 69.2144 19 69.5544 19.23C69.9044 19.46 70.2744 19.635 70.6644 19.755C71.0644 19.875 71.4444 19.935 71.8044 19.935C72.1444 19.935 72.3944 19.88 72.5544 19.77C72.7144 19.65 72.7944 19.455 72.7944 19.185C72.7944 19.135 72.7794 19.045 72.7494 18.915C72.7294 18.775 72.6494 18.585 72.5094 18.345C72.3794 18.105 72.1544 17.81 71.8344 17.46C71.5144 17.1 71.0644 16.675 70.4844 16.185C69.9044 15.685 69.1544 15.105 68.2344 14.445L68.9394 13.515C69.8994 14.215 70.6894 14.835 71.3094 15.375C71.9394 15.905 72.4344 16.37 72.7944 16.77C73.1644 17.16 73.4344 17.505 73.6044 17.805C73.7844 18.095 73.8994 18.355 73.9494 18.585C73.9994 18.805 74.0244 19.015 74.0244 19.215C74.0244 19.545 73.9494 19.855 73.7994 20.145C73.6594 20.435 73.4294 20.67 73.1094 20.85C72.7994 21.03 72.3844 21.12 71.8644 21.12ZM85.5771 21.315L85.9671 20.085C87.1371 20.085 88.1421 20.055 88.9821 19.995C89.8321 19.935 90.5271 19.84 91.0671 19.71C91.6171 19.57 92.0221 19.385 92.2821 19.155C92.5521 18.915 92.6871 18.625 92.6871 18.285C92.6871 17.905 92.6171 17.465 92.4771 16.965C92.3371 16.465 92.1571 15.93 91.9371 15.36L93.0921 14.955C93.2221 15.275 93.3421 15.62 93.4521 15.99C93.5721 16.35 93.6721 16.71 93.7521 17.07C93.8321 17.42 93.8721 17.745 93.8721 18.045C93.8721 18.635 93.7371 19.14 93.4671 19.56C93.1971 19.97 92.7471 20.305 92.1171 20.565C91.4871 20.825 90.6371 21.015 89.5671 21.135C88.5071 21.255 87.1771 21.315 85.5771 21.315ZM85.5771 21.315C84.6871 21.315 83.9021 21.255 83.2221 21.135C82.5521 21.025 81.9921 20.85 81.5421 20.61C81.0921 20.37 80.7521 20.06 80.5221 19.68C80.2921 19.29 80.1771 18.82 80.1771 18.27C80.1771 18.02 80.1971 17.765 80.2371 17.505C80.2771 17.235 80.3271 16.965 80.3871 16.695C80.4571 16.425 80.5271 16.165 80.5971 15.915L81.7221 16.2C81.6821 16.35 81.6371 16.53 81.5871 16.74C81.5371 16.94 81.4921 17.145 81.4521 17.355C81.4221 17.565 81.4071 17.755 81.4071 17.925C81.4071 18.445 81.5371 18.865 81.7971 19.185C82.0671 19.495 82.5321 19.725 83.1921 19.875C83.8521 20.015 84.7771 20.085 85.9671 20.085L86.2671 20.835L85.5771 21.315ZM88.0821 14.985C87.8721 14.985 87.6921 14.915 87.5421 14.775C87.4021 14.625 87.3321 14.45 87.3321 14.25C87.3321 14.05 87.4021 13.875 87.5421 13.725C87.6921 13.575 87.8721 13.5 88.0821 13.5C88.2821 13.5 88.4521 13.575 88.5921 13.725C88.7421 13.875 88.8171 14.05 88.8171 14.25C88.8171 14.45 88.7421 14.625 88.5921 14.775C88.4521 14.915 88.2821 14.985 88.0821 14.985ZM86.0271 14.985C85.8171 14.985 85.6371 14.915 85.4871 14.775C85.3471 14.625 85.2771 14.45 85.2771 14.25C85.2771 14.05 85.3471 13.875 85.4871 13.725C85.6371 13.575 85.8171 13.5 86.0271 13.5C86.2271 13.5 86.3971 13.575 86.5371 13.725C86.6871 13.875 86.7621 14.05 86.7621 14.25C86.7621 14.45 86.6871 14.625 86.5371 14.775C86.3971 14.915 86.2271 14.985 86.0271 14.985ZM98.9895 21.075C98.1895 21.075 97.5745 20.985 97.1445 20.805C96.7245 20.625 96.4345 20.345 96.2745 19.965C96.1145 19.585 96.0245 19.095 96.0045 18.495L95.7045 10.29H96.9345L97.2345 18.015C97.2545 18.505 97.2995 18.885 97.3695 19.155C97.4495 19.415 97.6195 19.595 97.8795 19.695C98.1495 19.795 98.5695 19.845 99.1395 19.845C99.3495 19.845 99.4995 19.905 99.5895 20.025C99.6895 20.135 99.7395 20.27 99.7395 20.43C99.7395 20.59 99.6695 20.74 99.5295 20.88C99.3895 21.01 99.2095 21.075 98.9895 21.075ZM98.9897 21.075L99.1397 19.845C99.6297 19.845 100.02 19.815 100.31 19.755C100.6 19.695 100.81 19.575 100.94 19.395C101.07 19.205 101.135 18.925 101.135 18.555C101.135 18.305 101.095 18.01 101.015 17.67C100.935 17.32 100.83 16.95 100.7 16.56C100.57 16.17 100.43 15.785 100.28 15.405L101.495 14.955C101.625 15.275 101.745 15.64 101.855 16.05C101.975 16.46 102.075 16.865 102.155 17.265C102.235 17.665 102.275 18.015 102.275 18.315C102.275 18.715 102.23 19.07 102.14 19.38C102.06 19.68 101.935 19.94 101.765 20.16C101.595 20.37 101.375 20.545 101.105 20.685C100.845 20.815 100.54 20.915 100.19 20.985C99.8397 21.045 99.4397 21.075 98.9897 21.075ZM100.595 23.865C100.385 23.865 100.205 23.79 100.055 23.64C99.9147 23.5 99.8447 23.33 99.8447 23.13C99.8447 22.93 99.9147 22.755 100.055 22.605C100.205 22.455 100.385 22.38 100.595 22.38C100.795 22.38 100.965 22.455 101.105 22.605C101.255 22.755 101.33 22.93 101.33 23.13C101.33 23.33 101.255 23.5 101.105 23.64C100.965 23.79 100.795 23.865 100.595 23.865Z" fill="black"/>
</g>
<defs>
<clipPath id="clip0_66_9">
<rect width="140" height="31" fill="white"/>
</clipPath>
</defs>
</svg>
