<svg xmlns="http://www.w3.org/2000/svg" xmlns:xlink="http://www.w3.org/1999/xlink" viewBox="0 0 350 350" width="350" height="350" preserveAspectRatio="xMidYMid slice" style="width: 100%; height: 100%; transform: translate3d(0px, 0px, 0px); content-visibility: visible;"><defs><clipPath id="__lottie_element_385"><rect width="350" height="350" x="0" y="0"></rect></clipPath><clipPath id="__lottie_element_388"><path d="M0,0 L350,0 L350,350 L0,350z"></path></clipPath><linearGradient id="__lottie_element_394" spreadMethod="pad" gradientUnits="userSpaceOnUse" x1="-72" y1="73.33300018310547" x2="73.22599792480469" y2="73.33300018310547"><stop offset="0%" stop-color="rgb(1,58,99)"></stop><stop offset="50%" stop-color="rgb(1,46,80)"></stop><stop offset="100%" stop-color="rgb(1,35,61)"></stop></linearGradient><linearGradient id="__lottie_element_395" spreadMethod="pad" gradientUnits="userSpaceOnUse" x1="72" y1="0.3330000042915344" x2="111.98500061035156" y2="40.31800079345703"><stop offset="0%" stop-color="rgb(1,58,99)"></stop><stop offset="50%" stop-color="rgb(1,46,80)"></stop><stop offset="100%" stop-color="rgb(1,35,61)"></stop></linearGradient><linearGradient id="__lottie_element_396" spreadMethod="pad" gradientUnits="userSpaceOnUse" x1="-648.5150146484375" y1="0.3330000042915344" x2="-688.4990234375" y2="-39.652000427246094"><stop offset="0%" stop-color="rgb(1,58,99)"></stop><stop offset="50%" stop-color="rgb(1,46,80)"></stop><stop offset="100%" stop-color="rgb(1,35,61)"></stop></linearGradient><linearGradient id="__lottie_element_397" spreadMethod="pad" gradientUnits="userSpaceOnUse" x1="-64" y1="-30.66699981689453" x2="65.13999938964844" y2="98.4729995727539"><stop offset="0%" stop-color="rgb(255,217,203)"></stop><stop offset="50%" stop-color="rgb(225,225,223)"></stop><stop offset="100%" stop-color="rgb(196,233,242)"></stop></linearGradient><radialGradient id="__lottie_element_398" spreadMethod="pad" gradientUnits="userSpaceOnUse" cx="1" cy="33.33300018310547" r="63.46600341796875" fx="1" fy="33.33300018310547"><stop offset="0%" stop-color="rgb(9,59,130)"></stop><stop offset="50%" stop-color="rgb(9,42,94)"></stop><stop offset="100%" stop-color="rgb(10,24,58)"></stop></radialGradient><linearGradient id="__lottie_element_399" spreadMethod="pad" gradientUnits="userSpaceOnUse" x1="-19" y1="-52.66699981689453" x2="22.47599983215332" y2="-52.66699981689453"><stop offset="0%" stop-color="rgb(1,58,99)"></stop><stop offset="50%" stop-color="rgb(1,46,80)"></stop><stop offset="100%" stop-color="rgb(1,35,61)"></stop></linearGradient><radialGradient id="__lottie_element_400" spreadMethod="pad" gradientUnits="userSpaceOnUse" cx="1" cy="36.33300018310547" r="56.04199981689453" fx="1" fy="36.33300018310547"><stop offset="0%" stop-color="rgb(64,156,255)" stop-opacity="0.20000000298023224"></stop><stop offset="41%" stop-color="rgb(64,156,255)" stop-opacity="0.10000000149011612"></stop><stop offset="100%" stop-color="rgb(64,156,255)" stop-opacity="0"></stop></radialGradient><linearGradient id="__lottie_element_412" spreadMethod="pad" gradientUnits="userSpaceOnUse" x1="-1" y1="-94.66699981689453" x2="20.777999877929688" y2="-94.66699981689453"><stop offset="0%" stop-color="rgb(1,58,99)"></stop><stop offset="50%" stop-color="rgb(1,46,80)"></stop><stop offset="100%" stop-color="rgb(1,35,61)"></stop></linearGradient></defs><g clip-path="url(#__lottie_element_385)"><g clip-path="url(#__lottie_element_388)" style="display: block;" transform="matrix(1,0,0,1,1,0)" opacity="1"><g style="display: block;" transform="matrix(1,0,0,1,175,175)" opacity="1"><g opacity="1" transform="matrix(1,0,0,1,0,0)"><path fill="url(#__lottie_element_394)" fill-opacity="1" d=" M72.61299896240234,72.99800109863281 C72.61299896240234,91.48500061035156 40.10300064086914,106.47200012207031 0,106.47200012207031 C-40.10300064086914,106.47200012207031 -72.61299896240234,91.48500061035156 -72.61299896240234,72.99800109863281 C-72.61299896240234,54.51100158691406 -40.10300064086914,39.52399826049805 0,39.52399826049805 C40.10300064086914,39.52399826049805 72.61299896240234,54.51100158691406 72.61299896240234,72.99800109863281z"></path></g><g opacity="1" transform="matrix(1,0,0,1,0,0)"><g opacity="1" transform="matrix(1,0,0,1,0,0)"><path fill="url(#__lottie_element_395)" fill-opacity="1" d=" M114.79900360107422,24.343000411987305 C115.16999816894531,46.60499954223633 92.27799987792969,53.39699935913086 92.27799987792969,53.39699935913086 C92.27799987792969,53.39699935913086 79.71099853515625,-8.454000473022461 79.71099853515625,-8.454000473022461 C79.71099853515625,-8.454000473022461 81.93800354003906,-8.663999557495117 85.29299926757812,-8.340999603271484 C93.79499816894531,-7.51800012588501 109.50800323486328,-3.194999933242798 113.9280014038086,17.003000259399414 C114.49299621582031,19.615999221801758 114.78299713134766,22.052000045776367 114.79900360107422,24.343000411987305z"></path></g><g opacity="1" transform="matrix(1,0,0,1,0,0)" style="mix-blend-mode: lighten;"><path fill="rgb(15,75,120)" fill-opacity="1" d=" M114.79900360107422,24.343000411987305 C103.4260025024414,22.375 90.71299743652344,14.663999557495117 85.29299926757812,-8.340999603271484 C93.79499816894531,-7.51800012588501 109.50800323486328,-3.194999933242798 113.9280014038086,17.003000259399414 C114.49299621582031,19.615999221801758 114.78299713134766,22.052000045776367 114.79900360107422,24.343000411987305z"></path></g></g><g opacity="1" transform="matrix(1,0,0,1,0,0)"><g opacity="1" transform="matrix(1,0,0,1,0,0)"><path fill="url(#__lottie_element_396)" fill-opacity="1" d=" M-114.79900360107422,24.343000411987305 C-115.16999816894531,46.60499954223633 -92.27799987792969,53.39699935913086 -92.27799987792969,53.39699935913086 C-92.27799987792969,53.39699935913086 -79.71099853515625,-8.454000473022461 -79.71099853515625,-8.454000473022461 C-79.71099853515625,-8.454000473022461 -81.93800354003906,-8.663999557495117 -85.29299926757812,-8.340999603271484 C-93.79499816894531,-7.51800012588501 -109.50800323486328,-3.194999933242798 -113.9280014038086,17.003000259399414 C-114.49299621582031,19.615999221801758 -114.78299713134766,22.052000045776367 -114.79900360107422,24.343000411987305z"></path></g><g opacity="1" transform="matrix(1,0,0,1,0,0)" style="mix-blend-mode: lighten;"><path fill="rgb(15,75,120)" fill-opacity="1" d=" M-114.79900360107422,24.343000411987305 C-103.4260025024414,22.375 -90.71299743652344,14.663999557495117 -85.29299926757812,-8.340999603271484 C-93.79499816894531,-7.51800012588501 -109.50800323486328,-3.194999933242798 -113.9280014038086,17.003000259399414 C-114.49299621582031,19.615999221801758 -114.78299713134766,22.052000045776367 -114.79900360107422,24.343000411987305z"></path></g></g><g opacity="1" transform="matrix(1,0,0,1,0,0)"><path fill="url(#__lottie_element_397)" fill-opacity="1" d=" M93.83300018310547,56.37099838256836 C92.46299743652344,41.46699905395508 89.7239990234375,8.329999923706055 80.81999969482422,-11.168000221252441 C71.91600036621094,-30.666000366210938 42.46500015258789,-50.486000061035156 0,-50.486000061035156 C-42.46500015258789,-50.486000061035156 -71.91600036621094,-30.666000366210938 -80.81999969482422,-11.168000221252441 C-89.7239990234375,8.329999923706055 -92.46299743652344,41.46699905395508 -93.83300018310547,56.37099838256836 C-95.2030029296875,71.2750015258789 -85.61399841308594,94.55400085449219 0,94.55400085449219 C85.61399841308594,94.55400085449219 95.2030029296875,71.2750015258789 93.83300018310547,56.37099838256836z"></path></g><g opacity="1" transform="matrix(1,0,0,1,0,0)"><g opacity="1" transform="matrix(1,0,0,1,0,0)"><path fill="rgb(10,24,58)" fill-opacity="1" d=" M0,95.36100006103516 C-0.4449999928474426,95.36100006103516 -0.8059999942779541,94.9990005493164 -0.8059999942779541,94.55400085449219 C-0.8059999942779541,94.55400085449219 -0.8059999942779541,-32.474998474121094 -0.8059999942779541,-32.474998474121094 C-0.8059999942779541,-32.91999816894531 -0.4449999928474426,-33.28099822998047 0,-33.28099822998047 C0.4449999928474426,-33.28099822998047 0.8069999814033508,-32.91999816894531 0.8069999814033508,-32.474998474121094 C0.8069999814033508,-32.474998474121094 0.8069999814033508,94.55400085449219 0.8069999814033508,94.55400085449219 C0.8069999814033508,94.9990005493164 0.4449999928474426,95.36100006103516 0,95.36100006103516z"></path></g></g><g opacity="1" transform="matrix(1,0,0,1,0,0)" style="mix-blend-mode: multiply;"><path fill="rgb(214,203,255)" fill-opacity="1" d=" M69.93099975585938,1.4859999418258667 C67.26200103759766,-6.7179999351501465 60.73400115966797,-12.621999740600586 52.95000076293945,-13.949000358581543 C39.055999755859375,-16.316999435424805 16.033000946044922,-19.77400016784668 0,-19.77400016784668 C-16.033000946044922,-19.77400016784668 -39.055999755859375,-16.316999435424805 -52.95000076293945,-13.949000358581543 C-60.73400115966797,-12.621999740600586 -67.26200103759766,-6.7179999351501465 -69.93099975585938,1.4859999418258667 C-73.8759994506836,13.609999656677246 -79.00700378417969,33.474998474121094 -80.76899719238281,58.68199920654297 C-81.41100311279297,67.87000274658203 -75.89600372314453,76.25199890136719 -67.79100036621094,78.3489990234375 C-51.75,82.4990005493164 -29.788000106811523,85.44100189208984 0,85.44100189208984 C29.788000106811523,85.44100189208984 51.75,82.4990005493164 67.79100036621094,78.3489990234375 C75.89600372314453,76.25199890136719 81.41100311279297,67.87000274658203 80.76899719238281,58.68199920654297 C79.00700378417969,33.474998474121094 73.8759994506836,13.609999656677246 69.93099975585938,1.4859999418258667z"></path></g><g opacity="1" transform="matrix(1,0,0,1,0,0)"><path fill="url(#__lottie_element_398)" fill-opacity="1" d=" M65.38899993896484,3.9790000915527344 C62.893001556396484,-3.572999954223633 56.78900146484375,-9.008000373840332 49.51100158691406,-10.229000091552734 C36.52000045776367,-12.409000396728516 14.991999626159668,-15.59000015258789 0,-15.59000015258789 C-14.991999626159668,-15.59000015258789 -36.52000045776367,-12.409000396728516 -49.51100158691406,-10.229000091552734 C-56.78900146484375,-9.008000373840332 -62.893001556396484,-3.572999954223633 -65.38899993896484,3.9790000915527344 C-69.0780029296875,15.138999938964844 -73.875,33.42399978637695 -75.52300262451172,56.625999450683594 C-76.12300109863281,65.08300018310547 -70.96600341796875,72.79900360107422 -63.38800048828125,74.72899627685547 C-48.388999938964844,78.54900360107422 -27.85300064086914,81.25700378417969 0,81.25700378417969 C27.85300064086914,81.25700378417969 48.388999938964844,78.54900360107422 63.38800048828125,74.72899627685547 C70.96600341796875,72.79900360107422 76.12300109863281,65.08300018310547 75.52300262451172,56.625999450683594 C73.875,33.42399978637695 69.0780029296875,15.138999938964844 65.38899993896484,3.9790000915527344z"></path></g><g opacity="1" transform="matrix(1,0,0,1,0,0)"><g opacity="1" transform="matrix(1,0,0,1,0,0)"><path fill="rgb(10,24,58)" fill-opacity="1" d=" M-30.16900062561035,-28.201000213623047 C-31.92099952697754,-28.201000213623047 -33.40399932861328,-28.405000686645508 -34.58000183105469,-28.909000396728516 C-40.4119987487793,-31.409000396728516 -45.81999969482422,-40.99300003051758 -46.047000885009766,-41.39899826049805 C-46.263999938964844,-41.78799819946289 -46.125999450683594,-42.27899932861328 -45.73699951171875,-42.49599838256836 C-45.3489990234375,-42.71500015258789 -44.858001708984375,-42.57699966430664 -44.63999938964844,-42.18600082397461 C-44.58599853515625,-42.090999603271484 -39.27199935913086,-32.67599868774414 -33.94499969482422,-30.39299964904785 C-31.062999725341797,-29.158000946044922 -25.22599983215332,-30.128000259399414 -18.465999603271484,-31.25200080871582 C-12.739999771118164,-32.20399856567383 -6.25,-33.28099822998047 0,-33.28099822998047 C6.249000072479248,-33.28099822998047 12.739999771118164,-32.20399856567383 18.465999603271484,-31.25200080871582 C25.22800064086914,-30.128000259399414 31.065000534057617,-29.16200065612793 33.94499969482422,-30.39299964904785 C39.27199935913086,-32.67599868774414 44.584999084472656,-42.090999603271484 44.638999938964844,-42.18600082397461 C44.85599899291992,-42.57699966430664 45.347999572753906,-42.71699905395508 45.736000061035156,-42.49599838256836 C46.125,-42.27899932861328 46.26499938964844,-41.78799819946289 46.047000885009766,-41.39899826049805 C45.81999969482422,-40.99300003051758 40.4119987487793,-31.409000396728516 34.58000183105469,-28.909000396728516 C31.26799964904785,-27.48900032043457 25.50200080871582,-28.447999954223633 18.201000213623047,-29.65999984741211 C12.536999702453613,-30.601999282836914 6.116000175476074,-31.667999267578125 0,-31.667999267578125 C-6.117000102996826,-31.667999267578125 -12.536999702453613,-30.601999282836914 -18.20199966430664,-29.65999984741211 C-22.91200065612793,-28.878000259399414 -26.98200035095215,-28.201000213623047 -30.16900062561035,-28.201000213623047z"></path></g></g><g opacity="1" transform="matrix(1,0,0,1,0,0)"><g opacity="1" transform="matrix(1,0,0,1,0,0)"><path fill="url(#__lottie_element_399)" fill-opacity="1" d=" M21.797000885009766,-53.220001220703125 C21.797000885009766,-53.220001220703125 21.797000885009766,-48.638999938964844 21.797000885009766,-48.638999938964844 C21.797000885009766,-48.638999938964844 13.729999542236328,-44.97700119018555 0.0020000000949949026,-44.97700119018555 C-13.72599983215332,-44.97700119018555 -19.679000854492188,-48.99399948120117 -19.679000854492188,-48.99399948120117 C-19.679000854492188,-48.99399948120117 -19.679000854492188,-53.220001220703125 -19.679000854492188,-53.220001220703125 C-19.679000854492188,-54.106998443603516 -19.388999938964844,-54.94599914550781 -18.87299919128418,-55.624000549316406 C-18.534000396728516,-56.108001708984375 -18.082000732421875,-56.512001037597656 -17.534000396728516,-56.801998138427734 C-14.597999572753906,-58.35100173950195 -8.54800033569336,-60.70600128173828 1.0670000314712524,-60.70600128173828 C10.682000160217285,-60.70600128173828 16.71500015258789,-58.35100173950195 19.650999069213867,-56.801998138427734 C20.424999237060547,-56.382999420166016 21.02199935913086,-55.75299835205078 21.39299964904785,-54.994998931884766 C21.650999069213867,-54.44599914550781 21.797000885009766,-53.8489990234375 21.797000885009766,-53.220001220703125z"></path></g><g opacity="1" transform="matrix(1,0,0,1,0,0)" style="mix-blend-mode: lighten;"><path fill="rgb(15,75,120)" fill-opacity="1" d=" M21.39299964904785,-54.994998931884766 C15.956999778747559,-53.624000549316406 9.439000129699707,-52.83300018310547 2.437999963760376,-52.83300018310547 C-5.5960001945495605,-52.83300018310547 -13.00100040435791,-53.88199996948242 -18.87299919128418,-55.624000549316406 C-18.534000396728516,-56.108001708984375 -18.082000732421875,-56.512001037597656 -17.534000396728516,-56.801998138427734 C-14.597999572753906,-58.35100173950195 -8.54800033569336,-60.70600128173828 1.0670000314712524,-60.70600128173828 C10.682000160217285,-60.70600128173828 16.71500015258789,-58.35100173950195 19.650999069213867,-56.801998138427734 C20.424999237060547,-56.382999420166016 21.02199935913086,-55.75299835205078 21.39299964904785,-54.994998931884766z"></path></g></g><g opacity="1" transform="matrix(1,0,0,1,0,0)"><path fill="url(#__lottie_element_400)" fill-opacity="1" d=" M40.57500076293945,-0.5009999871253967 C40.57500076293945,-0.5009999871253967 -40.57500076293945,-0.5009999871253967 -40.57500076293945,-0.5009999871253967 C-40.57500076293945,-0.5009999871253967 -40.57500076293945,-5.005000114440918 -40.57500076293945,-5.005000114440918 C-40.57500076293945,-5.005000114440918 40.57500076293945,-5.005000114440918 40.57500076293945,-5.005000114440918 C40.57500076293945,-5.005000114440918 40.57500076293945,-0.5009999871253967 40.57500076293945,-0.5009999871253967z M49.46500015258789,2.8010001182556152 C49.46500015258789,2.8010001182556152 -49.46500015258789,2.8010001182556152 -49.46500015258789,2.8010001182556152 C-49.46500015258789,2.8010001182556152 -49.46500015258789,7.303999900817871 -49.46500015258789,7.303999900817871 C-49.46500015258789,7.303999900817871 49.46500015258789,7.303999900817871 49.46500015258789,7.303999900817871 C49.46500015258789,7.303999900817871 49.46500015258789,2.8010001182556152 49.46500015258789,2.8010001182556152z M56.94200134277344,10.446000099182129 C56.94200134277344,10.446000099182129 -56.94200134277344,10.446000099182129 -56.94200134277344,10.446000099182129 C-56.94200134277344,10.446000099182129 -56.94200134277344,14.949000358581543 -56.94200134277344,14.949000358581543 C-56.94200134277344,14.949000358581543 56.94200134277344,14.949000358581543 56.94200134277344,14.949000358581543 C56.94200134277344,14.949000358581543 56.94200134277344,10.446000099182129 56.94200134277344,10.446000099182129z M61.68199920654297,18.250999450683594 C61.68199920654297,18.250999450683594 -61.68199920654297,18.250999450683594 -61.68199920654297,18.250999450683594 C-61.68199920654297,18.250999450683594 -61.68199920654297,22.7549991607666 -61.68199920654297,22.7549991607666 C-61.68199920654297,22.7549991607666 61.68199920654297,22.7549991607666 61.68199920654297,22.7549991607666 C61.68199920654297,22.7549991607666 61.68199920654297,18.250999450683594 61.68199920654297,18.250999450683594z M65,26.05699920654297 C65,26.05699920654297 -65,26.05699920654297 -65,26.05699920654297 C-65,26.05699920654297 -65,30.559999465942383 -65,30.559999465942383 C-65,30.559999465942383 65,30.559999465942383 65,30.559999465942383 C65,30.559999465942383 65,26.05699920654297 65,26.05699920654297z M67.84400177001953,33.862998962402344 C67.84400177001953,33.862998962402344 -67.84400177001953,33.862998962402344 -67.84400177001953,33.862998962402344 C-67.84400177001953,33.862998962402344 -67.84400177001953,38.36600112915039 -67.84400177001953,38.36600112915039 C-67.84400177001953,38.36600112915039 67.84400177001953,38.36600112915039 67.84400177001953,38.36600112915039 C67.84400177001953,38.36600112915039 67.84400177001953,33.862998962402344 67.84400177001953,33.862998962402344z M67.84400177001953,41.507999420166016 C67.84400177001953,41.507999420166016 -67.84400177001953,41.507999420166016 -67.84400177001953,41.507999420166016 C-67.84400177001953,41.507999420166016 -67.84400177001953,46.01100158691406 -67.84400177001953,46.01100158691406 C-67.84400177001953,46.01100158691406 67.84400177001953,46.01100158691406 67.84400177001953,46.01100158691406 C67.84400177001953,46.01100158691406 67.84400177001953,41.507999420166016 67.84400177001953,41.507999420166016z M65,49.3129997253418 C65,49.3129997253418 -65,49.3129997253418 -65,49.3129997253418 C-65,49.3129997253418 -65,53.816001892089844 -65,53.816001892089844 C-65,53.816001892089844 65,53.816001892089844 65,53.816001892089844 C65,53.816001892089844 65,49.3129997253418 65,49.3129997253418z M59.944000244140625,56.98500061035156 C59.944000244140625,56.98500061035156 -59.944000244140625,56.98500061035156 -59.944000244140625,56.98500061035156 C-59.944000244140625,56.98500061035156 -59.944000244140625,61.487998962402344 -59.944000244140625,61.487998962402344 C-59.944000244140625,61.487998962402344 59.944000244140625,61.487998962402344 59.944000244140625,61.487998962402344 C59.944000244140625,61.487998962402344 59.944000244140625,56.98500061035156 59.944000244140625,56.98500061035156z M50.62099838256836,64.79100036621094 C50.62099838256836,64.79100036621094 -50.62099838256836,64.79100036621094 -50.62099838256836,64.79100036621094 C-50.62099838256836,64.79100036621094 -50.62099838256836,69.29399871826172 -50.62099838256836,69.29399871826172 C-50.62099838256836,69.29399871826172 50.62099838256836,69.29399871826172 50.62099838256836,69.29399871826172 C50.62099838256836,69.29399871826172 50.62099838256836,64.79100036621094 50.62099838256836,64.79100036621094z M29.132999420166016,72.43599700927734 C29.132999420166016,72.43599700927734 -29.132999420166016,72.43599700927734 -29.132999420166016,72.43599700927734 C-29.132999420166016,72.43599700927734 -29.132999420166016,76.93900299072266 -29.132999420166016,76.93900299072266 C-29.132999420166016,76.93900299072266 29.132999420166016,76.93900299072266 29.132999420166016,76.93900299072266 C29.132999420166016,76.93900299072266 29.132999420166016,72.43599700927734 29.132999420166016,72.43599700927734z"></path></g></g></g><g style="display: block;" transform="matrix(1,0,0,1,176,175)" opacity="1"><g opacity="1" transform="matrix(1,0,0,1,0,0)"><path stroke-linecap="round" stroke-linejoin="miter" fill-opacity="0" stroke-miterlimit="10" stroke="rgb(10,24,58)" stroke-opacity="1" stroke-width="1.5" d=" M1.0529999732971191,-56.77000045776367 C1.0529999732971191,-56.77000045776367 0,-85.62699890136719 9.293999671936035,-95.91999816894531"></path></g><g opacity="1" transform="matrix(1,0,0,1,0,0)"><path fill="url(#__lottie_element_412)" fill-opacity="1" d=" M20.183000564575195,-95.58300018310547 C20.183000564575195,-93.51799774169922 19.601999282836914,-91.5979995727539 18.586000442504883,-89.9530029296875 C16.697999954223633,-86.79100036621094 13.246999740600586,-84.69400024414062 9.293999671936035,-84.69400024414062 C3.2769999504089355,-84.69400024414062 -1.5950000286102295,-89.56600189208984 -1.5950000286102295,-95.58300018310547 C-1.5950000286102295,-99.35800170898438 0.32499998807907104,-102.68099975585938 3.244999885559082,-104.63300323486328 C4.9710001945495605,-105.79499816894531 7.052000045776367,-106.47200012207031 9.293999671936035,-106.47200012207031 C15.310999870300293,-106.47200012207031 20.183000564575195,-101.5999984741211 20.183000564575195,-95.58300018310547z"></path></g><g opacity="1" transform="matrix(1,0,0,1,0,0)" style="mix-blend-mode: lighten;"><path fill="rgb(15,75,120)" fill-opacity="1" d=" M20.183000564575195,-95.58300018310547 C20.183000564575195,-93.51799774169922 19.601999282836914,-91.5979995727539 18.586000442504883,-89.9530029296875 C18.44099998474121,-89.93699645996094 18.312000274658203,-89.93699645996094 18.16699981689453,-89.93699645996094 C10.003999710083008,-89.93699645996094 3.374000072479248,-96.48600006103516 3.244999885559082,-104.63300323486328 C4.9710001945495605,-105.79499816894531 7.052000045776367,-106.47200012207031 9.293999671936035,-106.47200012207031 C15.310999870300293,-106.47200012207031 20.183000564575195,-101.5999984741211 20.183000564575195,-95.58300018310547z"></path></g></g><g style="display: block;" transform="matrix(1,0,0,1,175,175)" opacity="1"><g opacity="1" transform="matrix(1,0,0,1,0,0)"><path fill="rgb(62,255,232)" fill-opacity="1" d=" M-29.163000106811523,45.88800048828125 C-29.163000106811523,45.88800048828125 -52.31399917602539,45.88800048828125 -52.31399917602539,45.88800048828125 C-53.417999267578125,45.88800048828125 -54.154998779296875,44.7599983215332 -53.71699905395508,43.74700164794922 C-52.44200134277344,40.79999923706055 -49.0620002746582,35.85499954223633 -40.737998962402344,35.85499954223633 C-32.41400146484375,35.85499954223633 -29.03499984741211,40.79999923706055 -27.760000228881836,43.74700164794922 C-27.32200050354004,44.7599983215332 -28.05900001525879,45.88800048828125 -29.163000106811523,45.88800048828125z"></path></g></g><g style="display: block;" transform="matrix(1,0,0,1,257.75,175)" opacity="1"><g opacity="1" transform="matrix(1,0,0,1,0,0)"><path fill="rgb(62,255,232)" fill-opacity="1" d=" M-29.163000106811523,45.88800048828125 C-29.163000106811523,45.88800048828125 -52.31399917602539,45.88800048828125 -52.31399917602539,45.88800048828125 C-53.417999267578125,45.88800048828125 -54.154998779296875,44.7599983215332 -53.71699905395508,43.74700164794922 C-52.44200134277344,40.79999923706055 -49.0620002746582,35.85499954223633 -40.737998962402344,35.85499954223633 C-32.41400146484375,35.85499954223633 -29.03499984741211,40.79999923706055 -27.760000228881836,43.74700164794922 C-27.32200050354004,44.7599983215332 -28.05900001525879,45.88800048828125 -29.163000106811523,45.88800048828125z"></path></g></g><g style="display: block;" transform="matrix(1,0,0,1,175,175)" opacity="1"><g opacity="1" transform="matrix(1,0,0,1,0,0)"><path fill="rgb(62,255,232)" fill-opacity="1" d=" M13.255999565124512,58.694000244140625 C12.312999725341797,71.81300354003906 -12.125,71.81300354003906 -13.255999565124512,58.694000244140625 C-13.3100004196167,58.071998596191406 -14.45300006866455,57.90599822998047 -14.248000144958496,59.987998962402344 C-13.954000473022461,62.96900177001953 -12.119000434875488,70.96900177001953 0,70.96900177001953 C12.119000434875488,70.96900177001953 13.979000091552734,62.97100067138672 14.248000144958496,59.987998962402344 C14.5,57.1870002746582 13.300999641418457,58.07099914550781 13.255999565124512,58.694000244140625z"></path></g></g></g></svg>