<svg width="1276" height="1276" viewBox="0 0 1276 1276" fill="none" xmlns="http://www.w3.org/2000/svg">
<g clip-path="url(#clip0_676_1497)">
<path d="M442.633 249.026L408.07 216.93" stroke="#7D9BFF" stroke-opacity="0.1" stroke-width="10" stroke-linecap="round" stroke-linejoin="round"/>
<path d="M409.203 250.149L441.613 215.92" stroke="#7D9BFF" stroke-opacity="0.1" stroke-width="10" stroke-linecap="round" stroke-linejoin="round"/>
<path d="M482.409 741.585L447.846 709.488" stroke="#7D9BFF" stroke-opacity="0.1" stroke-width="10" stroke-linecap="round" stroke-linejoin="round"/>
<path d="M448.865 742.707L481.275 708.479" stroke="#7D9BFF" stroke-opacity="0.1" stroke-width="10" stroke-linecap="round" stroke-linejoin="round"/>
<path d="M61.7603 1016.76L27.1973 984.662" stroke="#7D9BFF" stroke-opacity="0.1" stroke-width="10" stroke-linecap="round" stroke-linejoin="round"/>
<path d="M28.2168 1017.88L60.6267 983.652" stroke="#7D9BFF" stroke-opacity="0.1" stroke-width="10" stroke-linecap="round" stroke-linejoin="round"/>
<path d="M46.6861 202.225L12.123 170.129" stroke="#7D9BFF" stroke-opacity="0.1" stroke-width="10" stroke-linecap="round" stroke-linejoin="round"/>
<path d="M13.1426 203.236L45.5525 169.008" stroke="#7D9BFF" stroke-opacity="0.1" stroke-width="10" stroke-linecap="round" stroke-linejoin="round"/>
<path d="M1276 248.239L1241.44 216.143" stroke="#7D9BFF" stroke-opacity="0.1" stroke-width="10" stroke-linecap="round" stroke-linejoin="round"/>
<path d="M1242.46 249.25L1274.98 215.021" stroke="#7D9BFF" stroke-opacity="0.1" stroke-width="10" stroke-linecap="round" stroke-linejoin="round"/>
<path d="M868.157 422.862L833.594 390.766" stroke="#7D9BFF" stroke-opacity="0.1" stroke-width="10" stroke-linecap="round" stroke-linejoin="round"/>
<path d="M834.727 423.985L867.137 389.645" stroke="#7D9BFF" stroke-opacity="0.1" stroke-width="10" stroke-linecap="round" stroke-linejoin="round"/>
<path d="M1036.78 803.981L1002.22 771.885" stroke="#7D9BFF" stroke-opacity="0.1" stroke-width="10" stroke-linecap="round" stroke-linejoin="round"/>
<path d="M1003.24 805.104L1035.65 770.875" stroke="#7D9BFF" stroke-opacity="0.1" stroke-width="10" stroke-linecap="round" stroke-linejoin="round"/>
<path d="M1009.92 1114.5L975.357 1082.41" stroke="#7D9BFF" stroke-opacity="0.1" stroke-width="10" stroke-linecap="round" stroke-linejoin="round"/>
<path d="M976.377 1115.52L1008.79 1081.29" stroke="#7D9BFF" stroke-opacity="0.1" stroke-width="10" stroke-linecap="round" stroke-linejoin="round"/>
<path d="M699.535 300.427L675.738 259.689L652.053 300.427L628.256 341.277H675.738L723.333 341.165L699.535 300.427Z" stroke="#7D9BFF" stroke-opacity="0.1" stroke-width="10" stroke-linecap="round" stroke-linejoin="round"/>
<path d="M620.889 798.707L597.091 757.969L573.294 798.819L549.609 839.556H597.091H644.686L620.889 798.707Z" stroke="#7D9BFF" stroke-opacity="0.1" stroke-width="10" stroke-linecap="round" stroke-linejoin="round"/>
<path d="M893.654 951.783L869.857 911.045L846.059 951.783L822.375 992.633L869.857 992.52H917.452L893.654 951.783Z" stroke="#7D9BFF" stroke-opacity="0.1" stroke-width="10" stroke-linecap="round" stroke-linejoin="round"/>
<path d="M1050.49 638.785L1062.73 593.334L1016.83 605.566L970.939 617.799L1004.6 651.018L1038.25 684.349L1050.49 638.785Z" stroke="#7D9BFF" stroke-opacity="0.1" stroke-width="10" stroke-linecap="round" stroke-linejoin="round"/>
<path d="M268.686 110.654L281.039 65.2031L235.143 77.4357L189.135 89.6682L222.791 122.887L256.448 156.218L268.686 110.654Z" stroke="#7D9BFF" stroke-opacity="0.1" stroke-width="10" stroke-linecap="round" stroke-linejoin="round"/>
<path d="M236.161 1093.63L248.4 1048.07L202.505 1060.3L156.609 1072.54L190.266 1105.75L223.922 1139.08L236.161 1093.63Z" stroke="#7D9BFF" stroke-opacity="0.1" stroke-width="10" stroke-linecap="round" stroke-linejoin="round"/>
<path d="M1098.65 161.492L1139.79 137.925L1098.65 114.47L1057.4 90.9023L1057.52 138.037V185.059L1098.65 161.492Z" stroke="#7D9BFF" stroke-opacity="0.1" stroke-width="10" stroke-linecap="round" stroke-linejoin="round"/>
<path d="M235.142 631.826L276.277 608.259L235.142 584.804L193.893 561.236V608.371L194.006 655.393L235.142 631.826Z" stroke="#7D9BFF" stroke-opacity="0.1" stroke-width="10" stroke-linecap="round" stroke-linejoin="round"/>
<path d="M779.877 554.729C779.877 574.48 763.672 590.528 743.841 590.528C723.896 590.528 707.691 574.48 707.691 554.729C707.691 535.089 723.896 519.041 743.841 519.041C763.672 519.041 779.877 535.089 779.877 554.729Z" stroke="#7D9BFF" stroke-opacity="0.1" stroke-width="10" stroke-linecap="round" stroke-linejoin="round"/>
<path d="M597.657 156.218C597.657 175.857 581.451 191.905 561.62 191.905C541.676 191.905 525.471 175.857 525.471 156.218C525.471 136.466 541.676 120.418 561.62 120.418C581.451 120.418 597.657 136.466 597.657 156.218Z" stroke="#7D9BFF" stroke-opacity="0.1" stroke-width="10" stroke-linecap="round" stroke-linejoin="round"/>
<path d="M620.662 1210.35C620.662 1229.99 604.457 1246.04 584.626 1246.04C564.682 1246.04 548.477 1229.99 548.477 1210.35C548.477 1190.6 564.682 1174.55 584.626 1174.55C604.457 1174.55 620.662 1190.6 620.662 1210.35Z" stroke="#7D9BFF" stroke-opacity="0.1" stroke-width="10" stroke-linecap="round" stroke-linejoin="round"/>
<path d="M717.1 1156.93C717.1 1137.18 733.305 1121.24 753.136 1121.24C773.08 1121.24 789.285 1137.18 789.285 1156.93" stroke="#7D9BFF" stroke-opacity="0.1" stroke-width="10" stroke-linecap="round" stroke-linejoin="round"/>
<path d="M429.264 608.372C429.264 588.62 445.355 572.572 465.3 572.572C485.245 572.572 501.449 588.62 501.449 608.372" stroke="#7D9BFF" stroke-opacity="0.1" stroke-width="10" stroke-linecap="round" stroke-linejoin="round"/>
<path d="M49.8633 318.384C49.8633 298.632 65.8416 282.584 85.6729 282.584C105.504 282.584 121.596 298.632 121.596 318.384" stroke="#7D9BFF" stroke-opacity="0.1" stroke-width="10" stroke-linecap="round" stroke-linejoin="round"/>
<path d="M958.927 376.854C938.982 376.854 922.891 360.918 922.891 341.278C922.891 321.639 938.982 305.703 958.927 305.703" stroke="#7D9BFF" stroke-opacity="0.1" stroke-width="10" stroke-linecap="round" stroke-linejoin="round"/>
<path d="M90.4308 1210.12C70.5995 1210.12 54.3945 1194.19 54.3945 1174.55C54.3945 1154.91 70.5995 1139.09 90.4308 1139.09" stroke="#7D9BFF" stroke-opacity="0.1" stroke-width="10" stroke-linecap="round" stroke-linejoin="round"/>
<path d="M477.536 74.1811C457.592 74.1811 441.387 58.3574 441.387 38.718C441.387 19.0785 457.592 3.14258 477.536 3.14258" stroke="#7D9BFF" stroke-opacity="0.1" stroke-width="10" stroke-linecap="round" stroke-linejoin="round"/>
<path d="M108.563 834.508C108.563 854.26 92.3578 870.195 72.4132 870.195C52.5819 870.195 36.377 854.26 36.377 834.508C36.377 814.756 52.5819 798.82 72.4132 798.82C92.3578 798.82 108.563 814.756 108.563 834.508Z" stroke="#7D9BFF" stroke-opacity="0.1" stroke-width="10" stroke-linecap="round" stroke-linejoin="round"/>
<path d="M1220.7 875.244C1220.7 894.996 1204.49 911.044 1184.66 911.044C1164.72 911.044 1148.51 894.996 1148.51 875.244C1148.51 855.605 1164.72 839.557 1184.66 839.557C1204.49 839.557 1220.7 855.605 1220.7 875.244Z" stroke="#7D9BFF" stroke-opacity="0.1" stroke-width="10" stroke-linecap="round" stroke-linejoin="round"/>
<path d="M1120.97 305.703H1192.71V376.854H1120.97V305.703Z" stroke="#7D9BFF" stroke-opacity="0.1" stroke-width="10" stroke-linecap="round" stroke-linejoin="round"/>
<path d="M309.82 341.277H381.553V412.316H309.82V341.277Z" stroke="#7D9BFF" stroke-opacity="0.1" stroke-width="10" stroke-linecap="round" stroke-linejoin="round"/>
<path d="M306.193 794.893H377.926V865.931H306.193V794.893Z" stroke="#7D9BFF" stroke-opacity="0.1" stroke-width="10" stroke-linecap="round" stroke-linejoin="round"/>
<path d="M1120.97 1139.09H1192.71V1210.12H1120.97V1139.09Z" stroke="#7D9BFF" stroke-opacity="0.1" stroke-width="10" stroke-linecap="round" stroke-linejoin="round"/>
<path d="M823.279 3.14258H895.125V74.1811H823.279V3.14258Z" stroke="#7D9BFF" stroke-opacity="0.1" stroke-width="10" stroke-linecap="round" stroke-linejoin="round"/>
<path d="M720.271 725.534C704.633 725.534 707.24 698.039 687.295 698.039" stroke="#7D9BFF" stroke-opacity="0.1" stroke-width="10" stroke-linecap="round" stroke-linejoin="round"/>
<path d="M786.109 725.534C770.471 725.534 773.191 698.039 753.246 698.039" stroke="#7D9BFF" stroke-opacity="0.1" stroke-width="10" stroke-linecap="round" stroke-linejoin="round"/>
<path d="M720.271 725.534C735.91 725.534 733.19 698.039 753.248 698.039" stroke="#7D9BFF" stroke-opacity="0.1" stroke-width="10" stroke-linecap="round" stroke-linejoin="round"/>
<path d="M786.109 725.534C801.748 725.534 799.141 698.039 819.086 698.039" stroke="#7D9BFF" stroke-opacity="0.1" stroke-width="10" stroke-linecap="round" stroke-linejoin="round"/>
<path d="M907.932 1237.84C892.293 1237.84 895.013 1210.35 874.955 1210.35" stroke="#7D9BFF" stroke-opacity="0.1" stroke-width="10" stroke-linecap="round" stroke-linejoin="round"/>
<path d="M973.883 1237.84C958.131 1237.84 960.851 1210.35 940.906 1210.35" stroke="#7D9BFF" stroke-opacity="0.1" stroke-width="10" stroke-linecap="round" stroke-linejoin="round"/>
<path d="M907.932 1237.84C923.57 1237.84 920.964 1210.35 940.908 1210.35" stroke="#7D9BFF" stroke-opacity="0.1" stroke-width="10" stroke-linecap="round" stroke-linejoin="round"/>
<path d="M973.887 1237.84C989.525 1237.84 986.805 1210.35 1006.75 1210.35" stroke="#7D9BFF" stroke-opacity="0.1" stroke-width="10" stroke-linecap="round" stroke-linejoin="round"/>
<path d="M997.795 499.292C982.157 499.292 984.876 471.797 964.818 471.797" stroke="#7D9BFF" stroke-opacity="0.1" stroke-width="10" stroke-linecap="round" stroke-linejoin="round"/>
<path d="M1063.63 499.292C1047.99 499.292 1050.71 471.797 1030.77 471.797" stroke="#7D9BFF" stroke-opacity="0.1" stroke-width="10" stroke-linecap="round" stroke-linejoin="round"/>
<path d="M997.795 499.292C1013.43 499.292 1010.71 471.797 1030.77 471.797" stroke="#7D9BFF" stroke-opacity="0.1" stroke-width="10" stroke-linecap="round" stroke-linejoin="round"/>
<path d="M1063.63 499.292C1079.38 499.292 1076.66 471.797 1096.61 471.797" stroke="#7D9BFF" stroke-opacity="0.1" stroke-width="10" stroke-linecap="round" stroke-linejoin="round"/>
<path d="M81.4804 466.069C65.842 466.069 68.5618 438.574 48.6172 438.574" stroke="#7D9BFF" stroke-opacity="0.1" stroke-width="10" stroke-linecap="round" stroke-linejoin="round"/>
<path d="M147.434 466.069C131.795 466.069 134.402 438.574 114.457 438.574" stroke="#7D9BFF" stroke-opacity="0.1" stroke-width="10" stroke-linecap="round" stroke-linejoin="round"/>
<path d="M81.4805 466.069C97.2322 466.069 94.5124 438.574 114.457 438.574" stroke="#7D9BFF" stroke-opacity="0.1" stroke-width="10" stroke-linecap="round" stroke-linejoin="round"/>
<path d="M147.432 466.069C163.07 466.069 160.35 438.574 180.408 438.574" stroke="#7D9BFF" stroke-opacity="0.1" stroke-width="10" stroke-linecap="round" stroke-linejoin="round"/>
<path d="M725.711 97.8594C725.711 113.346 697.947 110.653 697.947 130.405" stroke="#7D9BFF" stroke-opacity="0.1" stroke-width="10" stroke-linecap="round" stroke-linejoin="round"/>
<path d="M725.711 32.5449C725.711 48.1442 697.947 45.4508 697.947 65.2025" stroke="#7D9BFF" stroke-opacity="0.1" stroke-width="10" stroke-linecap="round" stroke-linejoin="round"/>
<path d="M725.711 97.8606C725.711 82.3736 697.947 84.9548 697.947 65.2031" stroke="#7D9BFF" stroke-opacity="0.1" stroke-width="10" stroke-linecap="round" stroke-linejoin="round"/>
<path d="M725.711 32.5453C725.711 17.0582 697.947 19.7516 697.947 0" stroke="#7D9BFF" stroke-opacity="0.1" stroke-width="10" stroke-linecap="round" stroke-linejoin="round"/>
<path d="M523.658 439.135C523.658 454.622 495.895 452.041 495.895 471.792" stroke="#7D9BFF" stroke-opacity="0.1" stroke-width="10" stroke-linecap="round" stroke-linejoin="round"/>
<path d="M523.658 373.932C523.658 389.419 495.895 386.725 495.895 406.477" stroke="#7D9BFF" stroke-opacity="0.1" stroke-width="10" stroke-linecap="round" stroke-linejoin="round"/>
<path d="M523.658 439.136C523.658 423.649 495.895 426.342 495.895 406.479" stroke="#7D9BFF" stroke-opacity="0.1" stroke-width="10" stroke-linecap="round" stroke-linejoin="round"/>
<path d="M523.658 373.933C523.658 358.446 495.895 361.027 495.895 341.275" stroke="#7D9BFF" stroke-opacity="0.1" stroke-width="10" stroke-linecap="round" stroke-linejoin="round"/>
<path d="M1071.34 984.439C1071.34 999.927 1043.58 997.233 1043.58 1016.98" stroke="#7D9BFF" stroke-opacity="0.1" stroke-width="10" stroke-linecap="round" stroke-linejoin="round"/>
<path d="M1071.34 919.125C1071.34 934.724 1043.58 932.031 1043.58 951.782" stroke="#7D9BFF" stroke-opacity="0.1" stroke-width="10" stroke-linecap="round" stroke-linejoin="round"/>
<path d="M1071.34 984.441C1071.34 968.954 1043.58 971.535 1043.58 951.783" stroke="#7D9BFF" stroke-opacity="0.1" stroke-width="10" stroke-linecap="round" stroke-linejoin="round"/>
<path d="M1071.34 919.125C1071.34 903.638 1043.58 906.332 1043.58 886.58" stroke="#7D9BFF" stroke-opacity="0.1" stroke-width="10" stroke-linecap="round" stroke-linejoin="round"/>
<path d="M391.867 1035.84C391.867 1051.32 364.104 1048.63 364.104 1068.5" stroke="#7D9BFF" stroke-opacity="0.1" stroke-width="10" stroke-linecap="round" stroke-linejoin="round"/>
<path d="M391.867 970.635C391.867 986.122 364.104 983.428 364.104 1003.18" stroke="#7D9BFF" stroke-opacity="0.1" stroke-width="10" stroke-linecap="round" stroke-linejoin="round"/>
<path d="M391.867 1035.84C391.867 1020.35 364.104 1023.05 364.104 1003.18" stroke="#7D9BFF" stroke-opacity="0.1" stroke-width="10" stroke-linecap="round" stroke-linejoin="round"/>
<path d="M391.867 970.636C391.867 955.037 364.104 957.73 364.104 937.979" stroke="#7D9BFF" stroke-opacity="0.1" stroke-width="10" stroke-linecap="round" stroke-linejoin="round"/>
<path d="M799.141 798.82H880.505" stroke="#7D9BFF" stroke-opacity="0.1" stroke-width="10" stroke-linecap="round" stroke-linejoin="round"/>
<path d="M0 566.176H81.2515" stroke="#7D9BFF" stroke-opacity="0.1" stroke-width="10" stroke-linecap="round" stroke-linejoin="round"/>
<path d="M805.262 191.904H886.513" stroke="#7D9BFF" stroke-opacity="0.1" stroke-width="10" stroke-linecap="round" stroke-linejoin="round"/>
<path d="M1125.73 10.2129H1206.99" stroke="#7D9BFF" stroke-opacity="0.1" stroke-width="10" stroke-linecap="round" stroke-linejoin="round"/>
<path d="M324.1 1210.12H405.351" stroke="#7D9BFF" stroke-opacity="0.1" stroke-width="10" stroke-linecap="round" stroke-linejoin="round"/>
<path d="M532.836 1054.58L590.29 997.682" stroke="#7D9BFF" stroke-opacity="0.1" stroke-width="10" stroke-linecap="round" stroke-linejoin="round"/>
<path d="M57.002 67.111L114.456 10.2129" stroke="#7D9BFF" stroke-opacity="0.1" stroke-width="10" stroke-linecap="round" stroke-linejoin="round"/>
<path d="M1166.42 650.679L1223.87 593.781" stroke="#7D9BFF" stroke-opacity="0.1" stroke-width="10" stroke-linecap="round" stroke-linejoin="round"/>
<g opacity="0.3">
<path d="M751.209 330.39L727.411 289.652L703.727 330.502L679.93 371.24H727.525H775.006L751.209 330.39Z" stroke="#7D9BFF" stroke-opacity="0.1" stroke-width="2" stroke-miterlimit="10"/>
<path d="M672.562 828.782L648.765 787.932L625.081 828.782L601.283 869.519H648.765H696.36L672.562 828.782Z" stroke="#7D9BFF" stroke-opacity="0.1" stroke-width="2" stroke-miterlimit="10"/>
<path d="M945.326 981.744L921.529 941.006L897.731 981.744L874.047 1022.59L921.529 1022.48H969.124L945.326 981.744Z" stroke="#7D9BFF" stroke-opacity="0.1" stroke-width="2" stroke-miterlimit="10"/>
<path d="M1102.16 668.75L1114.52 623.299L1068.62 635.531L1022.61 647.764L1056.27 680.983L1089.93 714.313L1102.16 668.75Z" stroke="#7D9BFF" stroke-opacity="0.1" stroke-width="2" stroke-miterlimit="10"/>
<path d="M320.472 140.731L332.71 95.168L286.815 107.401L240.92 119.633L274.576 152.852L308.12 186.183L320.472 140.731Z" stroke="#7D9BFF" stroke-opacity="0.1" stroke-width="2" stroke-miterlimit="10"/>
<path d="M287.835 1123.6L300.187 1078.04L254.292 1090.27L208.283 1102.5L241.94 1135.83L275.596 1169.05L287.835 1123.6Z" stroke="#7D9BFF" stroke-opacity="0.1" stroke-width="2" stroke-miterlimit="10"/>
<path d="M1150.32 191.453L1191.46 167.886L1150.32 144.431L1109.19 120.863V167.998V215.02L1150.32 191.453Z" stroke="#7D9BFF" stroke-opacity="0.1" stroke-width="2" stroke-miterlimit="10"/>
<path d="M286.815 661.791L327.951 638.224L286.815 614.768L245.566 591.201L245.68 638.336V685.358L286.815 661.791Z" stroke="#7D9BFF" stroke-opacity="0.1" stroke-width="2" stroke-miterlimit="10"/>
<path d="M831.553 584.804C831.553 604.443 815.461 620.491 795.517 620.491C775.572 620.491 759.48 604.443 759.48 584.804C759.48 565.052 775.572 549.004 795.517 549.004C815.461 549.004 831.553 565.052 831.553 584.804Z" stroke="#7D9BFF" stroke-opacity="0.1" stroke-width="2" stroke-miterlimit="10"/>
<path d="M649.332 186.18C649.332 205.931 633.241 221.867 613.296 221.867C593.351 221.867 577.26 205.931 577.26 186.18C577.26 166.428 593.351 150.492 613.296 150.492C633.241 150.492 649.332 166.428 649.332 186.18Z" stroke="#7D9BFF" stroke-opacity="0.1" stroke-width="2" stroke-miterlimit="10"/>
<path d="M672.334 1240.31C672.334 1260.06 656.243 1276 636.298 1276C616.353 1276 600.262 1260.06 600.262 1240.31C600.262 1220.56 616.353 1204.62 636.298 1204.62C656.243 1204.62 672.334 1220.56 672.334 1240.31Z" stroke="#7D9BFF" stroke-opacity="0.1" stroke-width="2" stroke-miterlimit="10"/>
<path d="M768.887 1186.89C768.887 1167.14 784.978 1151.21 804.923 1151.21C824.868 1151.21 840.959 1167.14 840.959 1186.89" stroke="#7D9BFF" stroke-opacity="0.1" stroke-width="2" stroke-miterlimit="10"/>
<path d="M480.938 638.334C480.938 618.582 497.142 602.646 517.087 602.646C536.918 602.646 553.123 618.582 553.123 638.334" stroke="#7D9BFF" stroke-opacity="0.1" stroke-width="2" stroke-miterlimit="10"/>
<path d="M101.537 348.346C101.537 328.594 117.629 312.658 137.46 312.658C157.291 312.658 173.383 328.594 173.383 348.346" stroke="#7D9BFF" stroke-opacity="0.1" stroke-width="2" stroke-miterlimit="10"/>
<path d="M1010.6 406.815C990.769 406.815 974.564 390.879 974.564 371.239C974.564 351.6 990.769 335.664 1010.6 335.664" stroke="#7D9BFF" stroke-opacity="0.1" stroke-width="2" stroke-miterlimit="10"/>
<path d="M142.218 1240.09C122.273 1240.09 106.068 1224.26 106.068 1204.62C106.068 1184.98 122.273 1169.05 142.218 1169.05" stroke="#7D9BFF" stroke-opacity="0.1" stroke-width="2" stroke-miterlimit="10"/>
<path d="M529.21 104.256C509.265 104.256 493.174 88.3202 493.174 68.6808C493.174 49.0414 509.265 33.1055 529.21 33.1055" stroke="#7D9BFF" stroke-opacity="0.1" stroke-width="2" stroke-miterlimit="10"/>
<path d="M160.237 864.471C160.237 884.222 144.032 900.158 124.2 900.158C104.256 900.158 88.0508 884.222 88.0508 864.471C88.0508 844.719 104.256 828.783 124.2 828.783C144.032 828.783 160.237 844.719 160.237 864.471Z" stroke="#7D9BFF" stroke-opacity="0.1" stroke-width="2" stroke-miterlimit="10"/>
<path d="M1272.37 905.207C1272.37 924.959 1256.28 941.007 1236.34 941.007C1216.39 941.007 1200.3 924.959 1200.3 905.207C1200.3 885.568 1216.39 869.52 1236.34 869.52C1256.28 869.52 1272.37 885.568 1272.37 905.207Z" stroke="#7D9BFF" stroke-opacity="0.1" stroke-width="2" stroke-miterlimit="10"/>
<path d="M1172.65 335.775H1244.38V406.814H1172.65V335.775Z" stroke="#7D9BFF" stroke-opacity="0.1" stroke-width="2" stroke-miterlimit="10"/>
<path d="M361.494 371.242H433.227V442.281H361.494V371.242Z" stroke="#7D9BFF" stroke-opacity="0.1" stroke-width="2" stroke-miterlimit="10"/>
<path d="M357.867 824.854H429.6V895.892H357.867V824.854Z" stroke="#7D9BFF" stroke-opacity="0.1" stroke-width="2" stroke-miterlimit="10"/>
<path d="M1172.65 1169.05H1244.38V1240.09H1172.65V1169.05Z" stroke="#7D9BFF" stroke-opacity="0.1" stroke-width="2" stroke-miterlimit="10"/>
<path d="M875.068 33.1055H946.801V104.144H875.068V33.1055Z" stroke="#7D9BFF" stroke-opacity="0.1" stroke-width="2" stroke-miterlimit="10"/>
<path d="M850.932 828.783H932.183" stroke="#7D9BFF" stroke-opacity="0.1" stroke-width="2" stroke-miterlimit="10"/>
<path d="M51.6738 596.137H133.039" stroke="#7D9BFF" stroke-opacity="0.1" stroke-width="2" stroke-miterlimit="10"/>
<path d="M856.936 221.867H938.3" stroke="#7D9BFF" stroke-opacity="0.1" stroke-width="2" stroke-miterlimit="10"/>
<path d="M1177.41 40.1777H1258.78" stroke="#7D9BFF" stroke-opacity="0.1" stroke-width="2" stroke-miterlimit="10"/>
<path d="M375.773 1240.09H457.138" stroke="#7D9BFF" stroke-opacity="0.1" stroke-width="2" stroke-miterlimit="10"/>
<path d="M584.512 1084.65L642.079 1027.64" stroke="#7D9BFF" stroke-opacity="0.1" stroke-width="2" stroke-miterlimit="10"/>
<path d="M108.676 97.0759L166.13 40.1777" stroke="#7D9BFF" stroke-opacity="0.1" stroke-width="2" stroke-miterlimit="10"/>
<path d="M1218.09 680.758L1275.55 623.748" stroke="#7D9BFF" stroke-opacity="0.1" stroke-width="2" stroke-miterlimit="10"/>
</g>
<path d="M740.216 989.378C733.53 993.53 724.804 991.51 720.611 985.001C716.418 978.38 718.345 969.738 725.031 965.586C731.717 961.434 740.442 963.454 744.635 969.963C748.828 976.584 746.788 985.225 740.216 989.378Z" stroke="#7D9BFF" stroke-opacity="0.1" stroke-width="10" stroke-linecap="round" stroke-linejoin="round"/>
<path d="M628.255 602.423C621.569 606.575 612.843 604.555 608.65 597.934C604.457 591.424 606.497 582.671 613.07 578.631C619.755 574.478 628.481 576.386 632.674 583.008C636.867 589.517 634.827 598.27 628.255 602.423Z" stroke="#7D9BFF" stroke-opacity="0.1" stroke-width="10" stroke-linecap="round" stroke-linejoin="round"/>
<path d="M116.266 721.383C109.58 725.536 100.855 723.516 96.6617 717.007C92.4688 710.385 94.5086 701.744 101.081 697.592C107.767 693.439 116.493 695.459 120.686 701.968C124.879 708.59 122.839 717.231 116.266 721.383Z" stroke="#7D9BFF" stroke-opacity="0.1" stroke-width="10" stroke-linecap="round" stroke-linejoin="round"/>
<path d="M261.772 278.543C255.2 282.695 246.361 280.787 242.281 274.166C238.088 267.544 240.015 258.903 246.701 254.751C253.273 250.599 262.112 252.619 266.305 259.24C270.498 265.749 268.458 274.502 261.772 278.543Z" stroke="#7D9BFF" stroke-opacity="0.1" stroke-width="10" stroke-linecap="round" stroke-linejoin="round"/>
<path d="M1043.24 271.585C1036.55 275.737 1027.83 273.717 1023.63 267.208C1019.44 260.587 1021.48 251.945 1028.05 247.793C1034.74 243.641 1043.46 245.661 1047.66 252.17C1051.85 258.791 1049.81 267.432 1043.24 271.585Z" stroke="#7D9BFF" stroke-opacity="0.1" stroke-width="10" stroke-linecap="round" stroke-linejoin="round"/>
<path d="M1243.93 772.784C1237.25 776.936 1228.52 775.028 1224.33 768.407C1220.13 761.786 1222.17 753.144 1228.75 748.992C1235.43 744.84 1244.16 746.86 1248.35 753.369C1252.54 759.99 1250.5 768.631 1243.93 772.784Z" stroke="#7D9BFF" stroke-opacity="0.1" stroke-width="10" stroke-linecap="round" stroke-linejoin="round"/>
</g>
<defs>
<clipPath id="clip0_676_1497">
<rect width="1276" height="1276" fill="white"/>
</clipPath>
</defs>
</svg>
