<svg xmlns="http://www.w3.org/2000/svg" xmlns:xlink="http://www.w3.org/1999/xlink" viewBox="0 0 250.01 143.45"><defs><style>.cls-1{isolation:isolate;}.cls-2{fill:url(#linear-gradient);}.cls-3{fill:url(#linear-gradient-2);}.cls-4,.cls-5,.cls-6,.cls-7{mix-blend-mode:screen;}.cls-4{fill:url(#linear-gradient-3);}.cls-5,.cls-6,.cls-7{opacity:0.66;}.cls-5{fill:url(#linear-gradient-4);}.cls-6{fill:url(#linear-gradient-5);}.cls-7{fill:url(#linear-gradient-6);}.cls-10,.cls-8,.cls-9{mix-blend-mode:multiply;opacity:0.8;}.cls-8{fill:url(#linear-gradient-7);}.cls-9{fill:url(#linear-gradient-8);}.cls-10{fill:url(#linear-gradient-9);}</style><linearGradient id="linear-gradient" x1="117.52" y1="160.76" x2="367.53" y2="160.76" gradientUnits="userSpaceOnUse"><stop offset="0" stop-color="#0a8eff"/><stop offset="1" stop-color="#333499"/></linearGradient><linearGradient id="linear-gradient-2" x1="117.52" y1="164.96" x2="367.53" y2="164.96" xlink:href="#linear-gradient"/><linearGradient id="linear-gradient-3" x1="117.52" y1="165.24" x2="357.91" y2="165.24" xlink:href="#linear-gradient"/><linearGradient id="linear-gradient-4" x1="127" y1="134.49" x2="180.41" y2="134.49" gradientUnits="userSpaceOnUse"><stop offset="0"/><stop offset="0.58" stop-color="#fff"/><stop offset="1"/></linearGradient><linearGradient id="linear-gradient-5" x1="242.2" y1="183.62" x2="271.78" y2="183.62" xlink:href="#linear-gradient-4"/><linearGradient id="linear-gradient-6" x1="259.86" y1="111.23" x2="295.94" y2="111.23" xlink:href="#linear-gradient-4"/><linearGradient id="linear-gradient-7" x1="146.14" y1="211.56" x2="146.14" y2="112.84" gradientUnits="userSpaceOnUse"><stop offset="0" stop-color="#fff"/><stop offset="0.09" stop-color="#dadbf9"/><stop offset="0.3" stop-color="#7e7fe9"/><stop offset="0.45" stop-color="#3a3cde"/><stop offset="0.62" stop-color="#7779e8"/><stop offset="1" stop-color="#fff"/></linearGradient><linearGradient id="linear-gradient-8" x1="246.19" y1="188.61" x2="305.05" y2="223.78" xlink:href="#linear-gradient-7"/><linearGradient id="linear-gradient-9" x1="196.84" y1="109.91" x2="223.63" y2="129.65" xlink:href="#linear-gradient-7"/></defs><g class="cls-1"><g id="OBJECTS"><path class="cls-2" d="M367.34,155.4a67.23,67.23,0,0,0-112.72-44.26,85,85,0,0,1,9.68,17.6,48,48,0,1,1-11.87,35.37l-.62-8.15a67.23,67.23,0,1,0-67.15,72.32c1.72,0,3.46-.06,5.19-.19a66.77,66.77,0,0,0,40.63-17.75,85.6,85.6,0,0,1-9.71-17.58,48,48,0,1,1,11.85-35.35l.62,8.15a67.33,67.33,0,0,0,67,62.16c1.7,0,3.41-.06,5.13-.19a67.26,67.26,0,0,0,62-72.13Z" transform="translate(-117.52 -93.23)"/><path class="cls-3" d="M351.29,204.29a67.23,67.23,0,0,0-96.67-93.15,85,85,0,0,1,9.68,17.6,48,48,0,1,1-11.87,35.37l-.62-8.15a67.24,67.24,0,1,0-117.32,49.72l-3.47,31,31.09-12.32a66.8,66.8,0,0,0,22.55,3.91c1.72,0,3.46-.06,5.19-.19a66.77,66.77,0,0,0,40.63-17.75,85.6,85.6,0,0,1-9.71-17.58,48,48,0,1,1,11.85-35.35l.62,8.15a67.33,67.33,0,0,0,67,62.16c1.7,0,3.41-.06,5.13-.19a67.6,67.6,0,0,0,16.82-3.46L354,236.69l-3.53-31.52C350.77,204.87,351,204.59,351.29,204.29Z" transform="translate(-117.52 -93.23)"/><path class="cls-4" d="M357.74,156.12a57.61,57.61,0,0,0-97.88-36.68,84.27,84.27,0,0,1,4.44,9.3,48,48,0,1,1-11.87,35.37l-.62-8.15a67.24,67.24,0,1,0-117.32,49.72l-3.47,31,31.09-12.32a66.8,66.8,0,0,0,22.55,3.91c1.72,0,3.46-.06,5.19-.19a66.77,66.77,0,0,0,40.63-17.75,83.59,83.59,0,0,1-5.25-8.3,57.6,57.6,0,1,1,17-45.36l.62,8.15a57.61,57.61,0,1,0,114.9-8.71Z" transform="translate(-117.52 -93.23)"/><path class="cls-5" d="M127.31,165.39c-2.94-27.4,15.22-53.34,41.89-60.15,1.86-.37,3.71-.78,5.57-1.11l5.64-.54A61.12,61.12,0,0,0,159,110.07c-20.23,10.27-32.86,32.71-31.67,55.32Z" transform="translate(-117.52 -93.23)"/><path class="cls-6" d="M242.22,156.68c.71,5.31,1,10.7,2.25,15.91a60.75,60.75,0,0,0,20.81,33.23,68.67,68.67,0,0,0,6.5,4.73,54.11,54.11,0,0,1-6.88-4.24c-16.44-12.09-23.06-29.67-22.68-49.63Z" transform="translate(-117.52 -93.23)"/><path class="cls-7" d="M295.94,103a69.26,69.26,0,0,0-32.12,13.27c-1.18.87-2.83,2.21-4,3.14A49.23,49.23,0,0,1,295.94,103Z" transform="translate(-117.52 -93.23)"/><path class="cls-8" d="M165.14,204.85a48,48,0,0,1-2.5-86.42c-.6-.51-1.22-1-1.86-1.48a33.89,33.89,0,0,0-7.58-4.11,57.6,57.6,0,0,0,3.88,98.72A28.57,28.57,0,0,0,165.14,204.85Z" transform="translate(-117.52 -93.23)"/><path class="cls-9" d="M304.65,217.93a57.63,57.63,0,0,1-60.17-43.15,32.13,32.13,0,0,0-7.22,9.1,67.38,67.38,0,0,0,63,43.84c1.7,0,3.41-.06,5.13-.19a69.83,69.83,0,0,0,9.09-1.32c.75-1.4,1.45-2.8,2.13-4.21,1.13-2.37,2.21-4.8,3.15-7.29A57.36,57.36,0,0,1,304.65,217.93Z" transform="translate(-117.52 -93.23)"/><path class="cls-10" d="M188.31,103.54a42.54,42.54,0,0,0-2.82,9.26,2.17,2.17,0,0,0,0,.25,48,48,0,0,1,42.48,27c.38-.27.76-.53,1.12-.82a33.17,33.17,0,0,0,6-6.29A57.66,57.66,0,0,0,188.31,103.54Z" transform="translate(-117.52 -93.23)"/></g></g></svg>