<svg xmlns="http://www.w3.org/2000/svg" width="15.033" height="15.033" viewBox="0 0 15.033 15.033">
  <g id="Icon_ionic-ios-chatbubbles" data-name="Icon ionic-ios-chatbubbles" transform="translate(-3.375 -3.375)">
    <path id="Path_42493" data-name="Path 42493" d="M19.55,13.226a.876.876,0,0,1,.119-.441,1.217,1.217,0,0,1,.076-.112,5.855,5.855,0,0,0,1-3.263,6.147,6.147,0,0,0-6.277-6.035,6.234,6.234,0,0,0-6.154,4.8,5.807,5.807,0,0,0-.134,1.236,6.13,6.13,0,0,0,6.179,6.111,7.442,7.442,0,0,0,1.706-.278c.408-.112.813-.26.918-.3a.955.955,0,0,1,.336-.061.94.94,0,0,1,.365.072l2.049.726a.489.489,0,0,0,.141.036.288.288,0,0,0,.289-.289.464.464,0,0,0-.018-.1Z" transform="translate(-2.334)" fill="#226cf4"/>
    <path id="Path_42494" data-name="Path 42494" d="M13.15,20.455c-.13.036-.3.076-.477.116a6.67,6.67,0,0,1-1.229.163,6.13,6.13,0,0,1-6.18-6.111,6.832,6.832,0,0,1,.054-.773c.022-.155.047-.311.083-.463s.08-.325.126-.484l-.289.257A5.378,5.378,0,0,0,3.375,17.2a5.318,5.318,0,0,0,.9,2.963c.083.126.13.224.116.289s-.43,2.241-.43,2.241a.29.29,0,0,0,.1.278.294.294,0,0,0,.184.065.259.259,0,0,0,.1-.022l2.027-.8a.565.565,0,0,1,.434.007A6.082,6.082,0,0,0,9,22.659a5.676,5.676,0,0,0,4.34-1.991s.116-.159.249-.347C13.454,20.368,13.3,20.415,13.15,20.455Z" transform="translate(0 -4.631)" fill="#dedede"/>
  </g>
</svg>
