<svg xmlns="http://www.w3.org/2000/svg" width="15.033" height="15.033" viewBox="0 0 15.033 15.033">
  <path id="Icon_ionic-ios-refresh-circle" data-name="Icon ionic-ios-refresh-circle" d="M10.892,3.375a7.517,7.517,0,1,0,7.517,7.517A7.515,7.515,0,0,0,10.892,3.375Zm0,12.146a4.629,4.629,0,0,1,0-9.258V4.925a.289.289,0,0,1,.448-.242l2.634,1.9a.291.291,0,0,1-.014.491L11.325,8.749a.289.289,0,0,1-.434-.249V6.985a3.907,3.907,0,1,0,3.892,4.235.356.356,0,0,1,.358-.329h0a.357.357,0,0,1,.358.387A4.617,4.617,0,0,1,10.892,15.521Z" transform="translate(-3.375 -3.375)" fill="#f5a524"/>
</svg>
